<mxfile host="app.diagrams.net" modified="2023-12-03T16:23:10.711Z" agent="Mozilla/5.0 (Windows NT 10.0; Win64; x64) AppleWebKit/537.36 (KHTML, like Gecko) Chrome/119.0.0.0 Safari/537.36 Edg/119.0.0.0" etag="498uMX_UdQadpJEi-8oD" version="22.1.5" type="device">
  <diagram name="Страница — 1" id="cZLgVeapVBNI_IEV8JGX">
    <mxGraphModel dx="6155" dy="2090" grid="0" gridSize="10" guides="1" tooltips="1" connect="1" arrows="1" fold="1" page="0" pageScale="1" pageWidth="300" pageHeight="300" math="0" shadow="0">
      <root>
        <mxCell id="0" />
        <mxCell id="1" parent="0" />
        <mxCell id="PvF9w1s-Sq6uoAmOtv15-1" value="Читатель" style="html=1;overflow=block;blockSpacing=1;swimlane;childLayout=stackLayout;horizontal=1;horizontalStack=0;resizeParent=1;resizeParentMax=0;resizeLast=0;collapsible=0;fontStyle=0;marginBottom=0;swimlaneFillColor=#ffffff;startSize=30;whiteSpace=wrap;fontSize=13;fontColor=#ffffff;align=center;spacing=0;strokeColor=#005700;strokeOpacity=100;fillOpacity=100;rounded=1;absoluteArcSize=1;arcSize=7.5;strokeWidth=0.8;fillColor=#008a00;" parent="1" vertex="1">
          <mxGeometry x="-1335" y="187" width="150" height="126" as="geometry" />
        </mxCell>
        <mxCell id="PvF9w1s-Sq6uoAmOtv15-2" value="ID читателя" style="part=1;resizeHeight=0;strokeColor=none;align=left;verticalAlign=top;spacingLeft=4;spacingRight=4;overflow=hidden;rotatable=0;points=[[0,0.5],[1,0.5]];portConstraint=eastwest;html=1;whiteSpace=wrap;#ffffffwhiteSpace=wrap;fontSize=13;fontColor=#333333;fontStyle=4;fillColor=none;strokeOpacity=100;fillOpacity=100;" parent="PvF9w1s-Sq6uoAmOtv15-1" vertex="1">
          <mxGeometry y="30" width="150" height="24" as="geometry" />
        </mxCell>
        <mxCell id="PvF9w1s-Sq6uoAmOtv15-3" value="ID категории читателя" style="part=1;resizeHeight=0;strokeColor=none;align=left;verticalAlign=top;spacingLeft=4;spacingRight=4;overflow=hidden;rotatable=0;points=[[0,0.5],[1,0.5]];portConstraint=eastwest;html=1;whiteSpace=wrap;#ffffffwhiteSpace=wrap;fontSize=13;fontColor=#333333;fillColor=none;strokeOpacity=100;fillOpacity=100;" parent="PvF9w1s-Sq6uoAmOtv15-1" vertex="1">
          <mxGeometry y="54" width="150" height="24" as="geometry" />
        </mxCell>
        <mxCell id="PvF9w1s-Sq6uoAmOtv15-4" value="Дата регистрации" style="part=1;resizeHeight=0;strokeColor=none;align=left;verticalAlign=top;spacingLeft=4;spacingRight=4;overflow=hidden;rotatable=0;points=[[0,0.5],[1,0.5]];portConstraint=eastwest;html=1;whiteSpace=wrap;#ffffffwhiteSpace=wrap;fontSize=13;fontColor=#333333;fillColor=none;strokeOpacity=100;fillOpacity=100;" parent="PvF9w1s-Sq6uoAmOtv15-1" vertex="1">
          <mxGeometry y="78" width="150" height="24" as="geometry" />
        </mxCell>
        <mxCell id="PvF9w1s-Sq6uoAmOtv15-5" value="ID библиотеки" style="part=1;resizeHeight=0;strokeColor=none;align=left;verticalAlign=top;spacingLeft=4;spacingRight=4;overflow=hidden;rotatable=0;points=[[0,0.5],[1,0.5]];portConstraint=eastwest;html=1;whiteSpace=wrap;#ffffffwhiteSpace=wrap;fontSize=13;fontColor=#333333;fillColor=none;strokeOpacity=100;fillOpacity=100;" parent="PvF9w1s-Sq6uoAmOtv15-1" vertex="1">
          <mxGeometry y="102" width="150" height="24" as="geometry" />
        </mxCell>
        <mxCell id="PvF9w1s-Sq6uoAmOtv15-6" value="Категория читателя" style="html=1;overflow=block;blockSpacing=1;swimlane;childLayout=stackLayout;horizontal=1;horizontalStack=0;resizeParent=1;resizeParentMax=0;resizeLast=0;collapsible=0;fontStyle=0;marginBottom=0;swimlaneFillColor=#ffffff;startSize=30;whiteSpace=wrap;fontSize=13;fontColor=#ffffff;align=center;spacing=0;strokeColor=#005700;strokeOpacity=100;fillOpacity=100;rounded=1;absoluteArcSize=1;arcSize=7.5;strokeWidth=0.8;fillColor=#008a00;" parent="1" vertex="1">
          <mxGeometry x="-1335" y="80" width="150" height="78" as="geometry" />
        </mxCell>
        <mxCell id="PvF9w1s-Sq6uoAmOtv15-7" value="ID категории читателя" style="part=1;resizeHeight=0;strokeColor=none;align=left;verticalAlign=top;spacingLeft=4;spacingRight=4;overflow=hidden;rotatable=0;points=[[0,0.5],[1,0.5]];portConstraint=eastwest;html=1;whiteSpace=wrap;#ffffffwhiteSpace=wrap;fontSize=13;fontColor=#333333;fontStyle=4;fillColor=none;strokeOpacity=100;fillOpacity=100;" parent="PvF9w1s-Sq6uoAmOtv15-6" vertex="1">
          <mxGeometry y="30" width="150" height="24" as="geometry" />
        </mxCell>
        <mxCell id="PvF9w1s-Sq6uoAmOtv15-8" value="Название" style="part=1;resizeHeight=0;strokeColor=none;align=left;verticalAlign=top;spacingLeft=4;spacingRight=4;overflow=hidden;rotatable=0;points=[[0,0.5],[1,0.5]];portConstraint=eastwest;html=1;whiteSpace=wrap;#ffffffwhiteSpace=wrap;fontSize=13;fontColor=#333333;fillColor=none;strokeOpacity=100;fillOpacity=100;" parent="PvF9w1s-Sq6uoAmOtv15-6" vertex="1">
          <mxGeometry y="54" width="150" height="24" as="geometry" />
        </mxCell>
        <mxCell id="PvF9w1s-Sq6uoAmOtv15-9" value="" style="html=1;jettySize=18;whiteSpace=wrap;fontSize=13;strokeColor=#3a414a;strokeOpacity=100;strokeWidth=0.8;rounded=1;arcSize=12;edgeStyle=orthogonalEdgeStyle;startArrow=ERmany;startSize=10;endArrow=ERone;endSize=16;exitX=1.002;exitY=0.524;exitPerimeter=0;entryX=1.002;entryY=0.538;entryPerimeter=0;lucidId=gzVOatBWoSRN;" parent="1" source="PvF9w1s-Sq6uoAmOtv15-1" target="PvF9w1s-Sq6uoAmOtv15-6" edge="1">
          <mxGeometry width="100" height="100" relative="1" as="geometry">
            <Array as="points" />
          </mxGeometry>
        </mxCell>
        <mxCell id="PvF9w1s-Sq6uoAmOtv15-10" value="Выдача экземпляра издания" style="html=1;overflow=block;blockSpacing=1;swimlane;childLayout=stackLayout;horizontal=1;horizontalStack=0;resizeParent=1;resizeParentMax=0;resizeLast=0;collapsible=0;fontStyle=0;marginBottom=0;swimlaneFillColor=#ffffff;startSize=30;whiteSpace=wrap;fontSize=13;fontColor=#ffffff;align=center;spacing=0;strokeColor=#005700;strokeOpacity=100;fillOpacity=100;rounded=1;absoluteArcSize=1;arcSize=7.5;strokeWidth=0.8;fillColor=#008a00;" parent="1" vertex="1">
          <mxGeometry x="-1627" y="163" width="225" height="180" as="geometry" />
        </mxCell>
        <mxCell id="PvF9w1s-Sq6uoAmOtv15-11" value="ID выдачи" style="part=1;resizeHeight=0;strokeColor=none;align=left;verticalAlign=top;spacingLeft=4;spacingRight=4;overflow=hidden;rotatable=0;points=[[0,0.5],[1,0.5]];portConstraint=eastwest;html=1;whiteSpace=wrap;#ffffffwhiteSpace=wrap;fontSize=13;fontColor=#333333;fontStyle=4;fillColor=none;strokeOpacity=100;fillOpacity=100;" parent="PvF9w1s-Sq6uoAmOtv15-10" vertex="1">
          <mxGeometry y="30" width="225" height="24" as="geometry" />
        </mxCell>
        <mxCell id="PvF9w1s-Sq6uoAmOtv15-12" value="ID читателя" style="part=1;resizeHeight=0;strokeColor=none;align=left;verticalAlign=top;spacingLeft=4;spacingRight=4;overflow=hidden;rotatable=0;points=[[0,0.5],[1,0.5]];portConstraint=eastwest;html=1;whiteSpace=wrap;#ffffffwhiteSpace=wrap;fontSize=13;fontColor=#333333;fillColor=none;strokeOpacity=100;fillOpacity=100;" parent="PvF9w1s-Sq6uoAmOtv15-10" vertex="1">
          <mxGeometry y="54" width="225" height="24" as="geometry" />
        </mxCell>
        <mxCell id="PvF9w1s-Sq6uoAmOtv15-13" value="ID библиотекаря" style="part=1;resizeHeight=0;strokeColor=none;align=left;verticalAlign=top;spacingLeft=4;spacingRight=4;overflow=hidden;rotatable=0;points=[[0,0.5],[1,0.5]];portConstraint=eastwest;html=1;whiteSpace=wrap;#ffffffwhiteSpace=wrap;fontSize=13;fontColor=#333333;fillColor=none;strokeOpacity=100;fillOpacity=100;" parent="PvF9w1s-Sq6uoAmOtv15-10" vertex="1">
          <mxGeometry y="78" width="225" height="24" as="geometry" />
        </mxCell>
        <mxCell id="PvF9w1s-Sq6uoAmOtv15-14" value="ID экземпляра издания" style="part=1;resizeHeight=0;strokeColor=none;align=left;verticalAlign=top;spacingLeft=4;spacingRight=4;overflow=hidden;rotatable=0;points=[[0,0.5],[1,0.5]];portConstraint=eastwest;html=1;whiteSpace=wrap;#ffffffwhiteSpace=wrap;fontSize=13;fontColor=#333333;fillColor=none;strokeOpacity=100;fillOpacity=100;" parent="PvF9w1s-Sq6uoAmOtv15-10" vertex="1">
          <mxGeometry y="102" width="225" height="24" as="geometry" />
        </mxCell>
        <mxCell id="PvF9w1s-Sq6uoAmOtv15-15" value="Дата выдачи" style="part=1;resizeHeight=0;strokeColor=none;align=left;verticalAlign=top;spacingLeft=4;spacingRight=4;overflow=hidden;rotatable=0;points=[[0,0.5],[1,0.5]];portConstraint=eastwest;html=1;whiteSpace=wrap;#ffffffwhiteSpace=wrap;fontSize=13;fontColor=#333333;fillColor=none;strokeOpacity=100;fillOpacity=100;" parent="PvF9w1s-Sq6uoAmOtv15-10" vertex="1">
          <mxGeometry y="126" width="225" height="27" as="geometry" />
        </mxCell>
        <mxCell id="4xacU6Pkpj398cB6QMW2-4" value="Дата возврата" style="part=1;resizeHeight=0;strokeColor=none;align=left;verticalAlign=top;spacingLeft=4;spacingRight=4;overflow=hidden;rotatable=0;points=[[0,0.5],[1,0.5]];portConstraint=eastwest;html=1;whiteSpace=wrap;#ffffffwhiteSpace=wrap;fontSize=13;fontColor=#333333;fillColor=none;strokeOpacity=100;fillOpacity=100;" parent="PvF9w1s-Sq6uoAmOtv15-10" vertex="1">
          <mxGeometry y="153" width="225" height="27" as="geometry" />
        </mxCell>
        <mxCell id="PvF9w1s-Sq6uoAmOtv15-16" value="Дата крайнего срока возврата" style="part=1;resizeHeight=0;strokeColor=none;align=left;verticalAlign=top;spacingLeft=4;spacingRight=4;overflow=hidden;rotatable=0;points=[[0,0.5],[1,0.5]];portConstraint=eastwest;html=1;whiteSpace=wrap;#ffffffwhiteSpace=wrap;fontSize=13;fontColor=#333333;fillColor=none;strokeOpacity=100;fillOpacity=100;" parent="PvF9w1s-Sq6uoAmOtv15-10" vertex="1">
          <mxGeometry y="180" width="225" as="geometry" />
        </mxCell>
        <mxCell id="PvF9w1s-Sq6uoAmOtv15-17" value="" style="html=1;jettySize=18;whiteSpace=wrap;fontSize=13;strokeColor=#3a414a;strokeOpacity=100;strokeWidth=0.8;rounded=1;arcSize=12;edgeStyle=orthogonalEdgeStyle;startArrow=ERmany;startSize=10;endArrow=ERone;endSize=16;exitX=1;exitY=0.5;entryX=-0.002;entryY=0.333;entryPerimeter=0;lucidId=KSVOqX-~kG_~;exitDx=0;exitDy=0;" parent="1" source="PvF9w1s-Sq6uoAmOtv15-12" target="PvF9w1s-Sq6uoAmOtv15-1" edge="1">
          <mxGeometry width="100" height="100" relative="1" as="geometry">
            <Array as="points" />
          </mxGeometry>
        </mxCell>
        <mxCell id="PvF9w1s-Sq6uoAmOtv15-18" value="Сотрудник" style="html=1;overflow=block;blockSpacing=1;swimlane;childLayout=stackLayout;horizontal=1;horizontalStack=0;resizeParent=1;resizeParentMax=0;resizeLast=0;collapsible=0;fontStyle=0;marginBottom=0;swimlaneFillColor=#ffffff;startSize=30;whiteSpace=wrap;fontSize=13;fontColor=#ffffff;align=center;spacing=0;strokeColor=#005700;strokeOpacity=100;fillOpacity=100;rounded=1;absoluteArcSize=1;arcSize=7.5;strokeWidth=0.8;fillColor=#008a00;" parent="1" vertex="1">
          <mxGeometry x="-2144" y="-141" width="169" height="102" as="geometry" />
        </mxCell>
        <mxCell id="PvF9w1s-Sq6uoAmOtv15-19" value="ID сотрудника" style="part=1;resizeHeight=0;strokeColor=none;align=left;verticalAlign=top;spacingLeft=4;spacingRight=4;overflow=hidden;rotatable=0;points=[[0,0.5],[1,0.5]];portConstraint=eastwest;html=1;whiteSpace=wrap;#ffffffwhiteSpace=wrap;fontSize=13;fontColor=#333333;fontStyle=4;fillColor=none;strokeOpacity=100;fillOpacity=100;" parent="PvF9w1s-Sq6uoAmOtv15-18" vertex="1">
          <mxGeometry y="30" width="169" height="24" as="geometry" />
        </mxCell>
        <mxCell id="PvF9w1s-Sq6uoAmOtv15-20" value="ID должности" style="part=1;resizeHeight=0;strokeColor=none;align=left;verticalAlign=top;spacingLeft=4;spacingRight=4;overflow=hidden;rotatable=0;points=[[0,0.5],[1,0.5]];portConstraint=eastwest;html=1;whiteSpace=wrap;#ffffffwhiteSpace=wrap;fontSize=13;fontColor=#333333;fillColor=none;strokeOpacity=100;fillOpacity=100;" parent="PvF9w1s-Sq6uoAmOtv15-18" vertex="1">
          <mxGeometry y="54" width="169" height="24" as="geometry" />
        </mxCell>
        <mxCell id="PvF9w1s-Sq6uoAmOtv15-22" value="ID отдела" style="part=1;resizeHeight=0;strokeColor=none;align=left;verticalAlign=top;spacingLeft=4;spacingRight=4;overflow=hidden;rotatable=0;points=[[0,0.5],[1,0.5]];portConstraint=eastwest;html=1;whiteSpace=wrap;#ffffffwhiteSpace=wrap;fontSize=13;fontColor=#333333;fillColor=none;strokeOpacity=100;fillOpacity=100;" parent="PvF9w1s-Sq6uoAmOtv15-18" vertex="1">
          <mxGeometry y="78" width="169" height="24" as="geometry" />
        </mxCell>
        <mxCell id="PvF9w1s-Sq6uoAmOtv15-24" value="Должность" style="html=1;overflow=block;blockSpacing=1;swimlane;childLayout=stackLayout;horizontal=1;horizontalStack=0;resizeParent=1;resizeParentMax=0;resizeLast=0;collapsible=0;fontStyle=0;marginBottom=0;swimlaneFillColor=#ffffff;startSize=30;whiteSpace=wrap;fontSize=13;fontColor=#ffffff;align=center;spacing=0;strokeColor=#005700;strokeOpacity=100;fillOpacity=100;rounded=1;absoluteArcSize=1;arcSize=7.5;strokeWidth=0.8;fillColor=#008a00;" parent="1" vertex="1">
          <mxGeometry x="-1905" y="-117" width="135" height="78" as="geometry" />
        </mxCell>
        <mxCell id="PvF9w1s-Sq6uoAmOtv15-25" value="ID должности" style="part=1;resizeHeight=0;strokeColor=none;align=left;verticalAlign=top;spacingLeft=4;spacingRight=4;overflow=hidden;rotatable=0;points=[[0,0.5],[1,0.5]];portConstraint=eastwest;html=1;whiteSpace=wrap;#ffffffwhiteSpace=wrap;fontSize=13;fontColor=#333333;fontStyle=4;fillColor=none;strokeOpacity=100;fillOpacity=100;" parent="PvF9w1s-Sq6uoAmOtv15-24" vertex="1">
          <mxGeometry y="30" width="135" height="24" as="geometry" />
        </mxCell>
        <mxCell id="PvF9w1s-Sq6uoAmOtv15-26" value="Название" style="part=1;resizeHeight=0;strokeColor=none;align=left;verticalAlign=top;spacingLeft=4;spacingRight=4;overflow=hidden;rotatable=0;points=[[0,0.5],[1,0.5]];portConstraint=eastwest;html=1;whiteSpace=wrap;#ffffffwhiteSpace=wrap;fontSize=13;fontColor=#333333;fillColor=none;strokeOpacity=100;fillOpacity=100;" parent="PvF9w1s-Sq6uoAmOtv15-24" vertex="1">
          <mxGeometry y="54" width="135" height="24" as="geometry" />
        </mxCell>
        <mxCell id="PvF9w1s-Sq6uoAmOtv15-27" value="" style="html=1;jettySize=18;whiteSpace=wrap;fontSize=13;strokeColor=#3a414a;strokeOpacity=100;strokeWidth=0.8;rounded=1;arcSize=12;edgeStyle=orthogonalEdgeStyle;startArrow=ERone;startSize=16;endArrow=ERmany;endSize=10;exitX=-0.003;exitY=0.539;exitPerimeter=0;entryX=1;entryY=0.5;lucidId=bWVOXa4nwIZu;entryDx=0;entryDy=0;" parent="1" source="PvF9w1s-Sq6uoAmOtv15-24" target="PvF9w1s-Sq6uoAmOtv15-20" edge="1">
          <mxGeometry width="100" height="100" relative="1" as="geometry">
            <Array as="points" />
          </mxGeometry>
        </mxCell>
        <mxCell id="PvF9w1s-Sq6uoAmOtv15-28" value="Зарплата" style="html=1;overflow=block;blockSpacing=1;swimlane;childLayout=stackLayout;horizontal=1;horizontalStack=0;resizeParent=1;resizeParentMax=0;resizeLast=0;collapsible=0;fontStyle=0;marginBottom=0;swimlaneFillColor=#ffffff;startSize=30;whiteSpace=wrap;fontSize=13;fontColor=#ffffff;align=center;spacing=0;strokeColor=#005700;strokeOpacity=100;fillOpacity=100;rounded=1;absoluteArcSize=1;arcSize=7.5;strokeWidth=0.8;fillColor=#008a00;" parent="1" vertex="1">
          <mxGeometry x="-1905" y="-222" width="135" height="102" as="geometry" />
        </mxCell>
        <mxCell id="PvF9w1s-Sq6uoAmOtv15-29" value="ID должности" style="part=1;resizeHeight=0;strokeColor=none;align=left;verticalAlign=top;spacingLeft=4;spacingRight=4;overflow=hidden;rotatable=0;points=[[0,0.5],[1,0.5]];portConstraint=eastwest;html=1;whiteSpace=wrap;#ffffffwhiteSpace=wrap;fontSize=13;fontColor=#333333;fontStyle=4;fillColor=none;strokeOpacity=100;fillOpacity=100;" parent="PvF9w1s-Sq6uoAmOtv15-28" vertex="1">
          <mxGeometry y="30" width="135" height="24" as="geometry" />
        </mxCell>
        <mxCell id="otM5v1MfiI3TTdCXf4F5-4" value="&lt;u&gt;ID библиотеки&lt;/u&gt;" style="part=1;resizeHeight=0;strokeColor=none;align=left;verticalAlign=top;spacingLeft=4;spacingRight=4;overflow=hidden;rotatable=0;points=[[0,0.5],[1,0.5]];portConstraint=eastwest;html=1;whiteSpace=wrap;#ffffffwhiteSpace=wrap;fontSize=13;fontColor=#333333;fillColor=none;strokeOpacity=100;fillOpacity=100;" parent="PvF9w1s-Sq6uoAmOtv15-28" vertex="1">
          <mxGeometry y="54" width="135" height="24" as="geometry" />
        </mxCell>
        <mxCell id="PvF9w1s-Sq6uoAmOtv15-30" value="Размер зарплаты" style="part=1;resizeHeight=0;strokeColor=none;align=left;verticalAlign=top;spacingLeft=4;spacingRight=4;overflow=hidden;rotatable=0;points=[[0,0.5],[1,0.5]];portConstraint=eastwest;html=1;whiteSpace=wrap;#ffffffwhiteSpace=wrap;fontSize=13;fontColor=#333333;fillColor=none;strokeOpacity=100;fillOpacity=100;" parent="PvF9w1s-Sq6uoAmOtv15-28" vertex="1">
          <mxGeometry y="78" width="135" height="24" as="geometry" />
        </mxCell>
        <mxCell id="PvF9w1s-Sq6uoAmOtv15-36" value="Библиотека" style="html=1;overflow=block;blockSpacing=1;swimlane;childLayout=stackLayout;horizontal=1;horizontalStack=0;resizeParent=1;resizeParentMax=0;resizeLast=0;collapsible=0;fontStyle=0;marginBottom=0;swimlaneFillColor=#ffffff;startSize=30;whiteSpace=wrap;fontSize=13;align=center;spacing=0;strokeOpacity=100;fillOpacity=100;rounded=1;absoluteArcSize=1;arcSize=7.5;strokeWidth=0.8;fillColor=#008a00;strokeColor=#005700;fontColor=#ffffff;" parent="1" vertex="1">
          <mxGeometry x="-2144" y="-320" width="169" height="78" as="geometry" />
        </mxCell>
        <mxCell id="PvF9w1s-Sq6uoAmOtv15-37" value="ID библиотеки" style="part=1;resizeHeight=0;strokeColor=none;align=left;verticalAlign=top;spacingLeft=4;spacingRight=4;overflow=hidden;rotatable=0;points=[[0,0.5],[1,0.5]];portConstraint=eastwest;html=1;whiteSpace=wrap;#ffffffwhiteSpace=wrap;fontSize=13;fontColor=#333333;fontStyle=4;fillColor=none;strokeOpacity=100;fillOpacity=100;" parent="PvF9w1s-Sq6uoAmOtv15-36" vertex="1">
          <mxGeometry y="30" width="169" height="24" as="geometry" />
        </mxCell>
        <mxCell id="PvF9w1s-Sq6uoAmOtv15-38" value="Название" style="part=1;resizeHeight=0;strokeColor=none;align=left;verticalAlign=top;spacingLeft=4;spacingRight=4;overflow=hidden;rotatable=0;points=[[0,0.5],[1,0.5]];portConstraint=eastwest;html=1;whiteSpace=wrap;#ffffffwhiteSpace=wrap;fontSize=13;fontColor=#333333;fillColor=none;strokeOpacity=100;fillOpacity=100;" parent="PvF9w1s-Sq6uoAmOtv15-36" vertex="1">
          <mxGeometry y="54" width="169" height="24" as="geometry" />
        </mxCell>
        <mxCell id="PvF9w1s-Sq6uoAmOtv15-42" value="" style="html=1;jettySize=18;whiteSpace=wrap;fontSize=13;strokeColor=#3a414a;strokeOpacity=100;strokeWidth=0.8;rounded=1;arcSize=12;edgeStyle=orthogonalEdgeStyle;startArrow=ERone;startSize=16;endArrow=ERmany;endSize=10;exitX=-0.002;exitY=0.28;exitPerimeter=0;entryX=0;entryY=0.5;lucidId=X6VOyPNAQlMR;entryDx=0;entryDy=0;" parent="1" source="PvF9w1s-Sq6uoAmOtv15-36" edge="1">
          <mxGeometry width="100" height="100" relative="1" as="geometry">
            <Array as="points" />
          </mxGeometry>
        </mxCell>
        <mxCell id="PvF9w1s-Sq6uoAmOtv15-43" value="Издание" style="html=1;overflow=block;blockSpacing=1;swimlane;childLayout=stackLayout;horizontal=1;horizontalStack=0;resizeParent=1;resizeParentMax=0;resizeLast=0;collapsible=0;fontStyle=0;marginBottom=0;swimlaneFillColor=#ffffff;startSize=30;whiteSpace=wrap;fontSize=13;fontColor=#ffffff;align=center;spacing=0;strokeColor=#005700;strokeOpacity=100;fillOpacity=100;rounded=1;absoluteArcSize=1;arcSize=7.5;strokeWidth=0.8;fillColor=#008a00;" parent="1" vertex="1">
          <mxGeometry x="-2107" y="418" width="166" height="178" as="geometry" />
        </mxCell>
        <mxCell id="PvF9w1s-Sq6uoAmOtv15-44" value="&lt;font style=&quot;font-size: 13px;&quot;&gt;Номенклатурный номер&lt;/font&gt;" style="part=1;resizeHeight=0;strokeColor=none;align=left;verticalAlign=top;spacingLeft=4;spacingRight=4;overflow=hidden;rotatable=0;points=[[0,0.5],[1,0.5]];portConstraint=eastwest;html=1;whiteSpace=wrap;#ffffffwhiteSpace=wrap;fontSize=14;fontColor=#202122;fontStyle=4;fillColor=none;strokeOpacity=100;fillOpacity=100;" parent="PvF9w1s-Sq6uoAmOtv15-43" vertex="1">
          <mxGeometry y="30" width="166" height="28" as="geometry" />
        </mxCell>
        <mxCell id="PvF9w1s-Sq6uoAmOtv15-45" value="ID категории издания" style="part=1;resizeHeight=0;strokeColor=none;align=left;verticalAlign=top;spacingLeft=4;spacingRight=4;overflow=hidden;rotatable=0;points=[[0,0.5],[1,0.5]];portConstraint=eastwest;html=1;whiteSpace=wrap;#ffffffwhiteSpace=wrap;fontSize=13;fontColor=#333333;fillColor=none;strokeOpacity=100;fillOpacity=100;" parent="PvF9w1s-Sq6uoAmOtv15-43" vertex="1">
          <mxGeometry y="58" width="166" height="24" as="geometry" />
        </mxCell>
        <mxCell id="PvF9w1s-Sq6uoAmOtv15-46" value="Название" style="part=1;resizeHeight=0;strokeColor=none;align=left;verticalAlign=top;spacingLeft=4;spacingRight=4;overflow=hidden;rotatable=0;points=[[0,0.5],[1,0.5]];portConstraint=eastwest;html=1;whiteSpace=wrap;#ffffffwhiteSpace=wrap;fontSize=13;fontColor=#333333;fillColor=none;strokeOpacity=100;fillOpacity=100;" parent="PvF9w1s-Sq6uoAmOtv15-43" vertex="1">
          <mxGeometry y="82" width="166" height="24" as="geometry" />
        </mxCell>
        <mxCell id="PvF9w1s-Sq6uoAmOtv15-47" value="ID издателя" style="part=1;resizeHeight=0;strokeColor=none;align=left;verticalAlign=top;spacingLeft=4;spacingRight=4;overflow=hidden;rotatable=0;points=[[0,0.5],[1,0.5]];portConstraint=eastwest;html=1;whiteSpace=wrap;#ffffffwhiteSpace=wrap;fontSize=13;fontColor=#333333;fillColor=none;strokeOpacity=100;fillOpacity=100;" parent="PvF9w1s-Sq6uoAmOtv15-43" vertex="1">
          <mxGeometry y="106" width="166" height="24" as="geometry" />
        </mxCell>
        <mxCell id="PvF9w1s-Sq6uoAmOtv15-48" value="Год издания" style="part=1;resizeHeight=0;strokeColor=none;align=left;verticalAlign=top;spacingLeft=4;spacingRight=4;overflow=hidden;rotatable=0;points=[[0,0.5],[1,0.5]];portConstraint=eastwest;html=1;whiteSpace=wrap;#ffffffwhiteSpace=wrap;fontSize=13;fontColor=#333333;fillColor=none;strokeOpacity=100;fillOpacity=100;" parent="PvF9w1s-Sq6uoAmOtv15-43" vertex="1">
          <mxGeometry y="130" width="166" height="24" as="geometry" />
        </mxCell>
        <mxCell id="pvNLKoHXQlOhcsUP0_Xg-102" value="Объём в страницах" style="part=1;resizeHeight=0;strokeColor=none;align=left;verticalAlign=top;spacingLeft=4;spacingRight=4;overflow=hidden;rotatable=0;points=[[0,0.5],[1,0.5]];portConstraint=eastwest;html=1;whiteSpace=wrap;#ffffffwhiteSpace=wrap;fontSize=13;fontColor=#333333;fillColor=none;strokeOpacity=100;fillOpacity=100;" parent="PvF9w1s-Sq6uoAmOtv15-43" vertex="1">
          <mxGeometry y="154" width="166" height="24" as="geometry" />
        </mxCell>
        <mxCell id="PvF9w1s-Sq6uoAmOtv15-49" value="Студент" style="html=1;overflow=block;blockSpacing=1;swimlane;childLayout=stackLayout;horizontal=1;horizontalStack=0;resizeParent=1;resizeParentMax=0;resizeLast=0;collapsible=0;fontStyle=0;marginBottom=0;swimlaneFillColor=#ffffff;startSize=30;whiteSpace=wrap;fontSize=13;fontColor=#ffffff;align=center;spacing=0;strokeColor=#005700;strokeOpacity=100;fillOpacity=100;rounded=1;absoluteArcSize=1;arcSize=7.5;strokeWidth=0.8;fillColor=#008a00;" parent="1" vertex="1">
          <mxGeometry x="-1095" y="14" width="210" height="155" as="geometry" />
        </mxCell>
        <mxCell id="PvF9w1s-Sq6uoAmOtv15-50" value="ID читателя" style="part=1;resizeHeight=0;strokeColor=none;align=left;verticalAlign=top;spacingLeft=4;spacingRight=4;overflow=hidden;rotatable=0;points=[[0,0.5],[1,0.5]];portConstraint=eastwest;html=1;whiteSpace=wrap;#ffffffwhiteSpace=wrap;fontSize=13;fontColor=#333333;fontStyle=4;fillColor=none;strokeOpacity=100;fillOpacity=100;" parent="PvF9w1s-Sq6uoAmOtv15-49" vertex="1">
          <mxGeometry y="30" width="210" height="24" as="geometry" />
        </mxCell>
        <mxCell id="PvF9w1s-Sq6uoAmOtv15-51" value="Название учебного заведения" style="part=1;resizeHeight=0;strokeColor=none;align=left;verticalAlign=top;spacingLeft=4;spacingRight=4;overflow=hidden;rotatable=0;points=[[0,0.5],[1,0.5]];portConstraint=eastwest;html=1;whiteSpace=wrap;#ffffffwhiteSpace=wrap;fontSize=13;fontColor=#333333;fillColor=none;strokeOpacity=100;fillOpacity=100;" parent="PvF9w1s-Sq6uoAmOtv15-49" vertex="1">
          <mxGeometry y="54" width="210" height="24" as="geometry" />
        </mxCell>
        <mxCell id="PvF9w1s-Sq6uoAmOtv15-52" value="Факультет" style="part=1;resizeHeight=0;strokeColor=none;align=left;verticalAlign=top;spacingLeft=4;spacingRight=4;overflow=hidden;rotatable=0;points=[[0,0.5],[1,0.5]];portConstraint=eastwest;html=1;whiteSpace=wrap;#ffffffwhiteSpace=wrap;fontSize=13;fontColor=#333333;fillColor=none;strokeOpacity=100;fillOpacity=100;" parent="PvF9w1s-Sq6uoAmOtv15-49" vertex="1">
          <mxGeometry y="78" width="210" height="24" as="geometry" />
        </mxCell>
        <mxCell id="PvF9w1s-Sq6uoAmOtv15-53" value="Дата зачисления" style="part=1;resizeHeight=0;strokeColor=none;align=left;verticalAlign=top;spacingLeft=4;spacingRight=4;overflow=hidden;rotatable=0;points=[[0,0.5],[1,0.5]];portConstraint=eastwest;html=1;whiteSpace=wrap;#ffffffwhiteSpace=wrap;fontSize=13;fontColor=#333333;fillColor=none;strokeOpacity=100;fillOpacity=100;" parent="PvF9w1s-Sq6uoAmOtv15-49" vertex="1">
          <mxGeometry y="102" width="210" height="24" as="geometry" />
        </mxCell>
        <mxCell id="PvF9w1s-Sq6uoAmOtv15-54" value="Номер группы" style="part=1;resizeHeight=0;strokeColor=none;align=left;verticalAlign=top;spacingLeft=4;spacingRight=4;overflow=hidden;rotatable=0;points=[[0,0.5],[1,0.5]];portConstraint=eastwest;html=1;whiteSpace=wrap;#ffffffwhiteSpace=wrap;fontSize=13;fontColor=#333333;fillColor=none;strokeOpacity=100;fillOpacity=100;" parent="PvF9w1s-Sq6uoAmOtv15-49" vertex="1">
          <mxGeometry y="126" width="210" height="29" as="geometry" />
        </mxCell>
        <mxCell id="PvF9w1s-Sq6uoAmOtv15-55" value="Научный рабоник" style="html=1;overflow=block;blockSpacing=1;swimlane;childLayout=stackLayout;horizontal=1;horizontalStack=0;resizeParent=1;resizeParentMax=0;resizeLast=0;collapsible=0;fontStyle=0;marginBottom=0;swimlaneFillColor=#ffffff;startSize=30;whiteSpace=wrap;fontSize=13;fontColor=#ffffff;align=center;spacing=0;strokeColor=#005700;strokeOpacity=100;fillOpacity=100;rounded=1;absoluteArcSize=1;arcSize=7.5;strokeWidth=0.8;fillColor=#008a00;" parent="1" vertex="1">
          <mxGeometry x="-1095" y="187" width="210" height="102" as="geometry" />
        </mxCell>
        <mxCell id="PvF9w1s-Sq6uoAmOtv15-56" value="ID читателя" style="part=1;resizeHeight=0;strokeColor=none;align=left;verticalAlign=top;spacingLeft=4;spacingRight=4;overflow=hidden;rotatable=0;points=[[0,0.5],[1,0.5]];portConstraint=eastwest;html=1;whiteSpace=wrap;#ffffffwhiteSpace=wrap;fontSize=13;fontColor=#333333;fontStyle=4;fillColor=none;strokeOpacity=100;fillOpacity=100;" parent="PvF9w1s-Sq6uoAmOtv15-55" vertex="1">
          <mxGeometry y="30" width="210" height="24" as="geometry" />
        </mxCell>
        <mxCell id="PvF9w1s-Sq6uoAmOtv15-57" value="Название организации" style="part=1;resizeHeight=0;strokeColor=none;align=left;verticalAlign=top;spacingLeft=4;spacingRight=4;overflow=hidden;rotatable=0;points=[[0,0.5],[1,0.5]];portConstraint=eastwest;html=1;whiteSpace=wrap;#ffffffwhiteSpace=wrap;fontSize=13;fontColor=#333333;fillColor=none;strokeOpacity=100;fillOpacity=100;" parent="PvF9w1s-Sq6uoAmOtv15-55" vertex="1">
          <mxGeometry y="54" width="210" height="24" as="geometry" />
        </mxCell>
        <mxCell id="PvF9w1s-Sq6uoAmOtv15-58" value="Научная тема" style="part=1;resizeHeight=0;strokeColor=none;align=left;verticalAlign=top;spacingLeft=4;spacingRight=4;overflow=hidden;rotatable=0;points=[[0,0.5],[1,0.5]];portConstraint=eastwest;html=1;whiteSpace=wrap;#ffffffwhiteSpace=wrap;fontSize=13;fontColor=#333333;fillColor=none;strokeOpacity=100;fillOpacity=100;" parent="PvF9w1s-Sq6uoAmOtv15-55" vertex="1">
          <mxGeometry y="78" width="210" height="24" as="geometry" />
        </mxCell>
        <mxCell id="PvF9w1s-Sq6uoAmOtv15-59" value="" style="html=1;jettySize=18;whiteSpace=wrap;fontSize=13;strokeColor=#3a414a;strokeOpacity=100;strokeWidth=0.8;rounded=1;arcSize=12;edgeStyle=orthogonalEdgeStyle;startArrow=ERone;startSize=16;endArrow=ERzeroToOne;endSize=10;exitX=1.002;exitY=0.333;exitPerimeter=0;entryX=-0.002;entryY=0.412;entryPerimeter=0;lucidId=-hWOEKWkFJAs;" parent="1" source="PvF9w1s-Sq6uoAmOtv15-1" target="PvF9w1s-Sq6uoAmOtv15-55" edge="1">
          <mxGeometry width="100" height="100" relative="1" as="geometry">
            <Array as="points" />
          </mxGeometry>
        </mxCell>
        <mxCell id="PvF9w1s-Sq6uoAmOtv15-60" value="" style="html=1;jettySize=18;whiteSpace=wrap;fontSize=13;strokeColor=#3a414a;strokeOpacity=100;strokeWidth=0.8;rounded=1;arcSize=12;edgeStyle=orthogonalEdgeStyle;startArrow=ERone;startSize=16;endArrow=ERzeroToOne;endSize=10;exitX=1.002;exitY=0.333;exitPerimeter=0;entryX=-0.002;entryY=0.28;entryPerimeter=0;lucidId=iiWO-NnlPZ5a;" parent="1" source="PvF9w1s-Sq6uoAmOtv15-1" target="PvF9w1s-Sq6uoAmOtv15-49" edge="1">
          <mxGeometry width="100" height="100" relative="1" as="geometry">
            <Array as="points" />
          </mxGeometry>
        </mxCell>
        <mxCell id="PvF9w1s-Sq6uoAmOtv15-61" value="Экземпляр издания" style="html=1;overflow=block;blockSpacing=1;swimlane;childLayout=stackLayout;horizontal=1;horizontalStack=0;resizeParent=1;resizeParentMax=0;resizeLast=0;collapsible=0;fontStyle=0;marginBottom=0;swimlaneFillColor=#ffffff;startSize=30;whiteSpace=wrap;fontSize=13;fontColor=#ffffff;align=center;spacing=0;strokeColor=#005700;strokeOpacity=100;fillOpacity=100;rounded=1;absoluteArcSize=1;arcSize=7.5;strokeWidth=0.8;fillColor=#008a00;" parent="1" vertex="1">
          <mxGeometry x="-1874" y="235.5" width="169" height="150" as="geometry" />
        </mxCell>
        <mxCell id="PvF9w1s-Sq6uoAmOtv15-62" value="ID экземпляра издания" style="part=1;resizeHeight=0;strokeColor=none;align=left;verticalAlign=top;spacingLeft=4;spacingRight=4;overflow=hidden;rotatable=0;points=[[0,0.5],[1,0.5]];portConstraint=eastwest;html=1;whiteSpace=wrap;#ffffffwhiteSpace=wrap;fontSize=13;fontColor=#333333;fontStyle=4;fillColor=none;strokeOpacity=100;fillOpacity=100;" parent="PvF9w1s-Sq6uoAmOtv15-61" vertex="1">
          <mxGeometry y="30" width="169" height="24" as="geometry" />
        </mxCell>
        <mxCell id="PvF9w1s-Sq6uoAmOtv15-63" value="&lt;font style=&quot;font-size: 13px;&quot;&gt;Номенклатурный номер&lt;/font&gt;" style="part=1;resizeHeight=0;strokeColor=none;align=left;verticalAlign=top;spacingLeft=4;spacingRight=4;overflow=hidden;rotatable=0;points=[[0,0.5],[1,0.5]];portConstraint=eastwest;html=1;whiteSpace=wrap;#ffffffwhiteSpace=wrap;fontSize=14;fontColor=#202122;fillColor=none;strokeOpacity=100;fillOpacity=100;" parent="PvF9w1s-Sq6uoAmOtv15-61" vertex="1">
          <mxGeometry y="54" width="169" height="24" as="geometry" />
        </mxCell>
        <mxCell id="PvF9w1s-Sq6uoAmOtv15-65" value="ID читального зала" style="part=1;resizeHeight=0;strokeColor=none;align=left;verticalAlign=top;spacingLeft=4;spacingRight=4;overflow=hidden;rotatable=0;points=[[0,0.5],[1,0.5]];portConstraint=eastwest;html=1;whiteSpace=wrap;#ffffffwhiteSpace=wrap;fontSize=13;fontColor=#333333;fillColor=none;strokeOpacity=100;fillOpacity=100;" parent="PvF9w1s-Sq6uoAmOtv15-61" vertex="1">
          <mxGeometry y="78" width="169" height="24" as="geometry" />
        </mxCell>
        <mxCell id="PvF9w1s-Sq6uoAmOtv15-66" value="Стеллаж" style="part=1;resizeHeight=0;strokeColor=none;align=left;verticalAlign=top;spacingLeft=4;spacingRight=4;overflow=hidden;rotatable=0;points=[[0,0.5],[1,0.5]];portConstraint=eastwest;html=1;whiteSpace=wrap;#ffffffwhiteSpace=wrap;fontSize=13;fontColor=#333333;fillColor=none;strokeOpacity=100;fillOpacity=100;" parent="PvF9w1s-Sq6uoAmOtv15-61" vertex="1">
          <mxGeometry y="102" width="169" height="24" as="geometry" />
        </mxCell>
        <mxCell id="otM5v1MfiI3TTdCXf4F5-1" value="Полка" style="part=1;resizeHeight=0;strokeColor=none;align=left;verticalAlign=top;spacingLeft=4;spacingRight=4;overflow=hidden;rotatable=0;points=[[0,0.5],[1,0.5]];portConstraint=eastwest;html=1;whiteSpace=wrap;#ffffffwhiteSpace=wrap;fontSize=13;fontColor=#333333;fillColor=none;strokeOpacity=100;fillOpacity=100;" parent="PvF9w1s-Sq6uoAmOtv15-61" vertex="1">
          <mxGeometry y="126" width="169" height="24" as="geometry" />
        </mxCell>
        <mxCell id="PvF9w1s-Sq6uoAmOtv15-67" value="Полка" style="part=1;resizeHeight=0;strokeColor=none;align=left;verticalAlign=top;spacingLeft=4;spacingRight=4;overflow=hidden;rotatable=0;points=[[0,0.5],[1,0.5]];portConstraint=eastwest;html=1;whiteSpace=wrap;#ffffffwhiteSpace=wrap;fontSize=13;fontColor=#333333;fillColor=none;strokeOpacity=100;fillOpacity=100;" parent="PvF9w1s-Sq6uoAmOtv15-61" vertex="1">
          <mxGeometry y="150" width="169" as="geometry" />
        </mxCell>
        <mxCell id="PvF9w1s-Sq6uoAmOtv15-68" value="" style="html=1;jettySize=18;whiteSpace=wrap;fontSize=13;strokeColor=#3a414a;strokeOpacity=100;strokeWidth=0.8;rounded=1;arcSize=12;edgeStyle=orthogonalEdgeStyle;startArrow=ERone;startSize=16;endArrow=ERone;endSize=16;exitX=1;exitY=0.5;entryX=0;entryY=0.5;lucidId=WyWO2uIzKxOy;entryDx=0;entryDy=0;exitDx=0;exitDy=0;" parent="1" source="PvF9w1s-Sq6uoAmOtv15-62" target="PvF9w1s-Sq6uoAmOtv15-14" edge="1">
          <mxGeometry width="100" height="100" relative="1" as="geometry">
            <Array as="points" />
          </mxGeometry>
        </mxCell>
        <mxCell id="PvF9w1s-Sq6uoAmOtv15-69" value="" style="html=1;jettySize=18;whiteSpace=wrap;fontSize=13;strokeColor=#3a414a;strokeOpacity=100;strokeWidth=0.8;rounded=1;arcSize=12;edgeStyle=orthogonalEdgeStyle;startArrow=ERone;startSize=16;endArrow=ERmany;endSize=10;lucidId=BFWObcZz9gxv;entryX=-0.001;entryY=0.668;entryDx=0;entryDy=0;entryPerimeter=0;exitX=1;exitY=0.5;exitDx=0;exitDy=0;" parent="1" source="PvF9w1s-Sq6uoAmOtv15-44" target="PvF9w1s-Sq6uoAmOtv15-63" edge="1">
          <mxGeometry width="100" height="100" relative="1" as="geometry">
            <Array as="points">
              <mxPoint x="-1913" y="462" />
              <mxPoint x="-1913" y="305" />
            </Array>
            <mxPoint x="-1888" y="391" as="sourcePoint" />
            <mxPoint x="-1871" y="305" as="targetPoint" />
          </mxGeometry>
        </mxCell>
        <mxCell id="PvF9w1s-Sq6uoAmOtv15-70" value="Школьник" style="html=1;overflow=block;blockSpacing=1;swimlane;childLayout=stackLayout;horizontal=1;horizontalStack=0;resizeParent=1;resizeParentMax=0;resizeLast=0;collapsible=0;fontStyle=0;marginBottom=0;swimlaneFillColor=#ffffff;startSize=30;whiteSpace=wrap;fontSize=13;fontColor=#ffffff;align=center;spacing=0;strokeColor=#005700;strokeOpacity=100;fillOpacity=100;rounded=1;absoluteArcSize=1;arcSize=7.5;strokeWidth=0.8;fillColor=#008a00;" parent="1" vertex="1">
          <mxGeometry x="-1095" y="314" width="210" height="102" as="geometry" />
        </mxCell>
        <mxCell id="PvF9w1s-Sq6uoAmOtv15-71" value="ID читателя" style="part=1;resizeHeight=0;strokeColor=none;align=left;verticalAlign=top;spacingLeft=4;spacingRight=4;overflow=hidden;rotatable=0;points=[[0,0.5],[1,0.5]];portConstraint=eastwest;html=1;whiteSpace=wrap;#ffffffwhiteSpace=wrap;fontSize=13;fontColor=#333333;fontStyle=4;fillColor=none;strokeOpacity=100;fillOpacity=100;" parent="PvF9w1s-Sq6uoAmOtv15-70" vertex="1">
          <mxGeometry y="30" width="210" height="24" as="geometry" />
        </mxCell>
        <mxCell id="PvF9w1s-Sq6uoAmOtv15-72" value="Название школы" style="part=1;resizeHeight=0;strokeColor=none;align=left;verticalAlign=top;spacingLeft=4;spacingRight=4;overflow=hidden;rotatable=0;points=[[0,0.5],[1,0.5]];portConstraint=eastwest;html=1;whiteSpace=wrap;#ffffffwhiteSpace=wrap;fontSize=13;fontColor=#333333;fillColor=none;strokeOpacity=100;fillOpacity=100;" parent="PvF9w1s-Sq6uoAmOtv15-70" vertex="1">
          <mxGeometry y="54" width="210" height="24" as="geometry" />
        </mxCell>
        <mxCell id="PvF9w1s-Sq6uoAmOtv15-73" value="Дата зачисления" style="part=1;resizeHeight=0;strokeColor=none;align=left;verticalAlign=top;spacingLeft=4;spacingRight=4;overflow=hidden;rotatable=0;points=[[0,0.5],[1,0.5]];portConstraint=eastwest;html=1;whiteSpace=wrap;#ffffffwhiteSpace=wrap;fontSize=13;fontColor=#333333;fillColor=none;strokeOpacity=100;fillOpacity=100;" parent="PvF9w1s-Sq6uoAmOtv15-70" vertex="1">
          <mxGeometry y="78" width="210" height="24" as="geometry" />
        </mxCell>
        <mxCell id="PvF9w1s-Sq6uoAmOtv15-74" value="" style="html=1;jettySize=18;whiteSpace=wrap;fontSize=13;strokeColor=#3a414a;strokeOpacity=100;strokeWidth=0.8;rounded=1;arcSize=12;edgeStyle=orthogonalEdgeStyle;startArrow=ERone;startSize=16;endArrow=ERzeroToOne;endSize=10;exitX=1.002;exitY=0.333;exitPerimeter=0;entryX=-0.002;entryY=0.412;entryPerimeter=0;lucidId=dPWOS1pg~EiC;" parent="1" source="PvF9w1s-Sq6uoAmOtv15-1" target="PvF9w1s-Sq6uoAmOtv15-70" edge="1">
          <mxGeometry width="100" height="100" relative="1" as="geometry">
            <Array as="points" />
          </mxGeometry>
        </mxCell>
        <mxCell id="PvF9w1s-Sq6uoAmOtv15-75" value="Категория издания" style="html=1;overflow=block;blockSpacing=1;swimlane;childLayout=stackLayout;horizontal=1;horizontalStack=0;resizeParent=1;resizeParentMax=0;resizeLast=0;collapsible=0;fontStyle=0;marginBottom=0;swimlaneFillColor=#ffffff;startSize=30;whiteSpace=wrap;fontSize=13;fontColor=#ffffff;align=center;spacing=0;strokeColor=#005700;strokeOpacity=100;fillOpacity=100;rounded=1;absoluteArcSize=1;arcSize=7.5;strokeWidth=0.8;fillColor=#008a00;" parent="1" vertex="1">
          <mxGeometry x="-2084" y="644" width="143" height="78" as="geometry" />
        </mxCell>
        <mxCell id="PvF9w1s-Sq6uoAmOtv15-76" value="ID категории издания" style="part=1;resizeHeight=0;strokeColor=none;align=left;verticalAlign=top;spacingLeft=4;spacingRight=4;overflow=hidden;rotatable=0;points=[[0,0.5],[1,0.5]];portConstraint=eastwest;html=1;whiteSpace=wrap;#ffffffwhiteSpace=wrap;fontSize=13;fontColor=#333333;fontStyle=4;fillColor=none;strokeOpacity=100;fillOpacity=100;" parent="PvF9w1s-Sq6uoAmOtv15-75" vertex="1">
          <mxGeometry y="30" width="143" height="24" as="geometry" />
        </mxCell>
        <mxCell id="PvF9w1s-Sq6uoAmOtv15-77" value="Название" style="part=1;resizeHeight=0;strokeColor=none;align=left;verticalAlign=top;spacingLeft=4;spacingRight=4;overflow=hidden;rotatable=0;points=[[0,0.5],[1,0.5]];portConstraint=eastwest;html=1;whiteSpace=wrap;#ffffffwhiteSpace=wrap;fontSize=13;fontColor=#333333;fillColor=none;strokeOpacity=100;fillOpacity=100;" parent="PvF9w1s-Sq6uoAmOtv15-75" vertex="1">
          <mxGeometry y="54" width="143" height="24" as="geometry" />
        </mxCell>
        <mxCell id="PvF9w1s-Sq6uoAmOtv15-78" value="" style="html=1;jettySize=18;whiteSpace=wrap;fontSize=13;strokeColor=#3a414a;strokeOpacity=100;strokeWidth=0.8;rounded=1;arcSize=12;edgeStyle=orthogonalEdgeStyle;startArrow=ERone;startSize=16;endArrow=ERmany;endSize=10;exitX=1;exitY=0.5;entryX=1;entryY=0.5;lucidId=uVWO0.SD1XmD;entryDx=0;entryDy=0;exitDx=0;exitDy=0;" parent="1" source="PvF9w1s-Sq6uoAmOtv15-76" target="PvF9w1s-Sq6uoAmOtv15-45" edge="1">
          <mxGeometry width="100" height="100" relative="1" as="geometry">
            <Array as="points">
              <mxPoint x="-1912" y="686" />
              <mxPoint x="-1912" y="488" />
            </Array>
          </mxGeometry>
        </mxCell>
        <mxCell id="PvF9w1s-Sq6uoAmOtv15-79" value="Учебник" style="html=1;overflow=block;blockSpacing=1;swimlane;childLayout=stackLayout;horizontal=1;horizontalStack=0;resizeParent=1;resizeParentMax=0;resizeLast=0;collapsible=0;fontStyle=0;marginBottom=0;swimlaneFillColor=#ffffff;startSize=30;whiteSpace=wrap;fontSize=13;fontColor=#ffffff;align=center;spacing=0;strokeColor=#005700;strokeOpacity=100;fillOpacity=100;rounded=1;absoluteArcSize=1;arcSize=7.5;strokeWidth=0.8;fillColor=#008a00;" parent="1" vertex="1">
          <mxGeometry x="-2557" y="687" width="150" height="78" as="geometry" />
        </mxCell>
        <mxCell id="PvF9w1s-Sq6uoAmOtv15-80" value="&lt;font style=&quot;font-size: 13px;&quot;&gt;ISBN&lt;/font&gt;" style="part=1;resizeHeight=0;strokeColor=none;align=left;verticalAlign=top;spacingLeft=4;spacingRight=4;overflow=hidden;rotatable=0;points=[[0,0.5],[1,0.5]];portConstraint=eastwest;html=1;whiteSpace=wrap;#ffffffwhiteSpace=wrap;fontSize=14;fontColor=#202122;fontStyle=4;fillColor=none;strokeOpacity=100;fillOpacity=100;" parent="PvF9w1s-Sq6uoAmOtv15-79" vertex="1">
          <mxGeometry y="30" width="150" height="24" as="geometry" />
        </mxCell>
        <mxCell id="PvF9w1s-Sq6uoAmOtv15-81" value="Дисциплина" style="part=1;resizeHeight=0;strokeColor=none;align=left;verticalAlign=top;spacingLeft=4;spacingRight=4;overflow=hidden;rotatable=0;points=[[0,0.5],[1,0.5]];portConstraint=eastwest;html=1;whiteSpace=wrap;#ffffffwhiteSpace=wrap;fontSize=13;fontColor=#333333;fillColor=none;strokeOpacity=100;fillOpacity=100;" parent="PvF9w1s-Sq6uoAmOtv15-79" vertex="1">
          <mxGeometry y="54" width="150" height="24" as="geometry" />
        </mxCell>
        <mxCell id="PvF9w1s-Sq6uoAmOtv15-84" value="Книга" style="html=1;overflow=block;blockSpacing=1;swimlane;childLayout=stackLayout;horizontal=1;horizontalStack=0;resizeParent=1;resizeParentMax=0;resizeLast=0;collapsible=0;fontStyle=0;marginBottom=0;swimlaneFillColor=#ffffff;startSize=30;whiteSpace=wrap;fontSize=13;fontColor=#ffffff;align=center;spacing=0;strokeColor=#005700;strokeOpacity=100;fillOpacity=100;rounded=1;absoluteArcSize=1;arcSize=7.5;strokeWidth=0.8;fillColor=#008a00;" parent="1" vertex="1">
          <mxGeometry x="-2557" y="802" width="150" height="78" as="geometry" />
        </mxCell>
        <mxCell id="PvF9w1s-Sq6uoAmOtv15-85" value="&lt;font style=&quot;font-size: 13px;&quot;&gt;ISBN&lt;/font&gt;" style="part=1;resizeHeight=0;strokeColor=none;align=left;verticalAlign=top;spacingLeft=4;spacingRight=4;overflow=hidden;rotatable=0;points=[[0,0.5],[1,0.5]];portConstraint=eastwest;html=1;whiteSpace=wrap;#ffffffwhiteSpace=wrap;fontSize=14;fontColor=#202122;fontStyle=4;fillColor=none;strokeOpacity=100;fillOpacity=100;" parent="PvF9w1s-Sq6uoAmOtv15-84" vertex="1">
          <mxGeometry y="30" width="150" height="24" as="geometry" />
        </mxCell>
        <mxCell id="pvNLKoHXQlOhcsUP0_Xg-115" value="Жанр" style="part=1;resizeHeight=0;strokeColor=none;align=left;verticalAlign=top;spacingLeft=4;spacingRight=4;overflow=hidden;rotatable=0;points=[[0,0.5],[1,0.5]];portConstraint=eastwest;html=1;whiteSpace=wrap;#ffffffwhiteSpace=wrap;fontSize=13;fontColor=#333333;fillColor=none;strokeOpacity=100;fillOpacity=100;" parent="PvF9w1s-Sq6uoAmOtv15-84" vertex="1">
          <mxGeometry y="54" width="150" height="24" as="geometry" />
        </mxCell>
        <mxCell id="PvF9w1s-Sq6uoAmOtv15-93" value="Диссертация" style="html=1;overflow=block;blockSpacing=1;swimlane;childLayout=stackLayout;horizontal=1;horizontalStack=0;resizeParent=1;resizeParentMax=0;resizeLast=0;collapsible=0;fontStyle=0;marginBottom=0;swimlaneFillColor=#ffffff;startSize=30;whiteSpace=wrap;fontSize=13;fontColor=#ffffff;align=center;spacing=0;strokeColor=#005700;strokeOpacity=100;fillOpacity=100;rounded=1;absoluteArcSize=1;arcSize=7.5;strokeWidth=0.8;fillColor=#008a00;" parent="1" vertex="1">
          <mxGeometry x="-2602" y="450" width="195" height="78" as="geometry" />
        </mxCell>
        <mxCell id="PvF9w1s-Sq6uoAmOtv15-94" value="&lt;u&gt;Регистрационный номер ВАК&lt;/u&gt;" style="part=1;resizeHeight=0;strokeColor=none;align=left;verticalAlign=top;spacingLeft=4;spacingRight=4;overflow=hidden;rotatable=0;points=[[0,0.5],[1,0.5]];portConstraint=eastwest;html=1;whiteSpace=wrap;#ffffffwhiteSpace=wrap;fontSize=13;fillColor=none;strokeOpacity=100;fillOpacity=100;" parent="PvF9w1s-Sq6uoAmOtv15-93" vertex="1">
          <mxGeometry y="30" width="195" height="24" as="geometry" />
        </mxCell>
        <mxCell id="PvF9w1s-Sq6uoAmOtv15-95" value="Шифр специальности" style="part=1;resizeHeight=0;strokeColor=none;align=left;verticalAlign=top;spacingLeft=4;spacingRight=4;overflow=hidden;rotatable=0;points=[[0,0.5],[1,0.5]];portConstraint=eastwest;html=1;whiteSpace=wrap;#ffffffwhiteSpace=wrap;fontSize=13;fontColor=#333333;fillColor=none;strokeOpacity=100;fillOpacity=100;" parent="PvF9w1s-Sq6uoAmOtv15-93" vertex="1">
          <mxGeometry y="54" width="195" height="24" as="geometry" />
        </mxCell>
        <mxCell id="PvF9w1s-Sq6uoAmOtv15-99" value="Журнал" style="html=1;overflow=block;blockSpacing=1;swimlane;childLayout=stackLayout;horizontal=1;horizontalStack=0;resizeParent=1;resizeParentMax=0;resizeLast=0;collapsible=0;fontStyle=0;marginBottom=0;swimlaneFillColor=#ffffff;startSize=30;whiteSpace=wrap;fontSize=13;fontColor=#ffffff;align=center;spacing=0;strokeColor=#005700;strokeOpacity=100;fillOpacity=100;rounded=1;absoluteArcSize=1;arcSize=7.5;strokeWidth=0.8;fillColor=#008a00;" parent="1" vertex="1">
          <mxGeometry x="-2557" y="566" width="150" height="78" as="geometry" />
        </mxCell>
        <mxCell id="PvF9w1s-Sq6uoAmOtv15-100" value="&lt;font style=&quot;font-size: 13px;&quot;&gt;ISSN&lt;/font&gt;" style="part=1;resizeHeight=0;strokeColor=none;align=left;verticalAlign=top;spacingLeft=4;spacingRight=4;overflow=hidden;rotatable=0;points=[[0,0.5],[1,0.5]];portConstraint=eastwest;html=1;whiteSpace=wrap;#ffffffwhiteSpace=wrap;fontSize=14;fontColor=#202122;fontStyle=4;fillColor=none;strokeOpacity=100;fillOpacity=100;" parent="PvF9w1s-Sq6uoAmOtv15-99" vertex="1">
          <mxGeometry y="30" width="150" height="24" as="geometry" />
        </mxCell>
        <mxCell id="PvF9w1s-Sq6uoAmOtv15-101" value="Жанр" style="part=1;resizeHeight=0;strokeColor=none;align=left;verticalAlign=top;spacingLeft=4;spacingRight=4;overflow=hidden;rotatable=0;points=[[0,0.5],[1,0.5]];portConstraint=eastwest;html=1;whiteSpace=wrap;#ffffffwhiteSpace=wrap;fontSize=13;fontColor=#333333;fillColor=none;strokeOpacity=100;fillOpacity=100;" parent="PvF9w1s-Sq6uoAmOtv15-99" vertex="1">
          <mxGeometry y="54" width="150" height="24" as="geometry" />
        </mxCell>
        <mxCell id="PvF9w1s-Sq6uoAmOtv15-104" value="Списание издания" style="html=1;overflow=block;blockSpacing=1;swimlane;childLayout=stackLayout;horizontal=1;horizontalStack=0;resizeParent=1;resizeParentMax=0;resizeLast=0;collapsible=0;fontStyle=0;marginBottom=0;swimlaneFillColor=#ffffff;startSize=30;whiteSpace=wrap;fontSize=13;fontColor=#ffffff;align=center;spacing=0;strokeColor=#005700;strokeOpacity=100;fillOpacity=100;rounded=1;absoluteArcSize=1;arcSize=7.5;strokeWidth=0.8;fillColor=#008a00;" parent="1" vertex="1">
          <mxGeometry x="-2142" y="217" width="167" height="150" as="geometry" />
        </mxCell>
        <mxCell id="pvNLKoHXQlOhcsUP0_Xg-68" value="ID списания" style="part=1;resizeHeight=0;strokeColor=none;align=left;verticalAlign=top;spacingLeft=4;spacingRight=4;overflow=hidden;rotatable=0;points=[[0,0.5],[1,0.5]];portConstraint=eastwest;html=1;whiteSpace=wrap;#ffffffwhiteSpace=wrap;fontSize=13;fontColor=#333333;fontStyle=4;fillColor=none;strokeOpacity=100;fillOpacity=100;" parent="PvF9w1s-Sq6uoAmOtv15-104" vertex="1">
          <mxGeometry y="30" width="167" height="24" as="geometry" />
        </mxCell>
        <mxCell id="pvNLKoHXQlOhcsUP0_Xg-72" value="ID библиотеки" style="part=1;resizeHeight=0;strokeColor=none;align=left;verticalAlign=top;spacingLeft=4;spacingRight=4;overflow=hidden;rotatable=0;points=[[0,0.5],[1,0.5]];portConstraint=eastwest;html=1;whiteSpace=wrap;#ffffffwhiteSpace=wrap;fontSize=13;fontColor=#333333;fontStyle=0;fillColor=none;strokeOpacity=100;fillOpacity=100;" parent="PvF9w1s-Sq6uoAmOtv15-104" vertex="1">
          <mxGeometry y="54" width="167" height="24" as="geometry" />
        </mxCell>
        <mxCell id="PvF9w1s-Sq6uoAmOtv15-105" value="Номенклатурный номер" style="part=1;resizeHeight=0;strokeColor=none;align=left;verticalAlign=top;spacingLeft=4;spacingRight=4;overflow=hidden;rotatable=0;points=[[0,0.5],[1,0.5]];portConstraint=eastwest;html=1;whiteSpace=wrap;#ffffffwhiteSpace=wrap;fontSize=13;fontColor=#333333;fontStyle=0;fillColor=none;strokeOpacity=100;fillOpacity=100;" parent="PvF9w1s-Sq6uoAmOtv15-104" vertex="1">
          <mxGeometry y="78" width="167" height="24" as="geometry" />
        </mxCell>
        <mxCell id="PvF9w1s-Sq6uoAmOtv15-106" value="Количество" style="part=1;resizeHeight=0;strokeColor=none;align=left;verticalAlign=top;spacingLeft=4;spacingRight=4;overflow=hidden;rotatable=0;points=[[0,0.5],[1,0.5]];portConstraint=eastwest;html=1;whiteSpace=wrap;#ffffffwhiteSpace=wrap;fontSize=13;fontColor=#333333;fillColor=none;strokeOpacity=100;fillOpacity=100;" parent="PvF9w1s-Sq6uoAmOtv15-104" vertex="1">
          <mxGeometry y="102" width="167" height="24" as="geometry" />
        </mxCell>
        <mxCell id="pvNLKoHXQlOhcsUP0_Xg-10" value="Дата списания" style="part=1;resizeHeight=0;strokeColor=none;align=left;verticalAlign=top;spacingLeft=4;spacingRight=4;overflow=hidden;rotatable=0;points=[[0,0.5],[1,0.5]];portConstraint=eastwest;html=1;whiteSpace=wrap;#ffffffwhiteSpace=wrap;fontSize=13;fontColor=#333333;fillColor=none;strokeOpacity=100;fillOpacity=100;" parent="PvF9w1s-Sq6uoAmOtv15-104" vertex="1">
          <mxGeometry y="126" width="167" height="24" as="geometry" />
        </mxCell>
        <mxCell id="PvF9w1s-Sq6uoAmOtv15-112" value="Связь библиотекаря отдела обслуживания с читальным залом&lt;span style=&quot;margin: 0px; padding: 0px; user-select: text; -webkit-user-drag: none; -webkit-tap-highlight-color: transparent; color: rgb(0, 0, 0); text-align: left; font-size: 11pt; line-height: 17.2667px; font-family: &amp;quot;Times New Roman&amp;quot;, &amp;quot;Times New Roman_EmbeddedFont&amp;quot;, &amp;quot;Times New Roman_MSFontService&amp;quot;, serif;&quot; data-ccp-props=&quot;{&amp;quot;201341983&amp;quot;:0,&amp;quot;335559740&amp;quot;:259}&quot; class=&quot;EOP SCXW180673701 BCX8&quot;&gt;&amp;nbsp;&lt;/span&gt;" style="html=1;overflow=block;blockSpacing=1;swimlane;childLayout=stackLayout;horizontal=1;horizontalStack=0;resizeParent=1;resizeParentMax=0;resizeLast=0;collapsible=0;fontStyle=0;marginBottom=0;swimlaneFillColor=#ffffff;startSize=48;whiteSpace=wrap;fontSize=13;fontColor=#ffffff;align=center;spacing=0;strokeColor=#005700;strokeOpacity=100;fillOpacity=100;rounded=1;absoluteArcSize=1;arcSize=7.5;strokeWidth=0.8;fillColor=#008a00;" parent="1" vertex="1">
          <mxGeometry x="-1905" y="-16" width="169" height="96" as="geometry" />
        </mxCell>
        <mxCell id="PvF9w1s-Sq6uoAmOtv15-113" value="ID библиотекаря" style="part=1;resizeHeight=0;strokeColor=none;align=left;verticalAlign=top;spacingLeft=4;spacingRight=4;overflow=hidden;rotatable=0;points=[[0,0.5],[1,0.5]];portConstraint=eastwest;html=1;whiteSpace=wrap;#ffffffwhiteSpace=wrap;fontSize=13;fontColor=#333333;fontStyle=4;fillColor=none;strokeOpacity=100;fillOpacity=100;" parent="PvF9w1s-Sq6uoAmOtv15-112" vertex="1">
          <mxGeometry y="48" width="169" height="24" as="geometry" />
        </mxCell>
        <mxCell id="PvF9w1s-Sq6uoAmOtv15-114" value="ID читального зала" style="part=1;resizeHeight=0;strokeColor=none;align=left;verticalAlign=top;spacingLeft=4;spacingRight=4;overflow=hidden;rotatable=0;points=[[0,0.5],[1,0.5]];portConstraint=eastwest;html=1;whiteSpace=wrap;#ffffffwhiteSpace=wrap;fontSize=13;fontColor=#333333;fillColor=none;strokeOpacity=100;fillOpacity=100;" parent="PvF9w1s-Sq6uoAmOtv15-112" vertex="1">
          <mxGeometry y="72" width="169" height="24" as="geometry" />
        </mxCell>
        <mxCell id="PvF9w1s-Sq6uoAmOtv15-115" value="" style="html=1;jettySize=18;whiteSpace=wrap;fontSize=13;strokeColor=#3a414a;strokeOpacity=100;strokeWidth=0.8;rounded=1;arcSize=12;edgeStyle=orthogonalEdgeStyle;startArrow=ERone;startSize=16;endArrow=ERzeroToOne;endSize=10;exitX=1;exitY=0.5;entryX=-0.002;entryY=0.59;entryPerimeter=0;lucidId=N~cPSR-R.lWo;exitDx=0;exitDy=0;" parent="1" source="PvF9w1s-Sq6uoAmOtv15-19" target="PvF9w1s-Sq6uoAmOtv15-112" edge="1">
          <mxGeometry width="100" height="100" relative="1" as="geometry">
            <Array as="points" />
          </mxGeometry>
        </mxCell>
        <mxCell id="PvF9w1s-Sq6uoAmOtv15-116" value="" style="html=1;jettySize=18;whiteSpace=wrap;fontSize=13;strokeColor=#3a414a;strokeOpacity=100;strokeWidth=0.8;rounded=1;arcSize=12;edgeStyle=orthogonalEdgeStyle;startArrow=ERone;startSize=16;endArrow=ERmany;endSize=10;exitX=1;exitY=0.5;entryX=0;entryY=0.5;lucidId=W~cPjog1l94F;entryDx=0;entryDy=0;exitDx=0;exitDy=0;" parent="1" source="PvF9w1s-Sq6uoAmOtv15-19" target="PvF9w1s-Sq6uoAmOtv15-13" edge="1">
          <mxGeometry width="100" height="100" relative="1" as="geometry">
            <Array as="points">
              <mxPoint x="-1940" y="-99" />
              <mxPoint x="-1940" y="-26" />
              <mxPoint x="-1695" y="-26" />
              <mxPoint x="-1695" y="253" />
            </Array>
          </mxGeometry>
        </mxCell>
        <mxCell id="PvF9w1s-Sq6uoAmOtv15-117" value="Читальный зал" style="html=1;overflow=block;blockSpacing=1;swimlane;childLayout=stackLayout;horizontal=1;horizontalStack=0;resizeParent=1;resizeParentMax=0;resizeLast=0;collapsible=0;fontStyle=0;marginBottom=0;swimlaneFillColor=#ffffff;startSize=30;whiteSpace=wrap;fontSize=13;fontColor=#ffffff;align=center;spacing=0;strokeColor=#005700;strokeOpacity=100;fillOpacity=100;rounded=1;absoluteArcSize=1;arcSize=7.5;strokeWidth=0.8;fillColor=#008a00;" parent="1" vertex="1">
          <mxGeometry x="-2145" y="25" width="169" height="126" as="geometry" />
        </mxCell>
        <mxCell id="PvF9w1s-Sq6uoAmOtv15-118" value="ID читального зала" style="part=1;resizeHeight=0;strokeColor=none;align=left;verticalAlign=top;spacingLeft=4;spacingRight=4;overflow=hidden;rotatable=0;points=[[0,0.5],[1,0.5]];portConstraint=eastwest;html=1;whiteSpace=wrap;#ffffffwhiteSpace=wrap;fontSize=13;fontColor=#333333;fontStyle=4;fillColor=none;strokeOpacity=100;fillOpacity=100;" parent="PvF9w1s-Sq6uoAmOtv15-117" vertex="1">
          <mxGeometry y="30" width="169" height="24" as="geometry" />
        </mxCell>
        <mxCell id="PvF9w1s-Sq6uoAmOtv15-119" value="ID отдела обслуживания" style="part=1;resizeHeight=0;strokeColor=none;align=left;verticalAlign=top;spacingLeft=4;spacingRight=4;overflow=hidden;rotatable=0;points=[[0,0.5],[1,0.5]];portConstraint=eastwest;html=1;whiteSpace=wrap;#ffffffwhiteSpace=wrap;fontSize=13;fontColor=#333333;fillColor=none;strokeOpacity=100;fillOpacity=100;" parent="PvF9w1s-Sq6uoAmOtv15-117" vertex="1">
          <mxGeometry y="54" width="169" height="24" as="geometry" />
        </mxCell>
        <mxCell id="PvF9w1s-Sq6uoAmOtv15-120" value="Номер зала" style="part=1;resizeHeight=0;strokeColor=none;align=left;verticalAlign=top;spacingLeft=4;spacingRight=4;overflow=hidden;rotatable=0;points=[[0,0.5],[1,0.5]];portConstraint=eastwest;html=1;whiteSpace=wrap;#ffffffwhiteSpace=wrap;fontSize=13;fontColor=#333333;fillColor=none;strokeOpacity=100;fillOpacity=100;" parent="PvF9w1s-Sq6uoAmOtv15-117" vertex="1">
          <mxGeometry y="78" width="169" height="24" as="geometry" />
        </mxCell>
        <mxCell id="PvF9w1s-Sq6uoAmOtv15-121" value="ID заведующего" style="part=1;resizeHeight=0;strokeColor=none;align=left;verticalAlign=top;spacingLeft=4;spacingRight=4;overflow=hidden;rotatable=0;points=[[0,0.5],[1,0.5]];portConstraint=eastwest;html=1;whiteSpace=wrap;#ffffffwhiteSpace=wrap;fontSize=13;fontColor=#333333;fillColor=none;strokeOpacity=100;fillOpacity=100;" parent="PvF9w1s-Sq6uoAmOtv15-117" vertex="1">
          <mxGeometry y="102" width="169" height="24" as="geometry" />
        </mxCell>
        <mxCell id="PvF9w1s-Sq6uoAmOtv15-122" value="" style="html=1;jettySize=18;whiteSpace=wrap;fontSize=13;strokeColor=#3a414a;strokeOpacity=100;strokeWidth=0.8;rounded=1;arcSize=12;edgeStyle=orthogonalEdgeStyle;startArrow=ERone;startSize=16;endArrow=ERmany;endSize=10;exitX=1.002;exitY=0.333;exitPerimeter=0;entryX=-0.002;entryY=0.863;entryPerimeter=0;lucidId=_edPzx-Wz3zp;" parent="1" source="PvF9w1s-Sq6uoAmOtv15-117" target="PvF9w1s-Sq6uoAmOtv15-112" edge="1">
          <mxGeometry width="100" height="100" relative="1" as="geometry">
            <Array as="points" />
          </mxGeometry>
        </mxCell>
        <mxCell id="PvF9w1s-Sq6uoAmOtv15-123" value="" style="html=1;jettySize=18;whiteSpace=wrap;fontSize=13;strokeColor=#3a414a;strokeOpacity=100;strokeWidth=0.8;rounded=1;arcSize=12;edgeStyle=orthogonalEdgeStyle;startArrow=ERzeroToOne;startSize=10;endArrow=ERone;endSize=16;exitX=-0.002;exitY=0.905;exitPerimeter=0;entryX=0;entryY=0.5;lucidId=1fdP.ufvH2h_;entryDx=0;entryDy=0;" parent="1" source="PvF9w1s-Sq6uoAmOtv15-117" target="PvF9w1s-Sq6uoAmOtv15-19" edge="1">
          <mxGeometry width="100" height="100" relative="1" as="geometry">
            <Array as="points">
              <mxPoint x="-2170" y="139" />
              <mxPoint x="-2170" y="140" />
              <mxPoint x="-2200" y="140" />
              <mxPoint x="-2200" y="-100" />
              <mxPoint x="-2144" y="-100" />
            </Array>
          </mxGeometry>
        </mxCell>
        <mxCell id="PvF9w1s-Sq6uoAmOtv15-124" value="Отдел" style="html=1;overflow=block;blockSpacing=1;swimlane;childLayout=stackLayout;horizontal=1;horizontalStack=0;resizeParent=1;resizeParentMax=0;resizeLast=0;collapsible=0;fontStyle=0;marginBottom=0;swimlaneFillColor=#ffffff;startSize=30;whiteSpace=wrap;fontSize=13;fontColor=#ffffff;align=center;spacing=0;strokeColor=#005700;strokeOpacity=100;fillOpacity=100;rounded=1;absoluteArcSize=1;arcSize=7.5;strokeWidth=0.8;fillColor=#008a00;" parent="1" vertex="1">
          <mxGeometry x="-2430" y="49" width="169" height="126" as="geometry" />
        </mxCell>
        <mxCell id="PvF9w1s-Sq6uoAmOtv15-125" value="ID отдела" style="part=1;resizeHeight=0;strokeColor=none;align=left;verticalAlign=top;spacingLeft=4;spacingRight=4;overflow=hidden;rotatable=0;points=[[0,0.5],[1,0.5]];portConstraint=eastwest;html=1;whiteSpace=wrap;#ffffffwhiteSpace=wrap;fontSize=13;fontColor=#333333;fontStyle=4;fillColor=none;strokeOpacity=100;fillOpacity=100;" parent="PvF9w1s-Sq6uoAmOtv15-124" vertex="1">
          <mxGeometry y="30" width="169" height="24" as="geometry" />
        </mxCell>
        <mxCell id="ndciCASYvxziIdFLJ8Kx-2" value="ID библиотеки" style="part=1;resizeHeight=0;strokeColor=none;align=left;verticalAlign=top;spacingLeft=4;spacingRight=4;overflow=hidden;rotatable=0;points=[[0,0.5],[1,0.5]];portConstraint=eastwest;html=1;whiteSpace=wrap;#ffffffwhiteSpace=wrap;fontSize=13;fontColor=#333333;fillColor=none;strokeOpacity=100;fillOpacity=100;" parent="PvF9w1s-Sq6uoAmOtv15-124" vertex="1">
          <mxGeometry y="54" width="169" height="24" as="geometry" />
        </mxCell>
        <mxCell id="PvF9w1s-Sq6uoAmOtv15-127" value="ID управляющего" style="part=1;resizeHeight=0;strokeColor=none;align=left;verticalAlign=top;spacingLeft=4;spacingRight=4;overflow=hidden;rotatable=0;points=[[0,0.5],[1,0.5]];portConstraint=eastwest;html=1;whiteSpace=wrap;#ffffffwhiteSpace=wrap;fontSize=13;fontColor=#333333;fillColor=none;strokeOpacity=100;fillOpacity=100;" parent="PvF9w1s-Sq6uoAmOtv15-124" vertex="1">
          <mxGeometry y="78" width="169" height="24" as="geometry" />
        </mxCell>
        <mxCell id="PvF9w1s-Sq6uoAmOtv15-128" value="ID категории отдела" style="part=1;resizeHeight=0;strokeColor=none;align=left;verticalAlign=top;spacingLeft=4;spacingRight=4;overflow=hidden;rotatable=0;points=[[0,0.5],[1,0.5]];portConstraint=eastwest;html=1;whiteSpace=wrap;#ffffffwhiteSpace=wrap;fontSize=13;fontColor=#333333;fillColor=none;strokeOpacity=100;fillOpacity=100;" parent="PvF9w1s-Sq6uoAmOtv15-124" vertex="1">
          <mxGeometry y="102" width="169" height="24" as="geometry" />
        </mxCell>
        <mxCell id="PvF9w1s-Sq6uoAmOtv15-129" value="" style="html=1;jettySize=18;whiteSpace=wrap;fontSize=13;strokeColor=#3a414a;strokeOpacity=100;strokeWidth=0.8;rounded=1;arcSize=12;edgeStyle=orthogonalEdgeStyle;startArrow=ERzeroToOne;startSize=10;endArrow=ERone;endSize=16;exitX=1.002;exitY=0.714;exitPerimeter=0;lucidId=dFeP9fYvbNEy;entryX=0;entryY=0.5;entryDx=0;entryDy=0;" parent="1" target="PvF9w1s-Sq6uoAmOtv15-19" edge="1">
          <mxGeometry width="100" height="100" relative="1" as="geometry">
            <Array as="points">
              <mxPoint x="-2200" y="139" />
              <mxPoint x="-2200" y="-100" />
              <mxPoint x="-2144" y="-100" />
            </Array>
            <mxPoint x="-2260.662" y="138.96399999999994" as="sourcePoint" />
            <mxPoint x="-2145" y="-185" as="targetPoint" />
          </mxGeometry>
        </mxCell>
        <mxCell id="PvF9w1s-Sq6uoAmOtv15-131" value="" style="html=1;jettySize=18;whiteSpace=wrap;fontSize=13;strokeColor=#3a414a;strokeOpacity=100;strokeWidth=0.8;rounded=1;arcSize=12;edgeStyle=orthogonalEdgeStyle;startArrow=ERone;startSize=16;endArrow=ERone;endSize=16;exitX=0;exitY=0.5;entryX=1.002;entryY=0.524;entryPerimeter=0;lucidId=IHePXXrYXK6E;exitDx=0;exitDy=0;" parent="1" source="PvF9w1s-Sq6uoAmOtv15-37" target="PvF9w1s-Sq6uoAmOtv15-124" edge="1">
          <mxGeometry width="100" height="100" relative="1" as="geometry">
            <Array as="points">
              <mxPoint x="-2220" y="-278" />
              <mxPoint x="-2220" y="115" />
            </Array>
          </mxGeometry>
        </mxCell>
        <mxCell id="PvF9w1s-Sq6uoAmOtv15-132" value="Категория отдела" style="html=1;overflow=block;blockSpacing=1;swimlane;childLayout=stackLayout;horizontal=1;horizontalStack=0;resizeParent=1;resizeParentMax=0;resizeLast=0;collapsible=0;fontStyle=0;marginBottom=0;swimlaneFillColor=#ffffff;startSize=30;whiteSpace=wrap;fontSize=13;fontColor=#ffffff;align=center;spacing=0;strokeColor=#005700;strokeOpacity=100;fillOpacity=100;rounded=1;absoluteArcSize=1;arcSize=7.5;strokeWidth=0.8;fillColor=#008a00;" parent="1" vertex="1">
          <mxGeometry x="-2610" y="121" width="135" height="78" as="geometry" />
        </mxCell>
        <mxCell id="PvF9w1s-Sq6uoAmOtv15-133" value="ID категории отдела" style="part=1;resizeHeight=0;strokeColor=none;align=left;verticalAlign=top;spacingLeft=4;spacingRight=4;overflow=hidden;rotatable=0;points=[[0,0.5],[1,0.5]];portConstraint=eastwest;html=1;whiteSpace=wrap;#ffffffwhiteSpace=wrap;fontSize=13;fontColor=#333333;fontStyle=4;fillColor=none;strokeOpacity=100;fillOpacity=100;" parent="PvF9w1s-Sq6uoAmOtv15-132" vertex="1">
          <mxGeometry y="30" width="135" height="24" as="geometry" />
        </mxCell>
        <mxCell id="PvF9w1s-Sq6uoAmOtv15-134" value="Название" style="part=1;resizeHeight=0;strokeColor=none;align=left;verticalAlign=top;spacingLeft=4;spacingRight=4;overflow=hidden;rotatable=0;points=[[0,0.5],[1,0.5]];portConstraint=eastwest;html=1;whiteSpace=wrap;#ffffffwhiteSpace=wrap;fontSize=13;fontColor=#333333;fillColor=none;strokeOpacity=100;fillOpacity=100;" parent="PvF9w1s-Sq6uoAmOtv15-132" vertex="1">
          <mxGeometry y="54" width="135" height="24" as="geometry" />
        </mxCell>
        <mxCell id="PvF9w1s-Sq6uoAmOtv15-135" value="" style="html=1;jettySize=18;whiteSpace=wrap;fontSize=13;strokeColor=#3a414a;strokeOpacity=100;strokeWidth=0.8;rounded=1;arcSize=12;edgeStyle=orthogonalEdgeStyle;startArrow=ERone;startSize=16;endArrow=ERone;endSize=16;exitX=1.003;exitY=0.539;exitPerimeter=0;entryX=-0.002;entryY=0.905;entryPerimeter=0;lucidId=V4ePyNtxxohS;" parent="1" source="PvF9w1s-Sq6uoAmOtv15-132" target="PvF9w1s-Sq6uoAmOtv15-124" edge="1">
          <mxGeometry width="100" height="100" relative="1" as="geometry">
            <Array as="points" />
          </mxGeometry>
        </mxCell>
        <mxCell id="PvF9w1s-Sq6uoAmOtv15-136" value="" style="html=1;jettySize=18;whiteSpace=wrap;fontSize=13;strokeColor=#3a414a;strokeOpacity=100;strokeWidth=0.8;rounded=1;arcSize=12;edgeStyle=orthogonalEdgeStyle;startArrow=ERone;startSize=16;endArrow=ERmany;endSize=10;exitX=1.002;exitY=0.333;exitPerimeter=0;entryX=0;entryY=0.5;lucidId=e8ePH3dlgFLr;entryDx=0;entryDy=0;" parent="1" source="PvF9w1s-Sq6uoAmOtv15-124" target="PvF9w1s-Sq6uoAmOtv15-22" edge="1">
          <mxGeometry width="100" height="100" relative="1" as="geometry">
            <Array as="points">
              <mxPoint x="-2240" y="91" />
              <mxPoint x="-2240" y="-51" />
            </Array>
          </mxGeometry>
        </mxCell>
        <mxCell id="PvF9w1s-Sq6uoAmOtv15-137" value="Кандидат на работу" style="html=1;overflow=block;blockSpacing=1;swimlane;childLayout=stackLayout;horizontal=1;horizontalStack=0;resizeParent=1;resizeParentMax=0;resizeLast=0;collapsible=0;fontStyle=0;marginBottom=0;swimlaneFillColor=#ffffff;startSize=30;whiteSpace=wrap;fontSize=13;fontColor=#ffffff;align=center;spacing=0;strokeColor=#005700;strokeOpacity=100;fillOpacity=100;rounded=1;absoluteArcSize=1;arcSize=7.5;strokeWidth=0.8;fillColor=#008a00;" parent="1" vertex="1">
          <mxGeometry x="-2430" y="-89" width="169" height="110" as="geometry" />
        </mxCell>
        <mxCell id="PvF9w1s-Sq6uoAmOtv15-138" value="ID кандидата" style="part=1;resizeHeight=0;strokeColor=none;align=left;verticalAlign=top;spacingLeft=4;spacingRight=4;overflow=hidden;rotatable=0;points=[[0,0.5],[1,0.5]];portConstraint=eastwest;html=1;whiteSpace=wrap;#ffffffwhiteSpace=wrap;fontSize=13;fontColor=#333333;fontStyle=4;fillColor=none;strokeOpacity=100;fillOpacity=100;" parent="PvF9w1s-Sq6uoAmOtv15-137" vertex="1">
          <mxGeometry y="30" width="169" height="24" as="geometry" />
        </mxCell>
        <mxCell id="pvNLKoHXQlOhcsUP0_Xg-3" value="ID Должности" style="part=1;resizeHeight=0;strokeColor=none;align=left;verticalAlign=top;spacingLeft=4;spacingRight=4;overflow=hidden;rotatable=0;points=[[0,0.5],[1,0.5]];portConstraint=eastwest;html=1;whiteSpace=wrap;#ffffffwhiteSpace=wrap;fontSize=13;fontColor=#333333;fillColor=none;strokeOpacity=100;fillOpacity=100;" parent="PvF9w1s-Sq6uoAmOtv15-137" vertex="1">
          <mxGeometry y="54" width="169" height="28" as="geometry" />
        </mxCell>
        <mxCell id="PvF9w1s-Sq6uoAmOtv15-139" value="ID отдела кадров" style="part=1;resizeHeight=0;strokeColor=none;align=left;verticalAlign=top;spacingLeft=4;spacingRight=4;overflow=hidden;rotatable=0;points=[[0,0.5],[1,0.5]];portConstraint=eastwest;html=1;whiteSpace=wrap;#ffffffwhiteSpace=wrap;fontSize=13;fontColor=#333333;fillColor=none;strokeOpacity=100;fillOpacity=100;" parent="PvF9w1s-Sq6uoAmOtv15-137" vertex="1">
          <mxGeometry y="82" width="169" height="28" as="geometry" />
        </mxCell>
        <mxCell id="PvF9w1s-Sq6uoAmOtv15-140" value="" style="html=1;jettySize=18;whiteSpace=wrap;fontSize=13;strokeColor=#3a414a;strokeOpacity=100;strokeWidth=0.8;rounded=1;arcSize=12;edgeStyle=orthogonalEdgeStyle;startArrow=ERone;startSize=16;endArrow=ERmany;endSize=10;exitX=-0.002;exitY=0.333;exitPerimeter=0;lucidId=fgfPFO0IT-sI;entryX=0;entryY=0.5;entryDx=0;entryDy=0;" parent="1" target="PvF9w1s-Sq6uoAmOtv15-139" edge="1">
          <mxGeometry width="100" height="100" relative="1" as="geometry">
            <Array as="points">
              <mxPoint x="-2449" y="95" />
              <mxPoint x="-2449" y="7" />
            </Array>
            <mxPoint x="-2430.0679999999998" y="94.96800000000009" as="sourcePoint" />
            <mxPoint x="-2430" y="-19" as="targetPoint" />
          </mxGeometry>
        </mxCell>
        <mxCell id="PvF9w1s-Sq6uoAmOtv15-141" value="Паспорт" style="html=1;overflow=block;blockSpacing=1;swimlane;childLayout=stackLayout;horizontal=1;horizontalStack=0;resizeParent=1;resizeParentMax=0;resizeLast=0;collapsible=0;fontStyle=0;marginBottom=0;swimlaneFillColor=#ffffff;startSize=30;whiteSpace=wrap;fontSize=13;fontColor=#ffffff;align=center;spacing=0;strokeColor=#005700;strokeOpacity=100;fillOpacity=100;rounded=1;absoluteArcSize=1;arcSize=7.5;strokeWidth=0.8;fillColor=#008a00;" parent="1" vertex="1">
          <mxGeometry x="-1233" y="-293" width="157" height="126" as="geometry" />
        </mxCell>
        <mxCell id="PvF9w1s-Sq6uoAmOtv15-142" value="Серия" style="part=1;resizeHeight=0;strokeColor=none;align=left;verticalAlign=top;spacingLeft=4;spacingRight=4;overflow=hidden;rotatable=0;points=[[0,0.5],[1,0.5]];portConstraint=eastwest;html=1;whiteSpace=wrap;#ffffffwhiteSpace=wrap;fontSize=13;fontColor=#333333;fontStyle=4;fillColor=none;strokeOpacity=100;fillOpacity=100;" parent="PvF9w1s-Sq6uoAmOtv15-141" vertex="1">
          <mxGeometry y="30" width="157" height="24" as="geometry" />
        </mxCell>
        <mxCell id="PvF9w1s-Sq6uoAmOtv15-144" value="&lt;u&gt;Номер&lt;/u&gt;" style="part=1;resizeHeight=0;strokeColor=none;align=left;verticalAlign=top;spacingLeft=4;spacingRight=4;overflow=hidden;rotatable=0;points=[[0,0.5],[1,0.5]];portConstraint=eastwest;html=1;whiteSpace=wrap;#ffffffwhiteSpace=wrap;fontSize=13;fontColor=#333333;fillColor=none;strokeOpacity=100;fillOpacity=100;" parent="PvF9w1s-Sq6uoAmOtv15-141" vertex="1">
          <mxGeometry y="54" width="157" height="24" as="geometry" />
        </mxCell>
        <mxCell id="PvF9w1s-Sq6uoAmOtv15-145" value="ID адреса регистрации" style="part=1;resizeHeight=0;strokeColor=none;align=left;verticalAlign=top;spacingLeft=4;spacingRight=4;overflow=hidden;rotatable=0;points=[[0,0.5],[1,0.5]];portConstraint=eastwest;html=1;whiteSpace=wrap;#ffffffwhiteSpace=wrap;fontSize=13;fontColor=#333333;fillColor=none;strokeOpacity=100;fillOpacity=100;" parent="PvF9w1s-Sq6uoAmOtv15-141" vertex="1">
          <mxGeometry y="78" width="157" height="24" as="geometry" />
        </mxCell>
        <mxCell id="bprBRDbvNe3V_gqeEwXp-12" value="Дата выдачи" style="part=1;resizeHeight=0;strokeColor=none;align=left;verticalAlign=top;spacingLeft=4;spacingRight=4;overflow=hidden;rotatable=0;points=[[0,0.5],[1,0.5]];portConstraint=eastwest;html=1;whiteSpace=wrap;#ffffffwhiteSpace=wrap;fontSize=13;fontColor=#333333;fillColor=none;strokeOpacity=100;fillOpacity=100;" parent="PvF9w1s-Sq6uoAmOtv15-141" vertex="1">
          <mxGeometry y="102" width="157" height="24" as="geometry" />
        </mxCell>
        <mxCell id="PvF9w1s-Sq6uoAmOtv15-146" value="Человек" style="html=1;overflow=block;blockSpacing=1;swimlane;childLayout=stackLayout;horizontal=1;horizontalStack=0;resizeParent=1;resizeParentMax=0;resizeLast=0;collapsible=0;fontStyle=0;marginBottom=0;swimlaneFillColor=#ffffff;startSize=30;whiteSpace=wrap;fontSize=13;fontColor=#ffffff;align=center;spacing=0;strokeColor=#005700;strokeOpacity=100;fillOpacity=100;rounded=1;absoluteArcSize=1;arcSize=7.5;strokeWidth=0.8;fillColor=#008a00;" parent="1" vertex="1">
          <mxGeometry x="-1619" y="-268" width="135" height="150" as="geometry" />
        </mxCell>
        <mxCell id="PvF9w1s-Sq6uoAmOtv15-147" value="ID человека" style="part=1;resizeHeight=0;strokeColor=none;align=left;verticalAlign=top;spacingLeft=4;spacingRight=4;overflow=hidden;rotatable=0;points=[[0,0.5],[1,0.5]];portConstraint=eastwest;html=1;whiteSpace=wrap;#ffffffwhiteSpace=wrap;fontSize=13;fontColor=#333333;fontStyle=4;fillColor=none;strokeOpacity=100;fillOpacity=100;" parent="PvF9w1s-Sq6uoAmOtv15-146" vertex="1">
          <mxGeometry y="30" width="135" height="24" as="geometry" />
        </mxCell>
        <mxCell id="PvF9w1s-Sq6uoAmOtv15-148" value="Фамилия" style="part=1;resizeHeight=0;strokeColor=none;align=left;verticalAlign=top;spacingLeft=4;spacingRight=4;overflow=hidden;rotatable=0;points=[[0,0.5],[1,0.5]];portConstraint=eastwest;html=1;whiteSpace=wrap;#ffffffwhiteSpace=wrap;fontSize=13;fontColor=#333333;fillColor=none;strokeOpacity=100;fillOpacity=100;" parent="PvF9w1s-Sq6uoAmOtv15-146" vertex="1">
          <mxGeometry y="54" width="135" height="24" as="geometry" />
        </mxCell>
        <mxCell id="PvF9w1s-Sq6uoAmOtv15-149" value="Имя" style="part=1;resizeHeight=0;strokeColor=none;align=left;verticalAlign=top;spacingLeft=4;spacingRight=4;overflow=hidden;rotatable=0;points=[[0,0.5],[1,0.5]];portConstraint=eastwest;html=1;whiteSpace=wrap;#ffffffwhiteSpace=wrap;fontSize=13;fontColor=#333333;fillColor=none;strokeOpacity=100;fillOpacity=100;" parent="PvF9w1s-Sq6uoAmOtv15-146" vertex="1">
          <mxGeometry y="78" width="135" height="24" as="geometry" />
        </mxCell>
        <mxCell id="PvF9w1s-Sq6uoAmOtv15-150" value="Отчество" style="part=1;resizeHeight=0;strokeColor=none;align=left;verticalAlign=top;spacingLeft=4;spacingRight=4;overflow=hidden;rotatable=0;points=[[0,0.5],[1,0.5]];portConstraint=eastwest;html=1;whiteSpace=wrap;#ffffffwhiteSpace=wrap;fontSize=13;fontColor=#333333;fillColor=none;strokeOpacity=100;fillOpacity=100;" parent="PvF9w1s-Sq6uoAmOtv15-146" vertex="1">
          <mxGeometry y="102" width="135" height="24" as="geometry" />
        </mxCell>
        <mxCell id="PvF9w1s-Sq6uoAmOtv15-151" value="Пол" style="part=1;resizeHeight=0;strokeColor=none;align=left;verticalAlign=top;spacingLeft=4;spacingRight=4;overflow=hidden;rotatable=0;points=[[0,0.5],[1,0.5]];portConstraint=eastwest;html=1;whiteSpace=wrap;#ffffffwhiteSpace=wrap;fontSize=13;fontColor=#333333;fillColor=none;strokeOpacity=100;fillOpacity=100;" parent="PvF9w1s-Sq6uoAmOtv15-146" vertex="1">
          <mxGeometry y="126" width="135" height="24" as="geometry" />
        </mxCell>
        <mxCell id="PvF9w1s-Sq6uoAmOtv15-152" value="Дата рождения" style="part=1;resizeHeight=0;strokeColor=none;align=left;verticalAlign=top;spacingLeft=4;spacingRight=4;overflow=hidden;rotatable=0;points=[[0,0.5],[1,0.5]];portConstraint=eastwest;html=1;whiteSpace=wrap;#ffffffwhiteSpace=wrap;fontSize=13;fontColor=#333333;fillColor=none;strokeOpacity=100;fillOpacity=100;" parent="PvF9w1s-Sq6uoAmOtv15-146" vertex="1">
          <mxGeometry y="150" width="135" as="geometry" />
        </mxCell>
        <mxCell id="PvF9w1s-Sq6uoAmOtv15-153" value="Телефон" style="part=1;resizeHeight=0;strokeColor=none;align=left;verticalAlign=top;spacingLeft=4;spacingRight=4;overflow=hidden;rotatable=0;points=[[0,0.5],[1,0.5]];portConstraint=eastwest;html=1;whiteSpace=wrap;#ffffffwhiteSpace=wrap;fontSize=13;fontColor=#333333;fillColor=none;strokeOpacity=100;fillOpacity=100;" parent="PvF9w1s-Sq6uoAmOtv15-146" vertex="1">
          <mxGeometry y="150" width="135" as="geometry" />
        </mxCell>
        <mxCell id="pvNLKoHXQlOhcsUP0_Xg-7" value="" style="html=1;jettySize=18;whiteSpace=wrap;fontSize=13;strokeColor=#3a414a;strokeOpacity=100;strokeWidth=0.8;rounded=1;arcSize=12;edgeStyle=orthogonalEdgeStyle;startArrow=ERone;startSize=16;endArrow=ERone;endSize=16;lucidId=V4ePyNtxxohS;exitX=1;exitY=0.5;exitDx=0;exitDy=0;entryX=0;entryY=0.5;entryDx=0;entryDy=0;" parent="1" source="PvF9w1s-Sq6uoAmOtv15-19" target="PvF9w1s-Sq6uoAmOtv15-147" edge="1">
          <mxGeometry width="100" height="100" relative="1" as="geometry">
            <Array as="points">
              <mxPoint x="-1941" y="-99" />
              <mxPoint x="-1941" y="-226" />
            </Array>
            <mxPoint x="-1925" y="-192" as="sourcePoint" />
            <mxPoint x="-1648" y="-232" as="targetPoint" />
          </mxGeometry>
        </mxCell>
        <mxCell id="pvNLKoHXQlOhcsUP0_Xg-8" value="" style="html=1;jettySize=18;whiteSpace=wrap;fontSize=13;strokeColor=#3a414a;strokeOpacity=100;strokeWidth=0.8;rounded=1;arcSize=12;edgeStyle=orthogonalEdgeStyle;startArrow=ERone;startSize=16;endArrow=ERone;endSize=16;lucidId=EAjPuZvVz1k-;entryX=0;entryY=0.5;entryDx=0;entryDy=0;exitX=0;exitY=0.5;exitDx=0;exitDy=0;" parent="1" source="PvF9w1s-Sq6uoAmOtv15-147" target="PvF9w1s-Sq6uoAmOtv15-138" edge="1">
          <mxGeometry width="100" height="100" relative="1" as="geometry">
            <Array as="points">
              <mxPoint x="-2448" y="-226" />
              <mxPoint x="-2448" y="-47" />
            </Array>
            <mxPoint x="-2511" y="-299" as="sourcePoint" />
            <mxPoint x="-2488" y="-131" as="targetPoint" />
          </mxGeometry>
        </mxCell>
        <mxCell id="pvNLKoHXQlOhcsUP0_Xg-9" value="" style="html=1;jettySize=18;whiteSpace=wrap;fontSize=13;strokeColor=#3a414a;strokeOpacity=100;strokeWidth=0.8;rounded=1;arcSize=12;edgeStyle=orthogonalEdgeStyle;startArrow=ERone;startSize=16;endArrow=ERone;endSize=16;entryX=0;entryY=0.5;lucidId=EAjPuZvVz1k-;entryDx=0;entryDy=0;exitX=0;exitY=0.5;exitDx=0;exitDy=0;" parent="1" source="PvF9w1s-Sq6uoAmOtv15-2" target="PvF9w1s-Sq6uoAmOtv15-147" edge="1">
          <mxGeometry width="100" height="100" relative="1" as="geometry">
            <Array as="points">
              <mxPoint x="-1362" y="229" />
              <mxPoint x="-1362" y="-26" />
              <mxPoint x="-1638" y="-26" />
              <mxPoint x="-1638" y="-226" />
            </Array>
            <mxPoint x="-1415" y="50" as="sourcePoint" />
            <mxPoint x="-1465" y="-195" as="targetPoint" />
          </mxGeometry>
        </mxCell>
        <mxCell id="pvNLKoHXQlOhcsUP0_Xg-12" value="Связь номенклатурного номера с ISBN" style="html=1;overflow=block;blockSpacing=1;swimlane;childLayout=stackLayout;horizontal=1;horizontalStack=0;resizeParent=1;resizeParentMax=0;resizeLast=0;collapsible=0;fontStyle=0;marginBottom=0;swimlaneFillColor=#ffffff;startSize=30;whiteSpace=wrap;fontSize=13;fontColor=#ffffff;align=center;spacing=0;strokeColor=#005700;strokeOpacity=100;fillOpacity=100;rounded=1;absoluteArcSize=1;arcSize=7.5;strokeWidth=0.8;fillColor=#008a00;" parent="1" vertex="1">
          <mxGeometry x="-2357" y="663" width="164" height="78" as="geometry" />
        </mxCell>
        <mxCell id="pvNLKoHXQlOhcsUP0_Xg-13" value="&lt;span style=&quot;font-size: 13px;&quot;&gt;Номенклатурный номер&lt;/span&gt;" style="part=1;resizeHeight=0;strokeColor=none;align=left;verticalAlign=top;spacingLeft=4;spacingRight=4;overflow=hidden;rotatable=0;points=[[0,0.5],[1,0.5]];portConstraint=eastwest;html=1;whiteSpace=wrap;#ffffffwhiteSpace=wrap;fontSize=14;fontColor=#202122;fontStyle=4;fillColor=none;strokeOpacity=100;fillOpacity=100;" parent="pvNLKoHXQlOhcsUP0_Xg-12" vertex="1">
          <mxGeometry y="30" width="164" height="24" as="geometry" />
        </mxCell>
        <mxCell id="pvNLKoHXQlOhcsUP0_Xg-14" value="ISBN" style="part=1;resizeHeight=0;strokeColor=none;align=left;verticalAlign=top;spacingLeft=4;spacingRight=4;overflow=hidden;rotatable=0;points=[[0,0.5],[1,0.5]];portConstraint=eastwest;html=1;whiteSpace=wrap;#ffffffwhiteSpace=wrap;fontSize=13;fontColor=#333333;fillColor=none;strokeOpacity=100;fillOpacity=100;" parent="pvNLKoHXQlOhcsUP0_Xg-12" vertex="1">
          <mxGeometry y="54" width="164" height="24" as="geometry" />
        </mxCell>
        <mxCell id="pvNLKoHXQlOhcsUP0_Xg-16" value="Связь номенклатурного номера с регистрационным номером ВАК" style="html=1;overflow=block;blockSpacing=1;swimlane;childLayout=stackLayout;horizontal=1;horizontalStack=0;resizeParent=1;resizeParentMax=0;resizeLast=0;collapsible=0;fontStyle=0;marginBottom=0;swimlaneFillColor=#ffffff;startSize=63;whiteSpace=wrap;fontSize=13;fontColor=#ffffff;align=center;spacing=0;strokeColor=#005700;strokeOpacity=100;fillOpacity=100;rounded=1;absoluteArcSize=1;arcSize=7.5;strokeWidth=0.8;fillColor=#008a00;" parent="1" vertex="1">
          <mxGeometry x="-2357" y="387" width="164" height="123" as="geometry" />
        </mxCell>
        <mxCell id="pvNLKoHXQlOhcsUP0_Xg-17" value="&lt;span style=&quot;font-size: 13px;&quot;&gt;Номенклатурный номер&lt;/span&gt;" style="part=1;resizeHeight=0;strokeColor=none;align=left;verticalAlign=top;spacingLeft=4;spacingRight=4;overflow=hidden;rotatable=0;points=[[0,0.5],[1,0.5]];portConstraint=eastwest;html=1;whiteSpace=wrap;#ffffffwhiteSpace=wrap;fontSize=14;fontColor=#202122;fontStyle=4;fillColor=none;strokeOpacity=100;fillOpacity=100;" parent="pvNLKoHXQlOhcsUP0_Xg-16" vertex="1">
          <mxGeometry y="63" width="164" height="24" as="geometry" />
        </mxCell>
        <mxCell id="pvNLKoHXQlOhcsUP0_Xg-18" value="Регистрационный номер ВАК" style="part=1;resizeHeight=0;strokeColor=none;align=left;verticalAlign=top;spacingLeft=4;spacingRight=4;overflow=hidden;rotatable=0;points=[[0,0.5],[1,0.5]];portConstraint=eastwest;html=1;whiteSpace=wrap;#ffffffwhiteSpace=wrap;fontSize=13;fontColor=#333333;fillColor=none;strokeOpacity=100;fillOpacity=100;" parent="pvNLKoHXQlOhcsUP0_Xg-16" vertex="1">
          <mxGeometry y="87" width="164" height="36" as="geometry" />
        </mxCell>
        <mxCell id="pvNLKoHXQlOhcsUP0_Xg-19" value="Связь номенклатурного номера с ISSN и номером журнала" style="html=1;overflow=block;blockSpacing=1;swimlane;childLayout=stackLayout;horizontal=1;horizontalStack=0;resizeParent=1;resizeParentMax=0;resizeLast=0;collapsible=0;fontStyle=0;marginBottom=0;swimlaneFillColor=#ffffff;startSize=47;whiteSpace=wrap;fontSize=13;fontColor=#ffffff;align=center;spacing=0;strokeColor=#005700;strokeOpacity=100;fillOpacity=100;rounded=1;absoluteArcSize=1;arcSize=7.5;strokeWidth=0.8;fillColor=#008a00;" parent="1" vertex="1">
          <mxGeometry x="-2357" y="525" width="164" height="119" as="geometry" />
        </mxCell>
        <mxCell id="pvNLKoHXQlOhcsUP0_Xg-20" value="&lt;span style=&quot;font-size: 13px;&quot;&gt;Номенклатурный номер&lt;/span&gt;" style="part=1;resizeHeight=0;strokeColor=none;align=left;verticalAlign=top;spacingLeft=4;spacingRight=4;overflow=hidden;rotatable=0;points=[[0,0.5],[1,0.5]];portConstraint=eastwest;html=1;whiteSpace=wrap;#ffffffwhiteSpace=wrap;fontSize=14;fontColor=#202122;fontStyle=4;fillColor=none;strokeOpacity=100;fillOpacity=100;" parent="pvNLKoHXQlOhcsUP0_Xg-19" vertex="1">
          <mxGeometry y="47" width="164" height="24" as="geometry" />
        </mxCell>
        <mxCell id="pvNLKoHXQlOhcsUP0_Xg-21" value="ISSN" style="part=1;resizeHeight=0;strokeColor=none;align=left;verticalAlign=top;spacingLeft=4;spacingRight=4;overflow=hidden;rotatable=0;points=[[0,0.5],[1,0.5]];portConstraint=eastwest;html=1;whiteSpace=wrap;#ffffffwhiteSpace=wrap;fontSize=13;fontColor=#333333;fillColor=none;strokeOpacity=100;fillOpacity=100;" parent="pvNLKoHXQlOhcsUP0_Xg-19" vertex="1">
          <mxGeometry y="71" width="164" height="24" as="geometry" />
        </mxCell>
        <mxCell id="pvNLKoHXQlOhcsUP0_Xg-99" value="Номер журнала" style="part=1;resizeHeight=0;strokeColor=none;align=left;verticalAlign=top;spacingLeft=4;spacingRight=4;overflow=hidden;rotatable=0;points=[[0,0.5],[1,0.5]];portConstraint=eastwest;html=1;whiteSpace=wrap;#ffffffwhiteSpace=wrap;fontSize=13;fontColor=#333333;fillColor=none;strokeOpacity=100;fillOpacity=100;" parent="pvNLKoHXQlOhcsUP0_Xg-19" vertex="1">
          <mxGeometry y="95" width="164" height="24" as="geometry" />
        </mxCell>
        <mxCell id="pvNLKoHXQlOhcsUP0_Xg-32" value="Режим доступа" style="html=1;overflow=block;blockSpacing=1;swimlane;childLayout=stackLayout;horizontal=1;horizontalStack=0;resizeParent=1;resizeParentMax=0;resizeLast=0;collapsible=0;fontStyle=0;marginBottom=0;swimlaneFillColor=#ffffff;startSize=30;whiteSpace=wrap;fontSize=13;fontColor=#ffffff;align=center;spacing=0;strokeColor=#005700;strokeOpacity=100;fillOpacity=100;rounded=1;absoluteArcSize=1;arcSize=7.5;strokeWidth=0.8;fillColor=#008a00;" parent="1" vertex="1">
          <mxGeometry x="-1880" y="736" width="144" height="102" as="geometry" />
        </mxCell>
        <mxCell id="pvNLKoHXQlOhcsUP0_Xg-33" value="ID режима доступа" style="part=1;resizeHeight=0;strokeColor=none;align=left;verticalAlign=top;spacingLeft=4;spacingRight=4;overflow=hidden;rotatable=0;points=[[0,0.5],[1,0.5]];portConstraint=eastwest;html=1;whiteSpace=wrap;#ffffffwhiteSpace=wrap;fontSize=13;fontColor=#333333;fontStyle=4;fillColor=none;strokeOpacity=100;fillOpacity=100;" parent="pvNLKoHXQlOhcsUP0_Xg-32" vertex="1">
          <mxGeometry y="30" width="144" height="24" as="geometry" />
        </mxCell>
        <mxCell id="pvNLKoHXQlOhcsUP0_Xg-34" value="Название" style="part=1;resizeHeight=0;strokeColor=none;align=left;verticalAlign=top;spacingLeft=4;spacingRight=4;overflow=hidden;rotatable=0;points=[[0,0.5],[1,0.5]];portConstraint=eastwest;html=1;whiteSpace=wrap;#ffffffwhiteSpace=wrap;fontSize=13;fontColor=#333333;fillColor=none;strokeOpacity=100;fillOpacity=100;" parent="pvNLKoHXQlOhcsUP0_Xg-32" vertex="1">
          <mxGeometry y="54" width="144" height="24" as="geometry" />
        </mxCell>
        <mxCell id="pvNLKoHXQlOhcsUP0_Xg-35" value="Срок возврата" style="part=1;resizeHeight=0;strokeColor=none;align=left;verticalAlign=top;spacingLeft=4;spacingRight=4;overflow=hidden;rotatable=0;points=[[0,0.5],[1,0.5]];portConstraint=eastwest;html=1;whiteSpace=wrap;#ffffffwhiteSpace=wrap;fontSize=13;fontColor=#333333;fillColor=none;strokeOpacity=100;fillOpacity=100;" parent="pvNLKoHXQlOhcsUP0_Xg-32" vertex="1">
          <mxGeometry y="78" width="144" height="24" as="geometry" />
        </mxCell>
        <mxCell id="pvNLKoHXQlOhcsUP0_Xg-46" value="" style="html=1;jettySize=18;whiteSpace=wrap;fontSize=13;strokeColor=#3a414a;strokeOpacity=100;strokeWidth=0.8;rounded=1;arcSize=12;edgeStyle=orthogonalEdgeStyle;startArrow=ERone;startSize=16;endArrow=ERmany;endSize=10;exitX=1;exitY=0.5;entryX=0;entryY=0.5;lucidId=W~cPjog1l94F;entryDx=0;entryDy=0;exitDx=0;exitDy=0;" parent="1" source="PvF9w1s-Sq6uoAmOtv15-118" target="PvF9w1s-Sq6uoAmOtv15-65" edge="1">
          <mxGeometry width="100" height="100" relative="1" as="geometry">
            <Array as="points" />
            <mxPoint x="-1716" y="61" as="sourcePoint" />
            <mxPoint x="-1607" y="274" as="targetPoint" />
          </mxGeometry>
        </mxCell>
        <mxCell id="pvNLKoHXQlOhcsUP0_Xg-54" value="Посещение" style="html=1;overflow=block;blockSpacing=1;swimlane;childLayout=stackLayout;horizontal=1;horizontalStack=0;resizeParent=1;resizeParentMax=0;resizeLast=0;collapsible=0;fontStyle=0;marginBottom=0;swimlaneFillColor=#ffffff;startSize=30;whiteSpace=wrap;fontSize=13;fontColor=#ffffff;align=center;spacing=0;strokeColor=#005700;strokeOpacity=100;fillOpacity=100;rounded=1;absoluteArcSize=1;arcSize=7.5;strokeWidth=0.8;fillColor=#008a00;" parent="1" vertex="1">
          <mxGeometry x="-1628" y="-4" width="227" height="126" as="geometry" />
        </mxCell>
        <mxCell id="pvNLKoHXQlOhcsUP0_Xg-64" value="ID посещения" style="part=1;resizeHeight=0;strokeColor=none;align=left;verticalAlign=top;spacingLeft=4;spacingRight=4;overflow=hidden;rotatable=0;points=[[0,0.5],[1,0.5]];portConstraint=eastwest;html=1;whiteSpace=wrap;#ffffffwhiteSpace=wrap;fontSize=13;fontColor=#333333;fontStyle=4;fillColor=none;strokeOpacity=100;fillOpacity=100;" parent="pvNLKoHXQlOhcsUP0_Xg-54" vertex="1">
          <mxGeometry y="30" width="227" height="24" as="geometry" />
        </mxCell>
        <mxCell id="pvNLKoHXQlOhcsUP0_Xg-65" value="ID читателя" style="part=1;resizeHeight=0;strokeColor=none;align=left;verticalAlign=top;spacingLeft=4;spacingRight=4;overflow=hidden;rotatable=0;points=[[0,0.5],[1,0.5]];portConstraint=eastwest;html=1;whiteSpace=wrap;#ffffffwhiteSpace=wrap;fontSize=13;fontColor=#333333;fillColor=none;strokeOpacity=100;fillOpacity=100;" parent="pvNLKoHXQlOhcsUP0_Xg-54" vertex="1">
          <mxGeometry y="54" width="227" height="24" as="geometry" />
        </mxCell>
        <mxCell id="pvNLKoHXQlOhcsUP0_Xg-57" value="ID библиотекаря" style="part=1;resizeHeight=0;strokeColor=none;align=left;verticalAlign=top;spacingLeft=4;spacingRight=4;overflow=hidden;rotatable=0;points=[[0,0.5],[1,0.5]];portConstraint=eastwest;html=1;whiteSpace=wrap;#ffffffwhiteSpace=wrap;fontSize=13;fontColor=#333333;fillColor=none;strokeOpacity=100;fillOpacity=100;" parent="pvNLKoHXQlOhcsUP0_Xg-54" vertex="1">
          <mxGeometry y="78" width="227" height="24" as="geometry" />
        </mxCell>
        <mxCell id="pvNLKoHXQlOhcsUP0_Xg-58" value="Дата посещения" style="part=1;resizeHeight=0;strokeColor=none;align=left;verticalAlign=top;spacingLeft=4;spacingRight=4;overflow=hidden;rotatable=0;points=[[0,0.5],[1,0.5]];portConstraint=eastwest;html=1;whiteSpace=wrap;#ffffffwhiteSpace=wrap;fontSize=13;fontColor=#333333;fillColor=none;strokeOpacity=100;fillOpacity=100;" parent="pvNLKoHXQlOhcsUP0_Xg-54" vertex="1">
          <mxGeometry y="102" width="227" height="24" as="geometry" />
        </mxCell>
        <mxCell id="pvNLKoHXQlOhcsUP0_Xg-59" value="Полка" style="part=1;resizeHeight=0;strokeColor=none;align=left;verticalAlign=top;spacingLeft=4;spacingRight=4;overflow=hidden;rotatable=0;points=[[0,0.5],[1,0.5]];portConstraint=eastwest;html=1;whiteSpace=wrap;#ffffffwhiteSpace=wrap;fontSize=13;fontColor=#333333;fillColor=none;strokeOpacity=100;fillOpacity=100;" parent="pvNLKoHXQlOhcsUP0_Xg-54" vertex="1">
          <mxGeometry y="126" width="227" as="geometry" />
        </mxCell>
        <mxCell id="pvNLKoHXQlOhcsUP0_Xg-66" value="" style="html=1;jettySize=18;whiteSpace=wrap;fontSize=13;strokeColor=#3a414a;strokeOpacity=100;strokeWidth=0.8;rounded=1;arcSize=12;edgeStyle=orthogonalEdgeStyle;startArrow=ERmany;startSize=10;endArrow=ERone;endSize=16;exitX=1;exitY=0.5;entryX=0;entryY=0.5;lucidId=KSVOqX-~kG_~;exitDx=0;exitDy=0;entryDx=0;entryDy=0;" parent="1" source="pvNLKoHXQlOhcsUP0_Xg-65" target="PvF9w1s-Sq6uoAmOtv15-2" edge="1">
          <mxGeometry width="100" height="100" relative="1" as="geometry">
            <Array as="points">
              <mxPoint x="-1362" y="62" />
              <mxPoint x="-1362" y="229" />
            </Array>
            <mxPoint x="-1392" y="239" as="sourcePoint" />
            <mxPoint x="-1325" y="239" as="targetPoint" />
          </mxGeometry>
        </mxCell>
        <mxCell id="pvNLKoHXQlOhcsUP0_Xg-81" value="" style="html=1;jettySize=18;whiteSpace=wrap;fontSize=13;strokeColor=#3a414a;strokeOpacity=100;strokeWidth=0.8;rounded=1;arcSize=12;edgeStyle=orthogonalEdgeStyle;startArrow=ERone;startSize=16;endArrow=ERmany;endSize=10;lucidId=BFWObcZz9gxv;entryX=0;entryY=0.5;entryDx=0;entryDy=0;exitX=0;exitY=0.5;exitDx=0;exitDy=0;" parent="1" source="PvF9w1s-Sq6uoAmOtv15-44" target="PvF9w1s-Sq6uoAmOtv15-105" edge="1">
          <mxGeometry width="100" height="100" relative="1" as="geometry">
            <Array as="points">
              <mxPoint x="-2168" y="462" />
              <mxPoint x="-2168" y="307" />
            </Array>
            <mxPoint x="-1931" y="443" as="sourcePoint" />
            <mxPoint x="-1864" y="316" as="targetPoint" />
          </mxGeometry>
        </mxCell>
        <mxCell id="pvNLKoHXQlOhcsUP0_Xg-85" value="" style="html=1;jettySize=18;whiteSpace=wrap;fontSize=13;strokeColor=#3a414a;strokeOpacity=100;strokeWidth=0.8;rounded=1;arcSize=12;edgeStyle=orthogonalEdgeStyle;startArrow=ERone;startSize=16;endArrow=ERone;endSize=16;exitX=1;exitY=0.5;lucidId=WyWO2uIzKxOy;exitDx=0;exitDy=0;entryX=0;entryY=0.5;entryDx=0;entryDy=0;" parent="1" source="PvF9w1s-Sq6uoAmOtv15-94" target="pvNLKoHXQlOhcsUP0_Xg-18" edge="1">
          <mxGeometry width="100" height="100" relative="1" as="geometry">
            <Array as="points" />
            <mxPoint x="-1665" y="347" as="sourcePoint" />
            <mxPoint x="-2374" y="414" as="targetPoint" />
          </mxGeometry>
        </mxCell>
        <mxCell id="pvNLKoHXQlOhcsUP0_Xg-86" value="" style="html=1;jettySize=18;whiteSpace=wrap;fontSize=13;strokeColor=#3a414a;strokeOpacity=100;strokeWidth=0.8;rounded=1;arcSize=12;edgeStyle=orthogonalEdgeStyle;startArrow=ERone;startSize=16;endArrow=ERone;endSize=16;exitX=1;exitY=0.5;entryX=0;entryY=0.5;lucidId=WyWO2uIzKxOy;entryDx=0;entryDy=0;exitDx=0;exitDy=0;" parent="1" source="PvF9w1s-Sq6uoAmOtv15-100" target="pvNLKoHXQlOhcsUP0_Xg-21" edge="1">
          <mxGeometry width="100" height="100" relative="1" as="geometry">
            <Array as="points" />
            <mxPoint x="-1655" y="357" as="sourcePoint" />
            <mxPoint x="-1577" y="356" as="targetPoint" />
          </mxGeometry>
        </mxCell>
        <mxCell id="pvNLKoHXQlOhcsUP0_Xg-87" value="" style="html=1;jettySize=18;whiteSpace=wrap;fontSize=13;strokeColor=#3a414a;strokeOpacity=100;strokeWidth=0.8;rounded=1;arcSize=12;edgeStyle=orthogonalEdgeStyle;startArrow=ERone;startSize=16;endArrow=ERone;endSize=16;exitX=1;exitY=0.5;entryX=0;entryY=0.5;lucidId=WyWO2uIzKxOy;entryDx=0;entryDy=0;exitDx=0;exitDy=0;" parent="1" source="PvF9w1s-Sq6uoAmOtv15-80" target="pvNLKoHXQlOhcsUP0_Xg-14" edge="1">
          <mxGeometry width="100" height="100" relative="1" as="geometry">
            <Array as="points" />
            <mxPoint x="-1645" y="367" as="sourcePoint" />
            <mxPoint x="-1567" y="366" as="targetPoint" />
          </mxGeometry>
        </mxCell>
        <mxCell id="pvNLKoHXQlOhcsUP0_Xg-88" value="" style="html=1;jettySize=18;whiteSpace=wrap;fontSize=13;strokeColor=#3a414a;strokeOpacity=100;strokeWidth=0.8;rounded=1;arcSize=12;edgeStyle=orthogonalEdgeStyle;startArrow=ERone;startSize=16;endArrow=ERone;endSize=16;exitX=1;exitY=0.5;entryX=0;entryY=0.5;lucidId=WyWO2uIzKxOy;entryDx=0;entryDy=0;exitDx=0;exitDy=0;" parent="1" source="PvF9w1s-Sq6uoAmOtv15-85" target="pvNLKoHXQlOhcsUP0_Xg-14" edge="1">
          <mxGeometry width="100" height="100" relative="1" as="geometry">
            <Array as="points" />
            <mxPoint x="-1635" y="377" as="sourcePoint" />
            <mxPoint x="-1557" y="376" as="targetPoint" />
          </mxGeometry>
        </mxCell>
        <mxCell id="pvNLKoHXQlOhcsUP0_Xg-90" value="" style="html=1;jettySize=18;whiteSpace=wrap;fontSize=13;strokeColor=#3a414a;strokeOpacity=100;strokeWidth=0.8;rounded=1;arcSize=12;edgeStyle=orthogonalEdgeStyle;startArrow=ERone;startSize=16;endArrow=ERmany;endSize=10;exitX=1;exitY=0.5;entryX=0;entryY=0.5;lucidId=W~cPjog1l94F;entryDx=0;entryDy=0;exitDx=0;exitDy=0;" parent="1" source="PvF9w1s-Sq6uoAmOtv15-19" target="pvNLKoHXQlOhcsUP0_Xg-57" edge="1">
          <mxGeometry width="100" height="100" relative="1" as="geometry">
            <Array as="points">
              <mxPoint x="-1940" y="-99" />
              <mxPoint x="-1940" y="-26" />
              <mxPoint x="-1695" y="-26" />
              <mxPoint x="-1695" y="86" />
            </Array>
            <mxPoint x="-1726" y="51" as="sourcePoint" />
            <mxPoint x="-1617" y="263" as="targetPoint" />
          </mxGeometry>
        </mxCell>
        <mxCell id="pvNLKoHXQlOhcsUP0_Xg-91" value="" style="html=1;jettySize=18;whiteSpace=wrap;fontSize=13;strokeColor=#3a414a;strokeOpacity=100;strokeWidth=0.8;rounded=1;arcSize=12;edgeStyle=orthogonalEdgeStyle;startArrow=ERone;startSize=16;endArrow=ERmany;endSize=10;entryX=0;entryY=0.5;lucidId=X6VOyPNAQlMR;entryDx=0;entryDy=0;exitX=0;exitY=0.5;exitDx=0;exitDy=0;" parent="1" source="PvF9w1s-Sq6uoAmOtv15-37" target="pvNLKoHXQlOhcsUP0_Xg-72" edge="1">
          <mxGeometry width="100" height="100" relative="1" as="geometry">
            <Array as="points">
              <mxPoint x="-2220" y="-278" />
              <mxPoint x="-2220" y="283" />
            </Array>
            <mxPoint x="-2188" y="-351" as="sourcePoint" />
            <mxPoint x="-2135" y="-125" as="targetPoint" />
          </mxGeometry>
        </mxCell>
        <mxCell id="pvNLKoHXQlOhcsUP0_Xg-94" value="Издатель" style="html=1;overflow=block;blockSpacing=1;swimlane;childLayout=stackLayout;horizontal=1;horizontalStack=0;resizeParent=1;resizeParentMax=0;resizeLast=0;collapsible=0;fontStyle=0;marginBottom=0;swimlaneFillColor=#ffffff;startSize=30;whiteSpace=wrap;fontSize=13;fontColor=#ffffff;align=center;spacing=0;strokeColor=#005700;strokeOpacity=100;fillOpacity=100;rounded=1;absoluteArcSize=1;arcSize=7.5;strokeWidth=0.8;fillColor=#008a00;" parent="1" vertex="1">
          <mxGeometry x="-1883" y="494" width="143" height="102" as="geometry" />
        </mxCell>
        <mxCell id="pvNLKoHXQlOhcsUP0_Xg-95" value="ID издателя" style="part=1;resizeHeight=0;strokeColor=none;align=left;verticalAlign=top;spacingLeft=4;spacingRight=4;overflow=hidden;rotatable=0;points=[[0,0.5],[1,0.5]];portConstraint=eastwest;html=1;whiteSpace=wrap;#ffffffwhiteSpace=wrap;fontSize=13;fontColor=#333333;fontStyle=4;fillColor=none;strokeOpacity=100;fillOpacity=100;" parent="pvNLKoHXQlOhcsUP0_Xg-94" vertex="1">
          <mxGeometry y="30" width="143" height="24" as="geometry" />
        </mxCell>
        <mxCell id="pvNLKoHXQlOhcsUP0_Xg-96" value="Название" style="part=1;resizeHeight=0;strokeColor=none;align=left;verticalAlign=top;spacingLeft=4;spacingRight=4;overflow=hidden;rotatable=0;points=[[0,0.5],[1,0.5]];portConstraint=eastwest;html=1;whiteSpace=wrap;#ffffffwhiteSpace=wrap;fontSize=13;fontColor=#333333;fillColor=none;strokeOpacity=100;fillOpacity=100;" parent="pvNLKoHXQlOhcsUP0_Xg-94" vertex="1">
          <mxGeometry y="54" width="143" height="24" as="geometry" />
        </mxCell>
        <mxCell id="pvNLKoHXQlOhcsUP0_Xg-97" value="Страна" style="part=1;resizeHeight=0;strokeColor=none;align=left;verticalAlign=top;spacingLeft=4;spacingRight=4;overflow=hidden;rotatable=0;points=[[0,0.5],[1,0.5]];portConstraint=eastwest;html=1;whiteSpace=wrap;#ffffffwhiteSpace=wrap;fontSize=13;fontColor=#333333;fillColor=none;strokeOpacity=100;fillOpacity=100;" parent="pvNLKoHXQlOhcsUP0_Xg-94" vertex="1">
          <mxGeometry y="78" width="143" height="24" as="geometry" />
        </mxCell>
        <mxCell id="pvNLKoHXQlOhcsUP0_Xg-98" value="" style="html=1;jettySize=18;whiteSpace=wrap;fontSize=13;strokeColor=#3a414a;strokeOpacity=100;strokeWidth=0.8;rounded=1;arcSize=12;edgeStyle=orthogonalEdgeStyle;startArrow=ERone;startSize=16;endArrow=ERmany;endSize=10;exitX=0;exitY=0.5;entryX=1;entryY=0.5;lucidId=uVWO0.SD1XmD;entryDx=0;entryDy=0;exitDx=0;exitDy=0;" parent="1" source="pvNLKoHXQlOhcsUP0_Xg-95" target="PvF9w1s-Sq6uoAmOtv15-47" edge="1">
          <mxGeometry width="100" height="100" relative="1" as="geometry">
            <Array as="points" />
            <mxPoint x="-1931" y="666" as="sourcePoint" />
            <mxPoint x="-1931" y="594" as="targetPoint" />
          </mxGeometry>
        </mxCell>
        <mxCell id="pvNLKoHXQlOhcsUP0_Xg-104" value="Автор" style="html=1;overflow=block;blockSpacing=1;swimlane;childLayout=stackLayout;horizontal=1;horizontalStack=0;resizeParent=1;resizeParentMax=0;resizeLast=0;collapsible=0;fontStyle=0;marginBottom=0;swimlaneFillColor=#ffffff;startSize=30;whiteSpace=wrap;fontSize=13;fontColor=#ffffff;align=center;spacing=0;strokeColor=#005700;strokeOpacity=100;fillOpacity=100;rounded=1;absoluteArcSize=1;arcSize=7.5;strokeWidth=0.8;fillColor=#008a00;" parent="1" vertex="1">
          <mxGeometry x="-2311" y="806" width="118" height="174" as="geometry" />
        </mxCell>
        <mxCell id="pvNLKoHXQlOhcsUP0_Xg-105" value="ID автора" style="part=1;resizeHeight=0;strokeColor=none;align=left;verticalAlign=top;spacingLeft=4;spacingRight=4;overflow=hidden;rotatable=0;points=[[0,0.5],[1,0.5]];portConstraint=eastwest;html=1;whiteSpace=wrap;#ffffffwhiteSpace=wrap;fontSize=13;fontColor=#333333;fontStyle=4;fillColor=none;strokeOpacity=100;fillOpacity=100;" parent="pvNLKoHXQlOhcsUP0_Xg-104" vertex="1">
          <mxGeometry y="30" width="118" height="24" as="geometry" />
        </mxCell>
        <mxCell id="pvNLKoHXQlOhcsUP0_Xg-106" value="Фамилия" style="part=1;resizeHeight=0;strokeColor=none;align=left;verticalAlign=top;spacingLeft=4;spacingRight=4;overflow=hidden;rotatable=0;points=[[0,0.5],[1,0.5]];portConstraint=eastwest;html=1;whiteSpace=wrap;#ffffffwhiteSpace=wrap;fontSize=13;fontColor=#333333;fillColor=none;strokeOpacity=100;fillOpacity=100;" parent="pvNLKoHXQlOhcsUP0_Xg-104" vertex="1">
          <mxGeometry y="54" width="118" height="24" as="geometry" />
        </mxCell>
        <mxCell id="pvNLKoHXQlOhcsUP0_Xg-107" value="Имя" style="part=1;resizeHeight=0;strokeColor=none;align=left;verticalAlign=top;spacingLeft=4;spacingRight=4;overflow=hidden;rotatable=0;points=[[0,0.5],[1,0.5]];portConstraint=eastwest;html=1;whiteSpace=wrap;#ffffffwhiteSpace=wrap;fontSize=13;fontColor=#333333;fillColor=none;strokeOpacity=100;fillOpacity=100;" parent="pvNLKoHXQlOhcsUP0_Xg-104" vertex="1">
          <mxGeometry y="78" width="118" height="24" as="geometry" />
        </mxCell>
        <mxCell id="pvNLKoHXQlOhcsUP0_Xg-108" value="Отчество" style="part=1;resizeHeight=0;strokeColor=none;align=left;verticalAlign=top;spacingLeft=4;spacingRight=4;overflow=hidden;rotatable=0;points=[[0,0.5],[1,0.5]];portConstraint=eastwest;html=1;whiteSpace=wrap;#ffffffwhiteSpace=wrap;fontSize=13;fontColor=#333333;fillColor=none;strokeOpacity=100;fillOpacity=100;" parent="pvNLKoHXQlOhcsUP0_Xg-104" vertex="1">
          <mxGeometry y="102" width="118" height="24" as="geometry" />
        </mxCell>
        <mxCell id="pvNLKoHXQlOhcsUP0_Xg-109" value="Пол" style="part=1;resizeHeight=0;strokeColor=none;align=left;verticalAlign=top;spacingLeft=4;spacingRight=4;overflow=hidden;rotatable=0;points=[[0,0.5],[1,0.5]];portConstraint=eastwest;html=1;whiteSpace=wrap;#ffffffwhiteSpace=wrap;fontSize=13;fontColor=#333333;fillColor=none;strokeOpacity=100;fillOpacity=100;" parent="pvNLKoHXQlOhcsUP0_Xg-104" vertex="1">
          <mxGeometry y="126" width="118" height="24" as="geometry" />
        </mxCell>
        <mxCell id="pvNLKoHXQlOhcsUP0_Xg-112" value="Страна" style="part=1;resizeHeight=0;strokeColor=none;align=left;verticalAlign=top;spacingLeft=4;spacingRight=4;overflow=hidden;rotatable=0;points=[[0,0.5],[1,0.5]];portConstraint=eastwest;html=1;whiteSpace=wrap;#ffffffwhiteSpace=wrap;fontSize=13;fontColor=#333333;fillColor=none;strokeOpacity=100;fillOpacity=100;" parent="pvNLKoHXQlOhcsUP0_Xg-104" vertex="1">
          <mxGeometry y="150" width="118" height="24" as="geometry" />
        </mxCell>
        <mxCell id="pvNLKoHXQlOhcsUP0_Xg-110" value="Дата рождения" style="part=1;resizeHeight=0;strokeColor=none;align=left;verticalAlign=top;spacingLeft=4;spacingRight=4;overflow=hidden;rotatable=0;points=[[0,0.5],[1,0.5]];portConstraint=eastwest;html=1;whiteSpace=wrap;#ffffffwhiteSpace=wrap;fontSize=13;fontColor=#333333;fillColor=none;strokeOpacity=100;fillOpacity=100;" parent="pvNLKoHXQlOhcsUP0_Xg-104" vertex="1">
          <mxGeometry y="174" width="118" as="geometry" />
        </mxCell>
        <mxCell id="pvNLKoHXQlOhcsUP0_Xg-111" value="Телефон" style="part=1;resizeHeight=0;strokeColor=none;align=left;verticalAlign=top;spacingLeft=4;spacingRight=4;overflow=hidden;rotatable=0;points=[[0,0.5],[1,0.5]];portConstraint=eastwest;html=1;whiteSpace=wrap;#ffffffwhiteSpace=wrap;fontSize=13;fontColor=#333333;fillColor=none;strokeOpacity=100;fillOpacity=100;" parent="pvNLKoHXQlOhcsUP0_Xg-104" vertex="1">
          <mxGeometry y="174" width="118" as="geometry" />
        </mxCell>
        <mxCell id="pvNLKoHXQlOhcsUP0_Xg-116" value="Включаемое произведение" style="html=1;overflow=block;blockSpacing=1;swimlane;childLayout=stackLayout;horizontal=1;horizontalStack=0;resizeParent=1;resizeParentMax=0;resizeLast=0;collapsible=0;fontStyle=0;marginBottom=0;swimlaneFillColor=#ffffff;startSize=31;whiteSpace=wrap;fontSize=13;fontColor=#ffffff;align=center;spacing=0;strokeColor=#005700;strokeOpacity=100;fillOpacity=100;rounded=1;absoluteArcSize=1;arcSize=7.5;strokeWidth=0.8;fillColor=#008a00;" parent="1" vertex="1">
          <mxGeometry x="-2120" y="789" width="179" height="79" as="geometry" />
        </mxCell>
        <mxCell id="pvNLKoHXQlOhcsUP0_Xg-117" value="&lt;span style=&quot;font-size: 13px;&quot;&gt;Номенклатурный номер&lt;/span&gt;" style="part=1;resizeHeight=0;strokeColor=none;align=left;verticalAlign=top;spacingLeft=4;spacingRight=4;overflow=hidden;rotatable=0;points=[[0,0.5],[1,0.5]];portConstraint=eastwest;html=1;whiteSpace=wrap;#ffffffwhiteSpace=wrap;fontSize=14;fontColor=#202122;fontStyle=4;fillColor=none;strokeOpacity=100;fillOpacity=100;" parent="pvNLKoHXQlOhcsUP0_Xg-116" vertex="1">
          <mxGeometry y="31" width="179" height="24" as="geometry" />
        </mxCell>
        <mxCell id="pvNLKoHXQlOhcsUP0_Xg-118" value="&lt;u&gt;ID произведения&lt;/u&gt;" style="part=1;resizeHeight=0;strokeColor=none;align=left;verticalAlign=top;spacingLeft=4;spacingRight=4;overflow=hidden;rotatable=0;points=[[0,0.5],[1,0.5]];portConstraint=eastwest;html=1;whiteSpace=wrap;#ffffffwhiteSpace=wrap;fontSize=13;fontColor=#333333;fillColor=none;strokeOpacity=100;fillOpacity=100;" parent="pvNLKoHXQlOhcsUP0_Xg-116" vertex="1">
          <mxGeometry y="55" width="179" height="24" as="geometry" />
        </mxCell>
        <mxCell id="pvNLKoHXQlOhcsUP0_Xg-120" value="Произведение" style="html=1;overflow=block;blockSpacing=1;swimlane;childLayout=stackLayout;horizontal=1;horizontalStack=0;resizeParent=1;resizeParentMax=0;resizeLast=0;collapsible=0;fontStyle=0;marginBottom=0;swimlaneFillColor=#ffffff;startSize=31;whiteSpace=wrap;fontSize=13;fontColor=#ffffff;align=center;spacing=0;strokeColor=#005700;strokeOpacity=100;fillOpacity=100;rounded=1;absoluteArcSize=1;arcSize=7.5;strokeWidth=0.8;fillColor=#008a00;" parent="1" vertex="1">
          <mxGeometry x="-2120" y="883" width="179" height="127" as="geometry" />
        </mxCell>
        <mxCell id="pvNLKoHXQlOhcsUP0_Xg-121" value="&lt;span style=&quot;font-size: 13px;&quot;&gt;ID произведения&lt;/span&gt;" style="part=1;resizeHeight=0;strokeColor=none;align=left;verticalAlign=top;spacingLeft=4;spacingRight=4;overflow=hidden;rotatable=0;points=[[0,0.5],[1,0.5]];portConstraint=eastwest;html=1;whiteSpace=wrap;#ffffffwhiteSpace=wrap;fontSize=14;fontColor=#202122;fontStyle=4;fillColor=none;strokeOpacity=100;fillOpacity=100;" parent="pvNLKoHXQlOhcsUP0_Xg-120" vertex="1">
          <mxGeometry y="31" width="179" height="24" as="geometry" />
        </mxCell>
        <mxCell id="7o32ix6SAtG-U7apxFBy-1" value="Название" style="part=1;resizeHeight=0;strokeColor=none;align=left;verticalAlign=top;spacingLeft=4;spacingRight=4;overflow=hidden;rotatable=0;points=[[0,0.5],[1,0.5]];portConstraint=eastwest;html=1;whiteSpace=wrap;#ffffffwhiteSpace=wrap;fontSize=13;fontColor=#333333;fillColor=none;strokeOpacity=100;fillOpacity=100;" parent="pvNLKoHXQlOhcsUP0_Xg-120" vertex="1">
          <mxGeometry y="55" width="179" height="24" as="geometry" />
        </mxCell>
        <mxCell id="pvNLKoHXQlOhcsUP0_Xg-122" value="ID автора" style="part=1;resizeHeight=0;strokeColor=none;align=left;verticalAlign=top;spacingLeft=4;spacingRight=4;overflow=hidden;rotatable=0;points=[[0,0.5],[1,0.5]];portConstraint=eastwest;html=1;whiteSpace=wrap;#ffffffwhiteSpace=wrap;fontSize=13;fontColor=#333333;fillColor=none;strokeOpacity=100;fillOpacity=100;" parent="pvNLKoHXQlOhcsUP0_Xg-120" vertex="1">
          <mxGeometry y="79" width="179" height="24" as="geometry" />
        </mxCell>
        <mxCell id="pvNLKoHXQlOhcsUP0_Xg-124" value="Год выпуска" style="part=1;resizeHeight=0;strokeColor=none;align=left;verticalAlign=top;spacingLeft=4;spacingRight=4;overflow=hidden;rotatable=0;points=[[0,0.5],[1,0.5]];portConstraint=eastwest;html=1;whiteSpace=wrap;#ffffffwhiteSpace=wrap;fontSize=13;fontColor=#333333;fillColor=none;strokeOpacity=100;fillOpacity=100;" parent="pvNLKoHXQlOhcsUP0_Xg-120" vertex="1">
          <mxGeometry y="103" width="179" height="24" as="geometry" />
        </mxCell>
        <mxCell id="pvNLKoHXQlOhcsUP0_Xg-125" value="" style="html=1;jettySize=18;whiteSpace=wrap;fontSize=13;strokeColor=#3a414a;strokeOpacity=100;strokeWidth=0.8;rounded=1;arcSize=12;edgeStyle=orthogonalEdgeStyle;startArrow=ERone;startSize=16;endArrow=ERmany;endSize=10;exitX=1;exitY=0.5;entryX=0;entryY=0.5;lucidId=uVWO0.SD1XmD;entryDx=0;entryDy=0;exitDx=0;exitDy=0;" parent="1" source="pvNLKoHXQlOhcsUP0_Xg-105" target="pvNLKoHXQlOhcsUP0_Xg-122" edge="1">
          <mxGeometry width="100" height="100" relative="1" as="geometry">
            <Array as="points">
              <mxPoint x="-2153" y="848" />
              <mxPoint x="-2153" y="974" />
            </Array>
            <mxPoint x="-2183" y="858" as="sourcePoint" />
            <mxPoint x="-2097" y="546" as="targetPoint" />
          </mxGeometry>
        </mxCell>
        <mxCell id="pvNLKoHXQlOhcsUP0_Xg-128" value="" style="html=1;jettySize=18;whiteSpace=wrap;fontSize=13;strokeColor=#3a414a;strokeOpacity=100;strokeWidth=0.8;rounded=1;arcSize=12;edgeStyle=orthogonalEdgeStyle;startArrow=ERone;startSize=16;endArrow=ERmany;endSize=10;exitX=0;exitY=0.5;lucidId=uVWO0.SD1XmD;exitDx=0;exitDy=0;" parent="1" source="PvF9w1s-Sq6uoAmOtv15-44" edge="1">
          <mxGeometry width="100" height="100" relative="1" as="geometry">
            <Array as="points">
              <mxPoint x="-2167" y="462" />
              <mxPoint x="-2167" y="832" />
            </Array>
            <mxPoint x="-1931" y="713" as="sourcePoint" />
            <mxPoint x="-2120" y="832" as="targetPoint" />
          </mxGeometry>
        </mxCell>
        <mxCell id="pvNLKoHXQlOhcsUP0_Xg-129" value="" style="html=1;jettySize=18;whiteSpace=wrap;fontSize=13;strokeColor=#3a414a;strokeOpacity=100;strokeWidth=0.8;rounded=1;arcSize=12;edgeStyle=orthogonalEdgeStyle;startArrow=ERone;startSize=16;endArrow=ERmany;endSize=10;exitX=0;exitY=0.5;entryX=0;entryY=0.5;lucidId=uVWO0.SD1XmD;entryDx=0;entryDy=0;exitDx=0;exitDy=0;" parent="1" source="pvNLKoHXQlOhcsUP0_Xg-121" target="pvNLKoHXQlOhcsUP0_Xg-118" edge="1">
          <mxGeometry width="100" height="100" relative="1" as="geometry">
            <Array as="points">
              <mxPoint x="-2143" y="926" />
              <mxPoint x="-2143" y="856" />
            </Array>
            <mxPoint x="-1931" y="713" as="sourcePoint" />
            <mxPoint x="-1931" y="642" as="targetPoint" />
          </mxGeometry>
        </mxCell>
        <mxCell id="pvNLKoHXQlOhcsUP0_Xg-138" value="Движение сотрудника" style="html=1;overflow=block;blockSpacing=1;swimlane;childLayout=stackLayout;horizontal=1;horizontalStack=0;resizeParent=1;resizeParentMax=0;resizeLast=0;collapsible=0;fontStyle=0;marginBottom=0;swimlaneFillColor=#ffffff;startSize=30;whiteSpace=wrap;fontSize=13;fontColor=#ffffff;align=center;spacing=0;strokeColor=#005700;strokeOpacity=100;fillOpacity=100;rounded=1;absoluteArcSize=1;arcSize=7.5;strokeWidth=0.8;fillColor=#008a00;" parent="1" vertex="1">
          <mxGeometry x="-1921.5" y="-446" width="151.5" height="205" as="geometry" />
        </mxCell>
        <mxCell id="pvNLKoHXQlOhcsUP0_Xg-139" value="ID движения" style="part=1;resizeHeight=0;strokeColor=none;align=left;verticalAlign=top;spacingLeft=4;spacingRight=4;overflow=hidden;rotatable=0;points=[[0,0.5],[1,0.5]];portConstraint=eastwest;html=1;whiteSpace=wrap;#ffffffwhiteSpace=wrap;fontSize=13;fontColor=#333333;fontStyle=4;fillColor=none;strokeOpacity=100;fillOpacity=100;" parent="pvNLKoHXQlOhcsUP0_Xg-138" vertex="1">
          <mxGeometry y="30" width="151.5" height="24" as="geometry" />
        </mxCell>
        <mxCell id="LDUGckeA06KayumZ7y5b-1" value="ID человека" style="part=1;resizeHeight=0;strokeColor=none;align=left;verticalAlign=top;spacingLeft=4;spacingRight=4;overflow=hidden;rotatable=0;points=[[0,0.5],[1,0.5]];portConstraint=eastwest;html=1;whiteSpace=wrap;#ffffffwhiteSpace=wrap;fontSize=13;fontColor=#333333;fillColor=none;strokeOpacity=100;fillOpacity=100;" parent="pvNLKoHXQlOhcsUP0_Xg-138" vertex="1">
          <mxGeometry y="54" width="151.5" height="24" as="geometry" />
        </mxCell>
        <mxCell id="pvNLKoHXQlOhcsUP0_Xg-140" value="ID должности" style="part=1;resizeHeight=0;strokeColor=none;align=left;verticalAlign=top;spacingLeft=4;spacingRight=4;overflow=hidden;rotatable=0;points=[[0,0.5],[1,0.5]];portConstraint=eastwest;html=1;whiteSpace=wrap;#ffffffwhiteSpace=wrap;fontSize=13;fontColor=#333333;fillColor=none;strokeOpacity=100;fillOpacity=100;" parent="pvNLKoHXQlOhcsUP0_Xg-138" vertex="1">
          <mxGeometry y="78" width="151.5" height="24" as="geometry" />
        </mxCell>
        <mxCell id="pvNLKoHXQlOhcsUP0_Xg-142" value="ID отдела" style="part=1;resizeHeight=0;strokeColor=none;align=left;verticalAlign=top;spacingLeft=4;spacingRight=4;overflow=hidden;rotatable=0;points=[[0,0.5],[1,0.5]];portConstraint=eastwest;html=1;whiteSpace=wrap;#ffffffwhiteSpace=wrap;fontSize=13;fontColor=#333333;fillColor=none;strokeOpacity=100;fillOpacity=100;" parent="pvNLKoHXQlOhcsUP0_Xg-138" vertex="1">
          <mxGeometry y="102" width="151.5" height="24" as="geometry" />
        </mxCell>
        <mxCell id="pvNLKoHXQlOhcsUP0_Xg-143" value="Дата вступления в должность" style="part=1;resizeHeight=0;strokeColor=none;align=left;verticalAlign=top;spacingLeft=4;spacingRight=4;overflow=hidden;rotatable=0;points=[[0,0.5],[1,0.5]];portConstraint=eastwest;html=1;whiteSpace=wrap;#ffffffwhiteSpace=wrap;fontSize=13;fontColor=#333333;fillColor=none;strokeOpacity=100;fillOpacity=100;" parent="pvNLKoHXQlOhcsUP0_Xg-138" vertex="1">
          <mxGeometry y="126" width="151.5" height="41" as="geometry" />
        </mxCell>
        <mxCell id="7o32ix6SAtG-U7apxFBy-2" value="Дата выхода из должности" style="part=1;resizeHeight=0;strokeColor=none;align=left;verticalAlign=top;spacingLeft=4;spacingRight=4;overflow=hidden;rotatable=0;points=[[0,0.5],[1,0.5]];portConstraint=eastwest;html=1;whiteSpace=wrap;#ffffffwhiteSpace=wrap;fontSize=13;fontColor=#333333;fillColor=none;strokeOpacity=100;fillOpacity=100;" parent="pvNLKoHXQlOhcsUP0_Xg-138" vertex="1">
          <mxGeometry y="167" width="151.5" height="38" as="geometry" />
        </mxCell>
        <mxCell id="pvNLKoHXQlOhcsUP0_Xg-145" value="" style="html=1;jettySize=18;whiteSpace=wrap;fontSize=13;strokeColor=#3a414a;strokeOpacity=100;strokeWidth=0.8;rounded=1;arcSize=12;edgeStyle=orthogonalEdgeStyle;startArrow=ERmany;startSize=10;endArrow=ERone;endSize=16;lucidId=V4ePyNtxxohS;entryX=0;entryY=0.5;entryDx=0;entryDy=0;startFill=0;exitX=1;exitY=0.5;exitDx=0;exitDy=0;" parent="1" source="LDUGckeA06KayumZ7y5b-1" target="PvF9w1s-Sq6uoAmOtv15-147" edge="1">
          <mxGeometry width="100" height="100" relative="1" as="geometry">
            <Array as="points">
              <mxPoint x="-1770" y="-380" />
              <mxPoint x="-1638" y="-380" />
              <mxPoint x="-1638" y="-226" />
            </Array>
            <mxPoint x="-1723" y="-349" as="sourcePoint" />
            <mxPoint x="-1609" y="-216" as="targetPoint" />
          </mxGeometry>
        </mxCell>
        <mxCell id="pvNLKoHXQlOhcsUP0_Xg-146" value="" style="html=1;jettySize=18;whiteSpace=wrap;fontSize=13;strokeColor=#3a414a;strokeOpacity=100;strokeWidth=0.8;rounded=1;arcSize=12;edgeStyle=orthogonalEdgeStyle;startArrow=ERone;startSize=16;endArrow=ERmany;endSize=10;exitX=1;exitY=0.5;entryX=1;entryY=0.5;lucidId=bWVOXa4nwIZu;entryDx=0;entryDy=0;exitDx=0;exitDy=0;" parent="1" source="PvF9w1s-Sq6uoAmOtv15-25" target="pvNLKoHXQlOhcsUP0_Xg-140" edge="1">
          <mxGeometry width="100" height="100" relative="1" as="geometry">
            <Array as="points">
              <mxPoint x="-1752" y="-75" />
              <mxPoint x="-1752" y="-356" />
            </Array>
            <mxPoint x="-1895" y="-65" as="sourcePoint" />
            <mxPoint x="-1965" y="-65" as="targetPoint" />
          </mxGeometry>
        </mxCell>
        <mxCell id="pvNLKoHXQlOhcsUP0_Xg-148" value="" style="html=1;jettySize=18;whiteSpace=wrap;fontSize=13;strokeColor=#3a414a;strokeOpacity=100;strokeWidth=0.8;rounded=1;arcSize=12;edgeStyle=orthogonalEdgeStyle;startArrow=ERone;startSize=16;endArrow=ERmany;endSize=10;exitX=1;exitY=0.5;lucidId=bWVOXa4nwIZu;exitDx=0;exitDy=0;entryX=0;entryY=0.5;entryDx=0;entryDy=0;" parent="1" source="PvF9w1s-Sq6uoAmOtv15-125" target="pvNLKoHXQlOhcsUP0_Xg-142" edge="1">
          <mxGeometry width="100" height="100" relative="1" as="geometry">
            <Array as="points">
              <mxPoint x="-2240" y="91" />
              <mxPoint x="-2240" y="-178" />
              <mxPoint x="-1959" y="-178" />
              <mxPoint x="-1959" y="-332" />
            </Array>
            <mxPoint x="-1875" y="-45" as="sourcePoint" />
            <mxPoint x="-1901" y="-302" as="targetPoint" />
          </mxGeometry>
        </mxCell>
        <mxCell id="7o32ix6SAtG-U7apxFBy-5" value="Контакт человека" style="html=1;overflow=block;blockSpacing=1;swimlane;childLayout=stackLayout;horizontal=1;horizontalStack=0;resizeParent=1;resizeParentMax=0;resizeLast=0;collapsible=0;fontStyle=0;marginBottom=0;swimlaneFillColor=#ffffff;startSize=30;whiteSpace=wrap;fontSize=13;fontColor=#ffffff;align=center;spacing=0;strokeColor=#005700;strokeOpacity=100;fillOpacity=100;rounded=1;absoluteArcSize=1;arcSize=7.5;strokeWidth=0.8;fillColor=#008a00;" parent="1" vertex="1">
          <mxGeometry x="-1437" y="-195" width="159" height="102" as="geometry" />
        </mxCell>
        <mxCell id="7o32ix6SAtG-U7apxFBy-20" value="ID контакта" style="part=1;resizeHeight=0;strokeColor=none;align=left;verticalAlign=top;spacingLeft=4;spacingRight=4;overflow=hidden;rotatable=0;points=[[0,0.5],[1,0.5]];portConstraint=eastwest;html=1;whiteSpace=wrap;#ffffffwhiteSpace=wrap;fontSize=13;fontColor=#333333;fontStyle=4;fillColor=none;strokeOpacity=100;fillOpacity=100;" parent="7o32ix6SAtG-U7apxFBy-5" vertex="1">
          <mxGeometry y="30" width="159" height="24" as="geometry" />
        </mxCell>
        <mxCell id="7o32ix6SAtG-U7apxFBy-22" value="ID человека" style="part=1;resizeHeight=0;strokeColor=none;align=left;verticalAlign=top;spacingLeft=4;spacingRight=4;overflow=hidden;rotatable=0;points=[[0,0.5],[1,0.5]];portConstraint=eastwest;html=1;whiteSpace=wrap;#ffffffwhiteSpace=wrap;fontSize=13;fontColor=#333333;fillColor=none;strokeOpacity=100;fillOpacity=100;" parent="7o32ix6SAtG-U7apxFBy-5" vertex="1">
          <mxGeometry y="54" width="159" height="24" as="geometry" />
        </mxCell>
        <mxCell id="7o32ix6SAtG-U7apxFBy-7" value="Номер телефона" style="part=1;resizeHeight=0;strokeColor=none;align=left;verticalAlign=top;spacingLeft=4;spacingRight=4;overflow=hidden;rotatable=0;points=[[0,0.5],[1,0.5]];portConstraint=eastwest;html=1;whiteSpace=wrap;#ffffffwhiteSpace=wrap;fontSize=13;fontColor=#333333;fillColor=none;strokeOpacity=100;fillOpacity=100;" parent="7o32ix6SAtG-U7apxFBy-5" vertex="1">
          <mxGeometry y="78" width="159" height="24" as="geometry" />
        </mxCell>
        <mxCell id="7o32ix6SAtG-U7apxFBy-11" value="Контакт библиотеки" style="html=1;overflow=block;blockSpacing=1;swimlane;childLayout=stackLayout;horizontal=1;horizontalStack=0;resizeParent=1;resizeParentMax=0;resizeLast=0;collapsible=0;fontStyle=0;marginBottom=0;swimlaneFillColor=#ffffff;startSize=30;whiteSpace=wrap;fontSize=13;fontColor=#ffffff;align=center;spacing=0;strokeColor=#005700;strokeOpacity=100;fillOpacity=100;rounded=1;absoluteArcSize=1;arcSize=7.5;strokeWidth=0.8;fillColor=#008a00;" parent="1" vertex="1">
          <mxGeometry x="-2430" y="-343.5" width="169" height="78" as="geometry" />
        </mxCell>
        <mxCell id="7o32ix6SAtG-U7apxFBy-18" value="&lt;u&gt;Номер телефона&lt;/u&gt;" style="part=1;resizeHeight=0;strokeColor=none;align=left;verticalAlign=top;spacingLeft=4;spacingRight=4;overflow=hidden;rotatable=0;points=[[0,0.5],[1,0.5]];portConstraint=eastwest;html=1;whiteSpace=wrap;#ffffffwhiteSpace=wrap;fontSize=13;fontColor=#333333;fillColor=none;strokeOpacity=100;fillOpacity=100;" parent="7o32ix6SAtG-U7apxFBy-11" vertex="1">
          <mxGeometry y="30" width="169" height="24" as="geometry" />
        </mxCell>
        <mxCell id="7o32ix6SAtG-U7apxFBy-13" value="ID библиотеки" style="part=1;resizeHeight=0;strokeColor=none;align=left;verticalAlign=top;spacingLeft=4;spacingRight=4;overflow=hidden;rotatable=0;points=[[0,0.5],[1,0.5]];portConstraint=eastwest;html=1;whiteSpace=wrap;#ffffffwhiteSpace=wrap;fontSize=13;fontColor=#333333;fillColor=none;strokeOpacity=100;fillOpacity=100;" parent="7o32ix6SAtG-U7apxFBy-11" vertex="1">
          <mxGeometry y="54" width="169" height="24" as="geometry" />
        </mxCell>
        <mxCell id="7o32ix6SAtG-U7apxFBy-26" value="Поставщик" style="html=1;overflow=block;blockSpacing=1;swimlane;childLayout=stackLayout;horizontal=1;horizontalStack=0;resizeParent=1;resizeParentMax=0;resizeLast=0;collapsible=0;fontStyle=0;marginBottom=0;swimlaneFillColor=#ffffff;startSize=30;whiteSpace=wrap;fontSize=13;fontColor=#ffffff;align=center;spacing=0;strokeColor=#005700;strokeOpacity=100;fillOpacity=100;rounded=1;absoluteArcSize=1;arcSize=7.5;strokeWidth=0.8;fillColor=#008a00;" parent="1" vertex="1">
          <mxGeometry x="-2832" y="289" width="169" height="102" as="geometry" />
        </mxCell>
        <mxCell id="7o32ix6SAtG-U7apxFBy-27" value="ID поставщика" style="part=1;resizeHeight=0;strokeColor=none;align=left;verticalAlign=top;spacingLeft=4;spacingRight=4;overflow=hidden;rotatable=0;points=[[0,0.5],[1,0.5]];portConstraint=eastwest;html=1;whiteSpace=wrap;#ffffffwhiteSpace=wrap;fontSize=13;fontColor=#333333;fontStyle=4;fillColor=none;strokeOpacity=100;fillOpacity=100;" parent="7o32ix6SAtG-U7apxFBy-26" vertex="1">
          <mxGeometry y="30" width="169" height="24" as="geometry" />
        </mxCell>
        <mxCell id="7o32ix6SAtG-U7apxFBy-29" value="Название" style="part=1;resizeHeight=0;strokeColor=none;align=left;verticalAlign=top;spacingLeft=4;spacingRight=4;overflow=hidden;rotatable=0;points=[[0,0.5],[1,0.5]];portConstraint=eastwest;html=1;whiteSpace=wrap;#ffffffwhiteSpace=wrap;fontSize=13;fontColor=#333333;fillColor=none;strokeOpacity=100;fillOpacity=100;" parent="7o32ix6SAtG-U7apxFBy-26" vertex="1">
          <mxGeometry y="54" width="169" height="24" as="geometry" />
        </mxCell>
        <mxCell id="LDUGckeA06KayumZ7y5b-2" value="Тип предприятия" style="part=1;resizeHeight=0;strokeColor=none;align=left;verticalAlign=top;spacingLeft=4;spacingRight=4;overflow=hidden;rotatable=0;points=[[0,0.5],[1,0.5]];portConstraint=eastwest;html=1;whiteSpace=wrap;#ffffffwhiteSpace=wrap;fontSize=13;fontColor=#333333;fillColor=none;strokeOpacity=100;fillOpacity=100;" parent="7o32ix6SAtG-U7apxFBy-26" vertex="1">
          <mxGeometry y="78" width="169" height="24" as="geometry" />
        </mxCell>
        <mxCell id="7o32ix6SAtG-U7apxFBy-31" value="Поставка издания" style="html=1;overflow=block;blockSpacing=1;swimlane;childLayout=stackLayout;horizontal=1;horizontalStack=0;resizeParent=1;resizeParentMax=0;resizeLast=0;collapsible=0;fontStyle=0;marginBottom=0;swimlaneFillColor=#ffffff;startSize=30;whiteSpace=wrap;fontSize=13;fontColor=#ffffff;align=center;spacing=0;strokeColor=#005700;strokeOpacity=100;fillOpacity=100;rounded=1;absoluteArcSize=1;arcSize=7.5;strokeWidth=0.8;fillColor=#008a00;" parent="1" vertex="1">
          <mxGeometry x="-2417" y="217" width="167" height="150" as="geometry" />
        </mxCell>
        <mxCell id="7o32ix6SAtG-U7apxFBy-32" value="ID поставки" style="part=1;resizeHeight=0;strokeColor=none;align=left;verticalAlign=top;spacingLeft=4;spacingRight=4;overflow=hidden;rotatable=0;points=[[0,0.5],[1,0.5]];portConstraint=eastwest;html=1;whiteSpace=wrap;#ffffffwhiteSpace=wrap;fontSize=13;fontColor=#333333;fontStyle=4;fillColor=none;strokeOpacity=100;fillOpacity=100;" parent="7o32ix6SAtG-U7apxFBy-31" vertex="1">
          <mxGeometry y="30" width="167" height="24" as="geometry" />
        </mxCell>
        <mxCell id="7o32ix6SAtG-U7apxFBy-34" value="ID договора" style="part=1;resizeHeight=0;strokeColor=none;align=left;verticalAlign=top;spacingLeft=4;spacingRight=4;overflow=hidden;rotatable=0;points=[[0,0.5],[1,0.5]];portConstraint=eastwest;html=1;whiteSpace=wrap;#ffffffwhiteSpace=wrap;fontSize=13;fontColor=#333333;fontStyle=0;fillColor=none;strokeOpacity=100;fillOpacity=100;" parent="7o32ix6SAtG-U7apxFBy-31" vertex="1">
          <mxGeometry y="54" width="167" height="24" as="geometry" />
        </mxCell>
        <mxCell id="7o32ix6SAtG-U7apxFBy-35" value="Номенклатурный номер" style="part=1;resizeHeight=0;strokeColor=none;align=left;verticalAlign=top;spacingLeft=4;spacingRight=4;overflow=hidden;rotatable=0;points=[[0,0.5],[1,0.5]];portConstraint=eastwest;html=1;whiteSpace=wrap;#ffffffwhiteSpace=wrap;fontSize=13;fontColor=#333333;fontStyle=0;fillColor=none;strokeOpacity=100;fillOpacity=100;" parent="7o32ix6SAtG-U7apxFBy-31" vertex="1">
          <mxGeometry y="78" width="167" height="24" as="geometry" />
        </mxCell>
        <mxCell id="7o32ix6SAtG-U7apxFBy-36" value="Количество" style="part=1;resizeHeight=0;strokeColor=none;align=left;verticalAlign=top;spacingLeft=4;spacingRight=4;overflow=hidden;rotatable=0;points=[[0,0.5],[1,0.5]];portConstraint=eastwest;html=1;whiteSpace=wrap;#ffffffwhiteSpace=wrap;fontSize=13;fontColor=#333333;fillColor=none;strokeOpacity=100;fillOpacity=100;" parent="7o32ix6SAtG-U7apxFBy-31" vertex="1">
          <mxGeometry y="102" width="167" height="24" as="geometry" />
        </mxCell>
        <mxCell id="7o32ix6SAtG-U7apxFBy-37" value="Дата поставки" style="part=1;resizeHeight=0;strokeColor=none;align=left;verticalAlign=top;spacingLeft=4;spacingRight=4;overflow=hidden;rotatable=0;points=[[0,0.5],[1,0.5]];portConstraint=eastwest;html=1;whiteSpace=wrap;#ffffffwhiteSpace=wrap;fontSize=13;fontColor=#333333;fillColor=none;strokeOpacity=100;fillOpacity=100;" parent="7o32ix6SAtG-U7apxFBy-31" vertex="1">
          <mxGeometry y="126" width="167" height="24" as="geometry" />
        </mxCell>
        <mxCell id="7o32ix6SAtG-U7apxFBy-38" value="Договор" style="html=1;overflow=block;blockSpacing=1;swimlane;childLayout=stackLayout;horizontal=1;horizontalStack=0;resizeParent=1;resizeParentMax=0;resizeLast=0;collapsible=0;fontStyle=0;marginBottom=0;swimlaneFillColor=#ffffff;startSize=30;whiteSpace=wrap;fontSize=13;fontColor=#ffffff;align=center;spacing=0;strokeColor=#005700;strokeOpacity=100;fillOpacity=100;rounded=1;absoluteArcSize=1;arcSize=7.5;strokeWidth=0.8;fillColor=#008a00;" parent="1" vertex="1">
          <mxGeometry x="-2627" y="241" width="169" height="126" as="geometry" />
        </mxCell>
        <mxCell id="7o32ix6SAtG-U7apxFBy-39" value="ID договора" style="part=1;resizeHeight=0;strokeColor=none;align=left;verticalAlign=top;spacingLeft=4;spacingRight=4;overflow=hidden;rotatable=0;points=[[0,0.5],[1,0.5]];portConstraint=eastwest;html=1;whiteSpace=wrap;#ffffffwhiteSpace=wrap;fontSize=13;fontColor=#333333;fontStyle=4;fillColor=none;strokeOpacity=100;fillOpacity=100;" parent="7o32ix6SAtG-U7apxFBy-38" vertex="1">
          <mxGeometry y="30" width="169" height="24" as="geometry" />
        </mxCell>
        <mxCell id="7o32ix6SAtG-U7apxFBy-40" value="ID библиотеки" style="part=1;resizeHeight=0;strokeColor=none;align=left;verticalAlign=top;spacingLeft=4;spacingRight=4;overflow=hidden;rotatable=0;points=[[0,0.5],[1,0.5]];portConstraint=eastwest;html=1;whiteSpace=wrap;#ffffffwhiteSpace=wrap;fontSize=13;fontColor=#333333;fillColor=none;strokeOpacity=100;fillOpacity=100;" parent="7o32ix6SAtG-U7apxFBy-38" vertex="1">
          <mxGeometry y="54" width="169" height="24" as="geometry" />
        </mxCell>
        <mxCell id="7o32ix6SAtG-U7apxFBy-43" value="ID поставщика" style="part=1;resizeHeight=0;strokeColor=none;align=left;verticalAlign=top;spacingLeft=4;spacingRight=4;overflow=hidden;rotatable=0;points=[[0,0.5],[1,0.5]];portConstraint=eastwest;html=1;whiteSpace=wrap;#ffffffwhiteSpace=wrap;fontSize=13;fontColor=#333333;fillColor=none;strokeOpacity=100;fillOpacity=100;" parent="7o32ix6SAtG-U7apxFBy-38" vertex="1">
          <mxGeometry y="78" width="169" height="24" as="geometry" />
        </mxCell>
        <mxCell id="7o32ix6SAtG-U7apxFBy-41" value="Дата заключения" style="part=1;resizeHeight=0;strokeColor=none;align=left;verticalAlign=top;spacingLeft=4;spacingRight=4;overflow=hidden;rotatable=0;points=[[0,0.5],[1,0.5]];portConstraint=eastwest;html=1;whiteSpace=wrap;#ffffffwhiteSpace=wrap;fontSize=13;fontColor=#333333;fillColor=none;strokeOpacity=100;fillOpacity=100;" parent="7o32ix6SAtG-U7apxFBy-38" vertex="1">
          <mxGeometry y="102" width="169" height="24" as="geometry" />
        </mxCell>
        <mxCell id="7o32ix6SAtG-U7apxFBy-60" value="" style="html=1;jettySize=18;whiteSpace=wrap;fontSize=13;strokeColor=#3a414a;strokeOpacity=100;strokeWidth=0.8;rounded=1;arcSize=12;edgeStyle=orthogonalEdgeStyle;startArrow=ERone;startSize=16;endArrow=ERmany;endSize=10;exitX=0;exitY=0.5;entryX=0;entryY=0.5;lucidId=uVWO0.SD1XmD;entryDx=0;entryDy=0;exitDx=0;exitDy=0;" parent="1" source="pvNLKoHXQlOhcsUP0_Xg-33" target="7o32ix6SAtG-U7apxFBy-63" edge="1">
          <mxGeometry width="100" height="100" relative="1" as="geometry">
            <Array as="points">
              <mxPoint x="-1914" y="778" />
              <mxPoint x="-1914" y="710" />
            </Array>
            <mxPoint x="-1931" y="715" as="sourcePoint" />
            <mxPoint x="-1941" y="753" as="targetPoint" />
          </mxGeometry>
        </mxCell>
        <mxCell id="7o32ix6SAtG-U7apxFBy-61" value="Связь категории издания с режимом доступа" style="html=1;overflow=block;blockSpacing=1;swimlane;childLayout=stackLayout;horizontal=1;horizontalStack=0;resizeParent=1;resizeParentMax=0;resizeLast=0;collapsible=0;fontStyle=0;marginBottom=0;swimlaneFillColor=#ffffff;startSize=32;whiteSpace=wrap;fontSize=13;fontColor=#ffffff;align=center;spacing=0;strokeColor=#005700;strokeOpacity=100;fillOpacity=100;rounded=1;absoluteArcSize=1;arcSize=7.5;strokeWidth=0.8;fillColor=#008a00;" parent="1" vertex="1">
          <mxGeometry x="-1883" y="642" width="169" height="80" as="geometry" />
        </mxCell>
        <mxCell id="7o32ix6SAtG-U7apxFBy-62" value="ID категории издания" style="part=1;resizeHeight=0;strokeColor=none;align=left;verticalAlign=top;spacingLeft=4;spacingRight=4;overflow=hidden;rotatable=0;points=[[0,0.5],[1,0.5]];portConstraint=eastwest;html=1;whiteSpace=wrap;#ffffffwhiteSpace=wrap;fontSize=13;fontColor=#333333;fontStyle=4;fillColor=none;strokeOpacity=100;fillOpacity=100;" parent="7o32ix6SAtG-U7apxFBy-61" vertex="1">
          <mxGeometry y="32" width="169" height="24" as="geometry" />
        </mxCell>
        <mxCell id="7o32ix6SAtG-U7apxFBy-63" value="ID режима доступа" style="part=1;resizeHeight=0;strokeColor=none;align=left;verticalAlign=top;spacingLeft=4;spacingRight=4;overflow=hidden;rotatable=0;points=[[0,0.5],[1,0.5]];portConstraint=eastwest;html=1;whiteSpace=wrap;#ffffffwhiteSpace=wrap;fontSize=13;fontColor=#333333;fillColor=none;strokeOpacity=100;fillOpacity=100;" parent="7o32ix6SAtG-U7apxFBy-61" vertex="1">
          <mxGeometry y="56" width="169" height="24" as="geometry" />
        </mxCell>
        <mxCell id="7o32ix6SAtG-U7apxFBy-65" value="" style="html=1;jettySize=18;whiteSpace=wrap;fontSize=13;strokeColor=#3a414a;strokeOpacity=100;strokeWidth=0.8;rounded=1;arcSize=12;edgeStyle=orthogonalEdgeStyle;startArrow=ERone;startSize=16;endArrow=ERone;endSize=16;entryX=0;entryY=0.5;lucidId=WyWO2uIzKxOy;entryDx=0;entryDy=0;exitX=1;exitY=0.5;exitDx=0;exitDy=0;" parent="1" source="PvF9w1s-Sq6uoAmOtv15-76" target="7o32ix6SAtG-U7apxFBy-62" edge="1">
          <mxGeometry width="100" height="100" relative="1" as="geometry">
            <Array as="points" />
            <mxPoint x="-1940" y="706" as="sourcePoint" />
            <mxPoint x="-2347" y="602" as="targetPoint" />
          </mxGeometry>
        </mxCell>
        <mxCell id="LDUGckeA06KayumZ7y5b-4" value="" style="html=1;jettySize=18;whiteSpace=wrap;fontSize=13;strokeColor=#3a414a;strokeOpacity=100;strokeWidth=0.8;rounded=1;arcSize=12;edgeStyle=orthogonalEdgeStyle;startArrow=ERone;startSize=16;endArrow=ERmany;endSize=10;exitX=0;exitY=0.5;entryX=1;entryY=0.5;lucidId=bWVOXa4nwIZu;entryDx=0;entryDy=0;exitDx=0;exitDy=0;" parent="1" source="PvF9w1s-Sq6uoAmOtv15-25" target="pvNLKoHXQlOhcsUP0_Xg-3" edge="1">
          <mxGeometry width="100" height="100" relative="1" as="geometry">
            <Array as="points">
              <mxPoint x="-1957" y="-75" />
              <mxPoint x="-1957" y="-21" />
            </Array>
            <mxPoint x="-1895" y="-65" as="sourcePoint" />
            <mxPoint x="-1965" y="-65" as="targetPoint" />
          </mxGeometry>
        </mxCell>
        <mxCell id="LDUGckeA06KayumZ7y5b-5" value="Реквизиты библиотеки" style="html=1;overflow=block;blockSpacing=1;swimlane;childLayout=stackLayout;horizontal=1;horizontalStack=0;resizeParent=1;resizeParentMax=0;resizeLast=0;collapsible=0;fontStyle=0;marginBottom=0;swimlaneFillColor=#ffffff;startSize=30;whiteSpace=wrap;fontSize=13;align=center;spacing=0;strokeOpacity=100;fillOpacity=100;rounded=1;absoluteArcSize=1;arcSize=7.5;strokeWidth=0.8;fillColor=#008a00;strokeColor=#005700;fontColor=#ffffff;" parent="1" vertex="1">
          <mxGeometry x="-2142" y="-558" width="169" height="222" as="geometry" />
        </mxCell>
        <mxCell id="LDUGckeA06KayumZ7y5b-6" value="ID библиотеки" style="part=1;resizeHeight=0;strokeColor=none;align=left;verticalAlign=top;spacingLeft=4;spacingRight=4;overflow=hidden;rotatable=0;points=[[0,0.5],[1,0.5]];portConstraint=eastwest;html=1;whiteSpace=wrap;#ffffffwhiteSpace=wrap;fontSize=13;fontColor=#333333;fontStyle=4;fillColor=none;strokeOpacity=100;fillOpacity=100;" parent="LDUGckeA06KayumZ7y5b-5" vertex="1">
          <mxGeometry y="30" width="169" height="24" as="geometry" />
        </mxCell>
        <mxCell id="LDUGckeA06KayumZ7y5b-7" value="ОГРН" style="part=1;resizeHeight=0;strokeColor=none;align=left;verticalAlign=top;spacingLeft=4;spacingRight=4;overflow=hidden;rotatable=0;points=[[0,0.5],[1,0.5]];portConstraint=eastwest;html=1;whiteSpace=wrap;#ffffffwhiteSpace=wrap;fontSize=13;fontColor=#333333;fillColor=none;strokeOpacity=100;fillOpacity=100;" parent="LDUGckeA06KayumZ7y5b-5" vertex="1">
          <mxGeometry y="54" width="169" height="24" as="geometry" />
        </mxCell>
        <mxCell id="LDUGckeA06KayumZ7y5b-8" value="ИНН" style="part=1;resizeHeight=0;strokeColor=none;align=left;verticalAlign=top;spacingLeft=4;spacingRight=4;overflow=hidden;rotatable=0;points=[[0,0.5],[1,0.5]];portConstraint=eastwest;html=1;whiteSpace=wrap;#ffffffwhiteSpace=wrap;fontSize=13;fontColor=#333333;fillColor=none;strokeOpacity=100;fillOpacity=100;" parent="LDUGckeA06KayumZ7y5b-5" vertex="1">
          <mxGeometry y="78" width="169" height="24" as="geometry" />
        </mxCell>
        <mxCell id="LDUGckeA06KayumZ7y5b-9" value="КПП" style="part=1;resizeHeight=0;strokeColor=none;align=left;verticalAlign=top;spacingLeft=4;spacingRight=4;overflow=hidden;rotatable=0;points=[[0,0.5],[1,0.5]];portConstraint=eastwest;html=1;whiteSpace=wrap;#ffffffwhiteSpace=wrap;fontSize=13;fontColor=#333333;fillColor=none;strokeOpacity=100;fillOpacity=100;" parent="LDUGckeA06KayumZ7y5b-5" vertex="1">
          <mxGeometry y="102" width="169" height="24" as="geometry" />
        </mxCell>
        <mxCell id="LDUGckeA06KayumZ7y5b-18" value="БИК" style="part=1;resizeHeight=0;strokeColor=none;align=left;verticalAlign=top;spacingLeft=4;spacingRight=4;overflow=hidden;rotatable=0;points=[[0,0.5],[1,0.5]];portConstraint=eastwest;html=1;whiteSpace=wrap;#ffffffwhiteSpace=wrap;fontSize=13;fontColor=#333333;fillColor=none;strokeOpacity=100;fillOpacity=100;" parent="LDUGckeA06KayumZ7y5b-5" vertex="1">
          <mxGeometry y="126" width="169" height="24" as="geometry" />
        </mxCell>
        <mxCell id="LDUGckeA06KayumZ7y5b-17" value="Расчётный счёт" style="part=1;resizeHeight=0;strokeColor=none;align=left;verticalAlign=top;spacingLeft=4;spacingRight=4;overflow=hidden;rotatable=0;points=[[0,0.5],[1,0.5]];portConstraint=eastwest;html=1;whiteSpace=wrap;#ffffffwhiteSpace=wrap;fontSize=13;fontColor=#333333;fillColor=none;strokeOpacity=100;fillOpacity=100;" parent="LDUGckeA06KayumZ7y5b-5" vertex="1">
          <mxGeometry y="150" width="169" height="24" as="geometry" />
        </mxCell>
        <mxCell id="LDUGckeA06KayumZ7y5b-26" value="Улица" style="part=1;resizeHeight=0;strokeColor=none;align=left;verticalAlign=top;spacingLeft=4;spacingRight=4;overflow=hidden;rotatable=0;points=[[0,0.5],[1,0.5]];portConstraint=eastwest;html=1;whiteSpace=wrap;#ffffffwhiteSpace=wrap;fontSize=13;fontColor=#333333;fillColor=none;strokeOpacity=100;fillOpacity=100;" parent="LDUGckeA06KayumZ7y5b-5" vertex="1">
          <mxGeometry y="174" width="169" height="24" as="geometry" />
        </mxCell>
        <mxCell id="LDUGckeA06KayumZ7y5b-25" value="Дом" style="part=1;resizeHeight=0;strokeColor=none;align=left;verticalAlign=top;spacingLeft=4;spacingRight=4;overflow=hidden;rotatable=0;points=[[0,0.5],[1,0.5]];portConstraint=eastwest;html=1;whiteSpace=wrap;#ffffffwhiteSpace=wrap;fontSize=13;fontColor=#333333;fillColor=none;strokeOpacity=100;fillOpacity=100;" parent="LDUGckeA06KayumZ7y5b-5" vertex="1">
          <mxGeometry y="198" width="169" height="24" as="geometry" />
        </mxCell>
        <mxCell id="LDUGckeA06KayumZ7y5b-10" value="" style="html=1;jettySize=18;whiteSpace=wrap;fontSize=13;strokeColor=#3a414a;strokeOpacity=100;strokeWidth=0.8;rounded=1;arcSize=12;edgeStyle=orthogonalEdgeStyle;startArrow=ERone;startSize=16;endArrow=ERone;endSize=16;lucidId=V4ePyNtxxohS;exitX=0;exitY=0.5;exitDx=0;exitDy=0;entryX=0;entryY=0.5;entryDx=0;entryDy=0;" parent="1" source="LDUGckeA06KayumZ7y5b-6" target="PvF9w1s-Sq6uoAmOtv15-37" edge="1">
          <mxGeometry width="100" height="100" relative="1" as="geometry">
            <Array as="points">
              <mxPoint x="-2220" y="-516" />
              <mxPoint x="-2220" y="-278" />
            </Array>
            <mxPoint x="-2196" y="-226" as="sourcePoint" />
            <mxPoint x="-2179" y="-201" as="targetPoint" />
          </mxGeometry>
        </mxCell>
        <mxCell id="LDUGckeA06KayumZ7y5b-11" value="Реквизиты поставщика" style="html=1;overflow=block;blockSpacing=1;swimlane;childLayout=stackLayout;horizontal=1;horizontalStack=0;resizeParent=1;resizeParentMax=0;resizeLast=0;collapsible=0;fontStyle=0;marginBottom=0;swimlaneFillColor=#ffffff;startSize=30;whiteSpace=wrap;fontSize=13;align=center;spacing=0;strokeOpacity=100;fillOpacity=100;rounded=1;absoluteArcSize=1;arcSize=7.5;strokeWidth=0.8;fillColor=#008a00;strokeColor=#005700;fontColor=#ffffff;" parent="1" vertex="1">
          <mxGeometry x="-2832" y="405" width="169" height="246" as="geometry" />
        </mxCell>
        <mxCell id="LDUGckeA06KayumZ7y5b-12" value="ID поставщика" style="part=1;resizeHeight=0;strokeColor=none;align=left;verticalAlign=top;spacingLeft=4;spacingRight=4;overflow=hidden;rotatable=0;points=[[0,0.5],[1,0.5]];portConstraint=eastwest;html=1;whiteSpace=wrap;#ffffffwhiteSpace=wrap;fontSize=13;fontColor=#333333;fontStyle=4;fillColor=none;strokeOpacity=100;fillOpacity=100;" parent="LDUGckeA06KayumZ7y5b-11" vertex="1">
          <mxGeometry y="30" width="169" height="24" as="geometry" />
        </mxCell>
        <mxCell id="LDUGckeA06KayumZ7y5b-13" value="ОГРН" style="part=1;resizeHeight=0;strokeColor=none;align=left;verticalAlign=top;spacingLeft=4;spacingRight=4;overflow=hidden;rotatable=0;points=[[0,0.5],[1,0.5]];portConstraint=eastwest;html=1;whiteSpace=wrap;#ffffffwhiteSpace=wrap;fontSize=13;fontColor=#333333;fillColor=none;strokeOpacity=100;fillOpacity=100;" parent="LDUGckeA06KayumZ7y5b-11" vertex="1">
          <mxGeometry y="54" width="169" height="24" as="geometry" />
        </mxCell>
        <mxCell id="LDUGckeA06KayumZ7y5b-14" value="ИНН" style="part=1;resizeHeight=0;strokeColor=none;align=left;verticalAlign=top;spacingLeft=4;spacingRight=4;overflow=hidden;rotatable=0;points=[[0,0.5],[1,0.5]];portConstraint=eastwest;html=1;whiteSpace=wrap;#ffffffwhiteSpace=wrap;fontSize=13;fontColor=#333333;fillColor=none;strokeOpacity=100;fillOpacity=100;" parent="LDUGckeA06KayumZ7y5b-11" vertex="1">
          <mxGeometry y="78" width="169" height="24" as="geometry" />
        </mxCell>
        <mxCell id="LDUGckeA06KayumZ7y5b-15" value="КПП" style="part=1;resizeHeight=0;strokeColor=none;align=left;verticalAlign=top;spacingLeft=4;spacingRight=4;overflow=hidden;rotatable=0;points=[[0,0.5],[1,0.5]];portConstraint=eastwest;html=1;whiteSpace=wrap;#ffffffwhiteSpace=wrap;fontSize=13;fontColor=#333333;fillColor=none;strokeOpacity=100;fillOpacity=100;" parent="LDUGckeA06KayumZ7y5b-11" vertex="1">
          <mxGeometry y="102" width="169" height="24" as="geometry" />
        </mxCell>
        <mxCell id="LDUGckeA06KayumZ7y5b-20" value="БИК" style="part=1;resizeHeight=0;strokeColor=none;align=left;verticalAlign=top;spacingLeft=4;spacingRight=4;overflow=hidden;rotatable=0;points=[[0,0.5],[1,0.5]];portConstraint=eastwest;html=1;whiteSpace=wrap;#ffffffwhiteSpace=wrap;fontSize=13;fontColor=#333333;fillColor=none;strokeOpacity=100;fillOpacity=100;" parent="LDUGckeA06KayumZ7y5b-11" vertex="1">
          <mxGeometry y="126" width="169" height="24" as="geometry" />
        </mxCell>
        <mxCell id="LDUGckeA06KayumZ7y5b-19" value="Расчётный счёт" style="part=1;resizeHeight=0;strokeColor=none;align=left;verticalAlign=top;spacingLeft=4;spacingRight=4;overflow=hidden;rotatable=0;points=[[0,0.5],[1,0.5]];portConstraint=eastwest;html=1;whiteSpace=wrap;#ffffffwhiteSpace=wrap;fontSize=13;fontColor=#333333;fillColor=none;strokeOpacity=100;fillOpacity=100;" parent="LDUGckeA06KayumZ7y5b-11" vertex="1">
          <mxGeometry y="150" width="169" height="24" as="geometry" />
        </mxCell>
        <mxCell id="LDUGckeA06KayumZ7y5b-29" value="Город" style="part=1;resizeHeight=0;strokeColor=none;align=left;verticalAlign=top;spacingLeft=4;spacingRight=4;overflow=hidden;rotatable=0;points=[[0,0.5],[1,0.5]];portConstraint=eastwest;html=1;whiteSpace=wrap;#ffffffwhiteSpace=wrap;fontSize=13;fontColor=#333333;fillColor=none;strokeOpacity=100;fillOpacity=100;" parent="LDUGckeA06KayumZ7y5b-11" vertex="1">
          <mxGeometry y="174" width="169" height="24" as="geometry" />
        </mxCell>
        <mxCell id="LDUGckeA06KayumZ7y5b-28" value="Улица" style="part=1;resizeHeight=0;strokeColor=none;align=left;verticalAlign=top;spacingLeft=4;spacingRight=4;overflow=hidden;rotatable=0;points=[[0,0.5],[1,0.5]];portConstraint=eastwest;html=1;whiteSpace=wrap;#ffffffwhiteSpace=wrap;fontSize=13;fontColor=#333333;fillColor=none;strokeOpacity=100;fillOpacity=100;" parent="LDUGckeA06KayumZ7y5b-11" vertex="1">
          <mxGeometry y="198" width="169" height="24" as="geometry" />
        </mxCell>
        <mxCell id="LDUGckeA06KayumZ7y5b-27" value="Дом" style="part=1;resizeHeight=0;strokeColor=none;align=left;verticalAlign=top;spacingLeft=4;spacingRight=4;overflow=hidden;rotatable=0;points=[[0,0.5],[1,0.5]];portConstraint=eastwest;html=1;whiteSpace=wrap;#ffffffwhiteSpace=wrap;fontSize=13;fontColor=#333333;fillColor=none;strokeOpacity=100;fillOpacity=100;" parent="LDUGckeA06KayumZ7y5b-11" vertex="1">
          <mxGeometry y="222" width="169" height="24" as="geometry" />
        </mxCell>
        <mxCell id="LDUGckeA06KayumZ7y5b-16" value="" style="html=1;jettySize=18;whiteSpace=wrap;fontSize=13;strokeColor=#3a414a;strokeOpacity=100;strokeWidth=0.8;rounded=1;arcSize=12;edgeStyle=orthogonalEdgeStyle;startArrow=ERone;startSize=16;endArrow=ERone;endSize=16;exitX=0;exitY=0.5;entryX=0;entryY=0.5;lucidId=V4ePyNtxxohS;exitDx=0;exitDy=0;entryDx=0;entryDy=0;" parent="1" source="7o32ix6SAtG-U7apxFBy-27" target="LDUGckeA06KayumZ7y5b-12" edge="1">
          <mxGeometry width="100" height="100" relative="1" as="geometry">
            <Array as="points" />
            <mxPoint x="-2465" y="173" as="sourcePoint" />
            <mxPoint x="-2420" y="173" as="targetPoint" />
          </mxGeometry>
        </mxCell>
        <mxCell id="bprBRDbvNe3V_gqeEwXp-4" value="Адрес регистрации" style="html=1;overflow=block;blockSpacing=1;swimlane;childLayout=stackLayout;horizontal=1;horizontalStack=0;resizeParent=1;resizeParentMax=0;resizeLast=0;collapsible=0;fontStyle=0;marginBottom=0;swimlaneFillColor=#ffffff;startSize=30;whiteSpace=wrap;fontSize=13;fontColor=#ffffff;align=center;spacing=0;strokeColor=#005700;strokeOpacity=100;fillOpacity=100;rounded=1;absoluteArcSize=1;arcSize=7.5;strokeWidth=0.8;fillColor=#008a00;" parent="1" vertex="1">
          <mxGeometry x="-1029" y="-244" width="157" height="150" as="geometry" />
        </mxCell>
        <mxCell id="bprBRDbvNe3V_gqeEwXp-5" value="ID адреса регистрации" style="part=1;resizeHeight=0;strokeColor=none;align=left;verticalAlign=top;spacingLeft=4;spacingRight=4;overflow=hidden;rotatable=0;points=[[0,0.5],[1,0.5]];portConstraint=eastwest;html=1;whiteSpace=wrap;#ffffffwhiteSpace=wrap;fontSize=13;fontColor=#333333;fontStyle=4;fillColor=none;strokeOpacity=100;fillOpacity=100;" parent="bprBRDbvNe3V_gqeEwXp-4" vertex="1">
          <mxGeometry y="30" width="157" height="24" as="geometry" />
        </mxCell>
        <mxCell id="bprBRDbvNe3V_gqeEwXp-6" value="Город" style="part=1;resizeHeight=0;strokeColor=none;align=left;verticalAlign=top;spacingLeft=4;spacingRight=4;overflow=hidden;rotatable=0;points=[[0,0.5],[1,0.5]];portConstraint=eastwest;html=1;whiteSpace=wrap;#ffffffwhiteSpace=wrap;fontSize=13;fontColor=#333333;fillColor=none;strokeOpacity=100;fillOpacity=100;" parent="bprBRDbvNe3V_gqeEwXp-4" vertex="1">
          <mxGeometry y="54" width="157" height="24" as="geometry" />
        </mxCell>
        <mxCell id="bprBRDbvNe3V_gqeEwXp-7" value="Улица" style="part=1;resizeHeight=0;strokeColor=none;align=left;verticalAlign=top;spacingLeft=4;spacingRight=4;overflow=hidden;rotatable=0;points=[[0,0.5],[1,0.5]];portConstraint=eastwest;html=1;whiteSpace=wrap;#ffffffwhiteSpace=wrap;fontSize=13;fontColor=#333333;fillColor=none;strokeOpacity=100;fillOpacity=100;" parent="bprBRDbvNe3V_gqeEwXp-4" vertex="1">
          <mxGeometry y="78" width="157" height="24" as="geometry" />
        </mxCell>
        <mxCell id="bprBRDbvNe3V_gqeEwXp-8" value="Дом" style="part=1;resizeHeight=0;strokeColor=none;align=left;verticalAlign=top;spacingLeft=4;spacingRight=4;overflow=hidden;rotatable=0;points=[[0,0.5],[1,0.5]];portConstraint=eastwest;html=1;whiteSpace=wrap;#ffffffwhiteSpace=wrap;fontSize=13;fontColor=#333333;fillColor=none;strokeOpacity=100;fillOpacity=100;" parent="bprBRDbvNe3V_gqeEwXp-4" vertex="1">
          <mxGeometry y="102" width="157" height="24" as="geometry" />
        </mxCell>
        <mxCell id="bprBRDbvNe3V_gqeEwXp-10" value="Квартира" style="part=1;resizeHeight=0;strokeColor=none;align=left;verticalAlign=top;spacingLeft=4;spacingRight=4;overflow=hidden;rotatable=0;points=[[0,0.5],[1,0.5]];portConstraint=eastwest;html=1;whiteSpace=wrap;#ffffffwhiteSpace=wrap;fontSize=13;fontColor=#333333;fillColor=none;strokeOpacity=100;fillOpacity=100;" parent="bprBRDbvNe3V_gqeEwXp-4" vertex="1">
          <mxGeometry y="126" width="157" height="24" as="geometry" />
        </mxCell>
        <mxCell id="bprBRDbvNe3V_gqeEwXp-9" value="" style="html=1;jettySize=18;whiteSpace=wrap;fontSize=13;strokeColor=#3a414a;strokeOpacity=100;strokeWidth=0.8;rounded=1;arcSize=12;edgeStyle=orthogonalEdgeStyle;startArrow=ERone;startSize=16;endArrow=ERmany;endSize=10;exitX=0;exitY=0.5;entryX=1;entryY=0.5;lucidId=bWVOXa4nwIZu;entryDx=0;entryDy=0;exitDx=0;exitDy=0;" parent="1" source="bprBRDbvNe3V_gqeEwXp-5" target="PvF9w1s-Sq6uoAmOtv15-145" edge="1">
          <mxGeometry width="100" height="100" relative="1" as="geometry">
            <Array as="points">
              <mxPoint x="-1029" y="-202" />
            </Array>
            <mxPoint x="-1485" y="-103" as="sourcePoint" />
            <mxPoint x="-1485" y="-384" as="targetPoint" />
          </mxGeometry>
        </mxCell>
        <mxCell id="bprBRDbvNe3V_gqeEwXp-11" value="" style="html=1;jettySize=18;whiteSpace=wrap;fontSize=13;strokeColor=#3a414a;strokeOpacity=100;strokeWidth=0.8;rounded=1;arcSize=12;edgeStyle=orthogonalEdgeStyle;startArrow=ERone;startSize=16;endArrow=ERmany;endSize=10;exitX=1;exitY=0.5;entryX=0;entryY=0.5;lucidId=bWVOXa4nwIZu;entryDx=0;entryDy=0;exitDx=0;exitDy=0;" parent="1" source="PvF9w1s-Sq6uoAmOtv15-147" target="7o32ix6SAtG-U7apxFBy-22" edge="1">
          <mxGeometry width="100" height="100" relative="1" as="geometry">
            <Array as="points">
              <mxPoint x="-1460" y="-226" />
              <mxPoint x="-1460" y="-129" />
            </Array>
            <mxPoint x="-1229" y="-212" as="sourcePoint" />
            <mxPoint x="-1269" y="-212" as="targetPoint" />
          </mxGeometry>
        </mxCell>
        <mxCell id="bprBRDbvNe3V_gqeEwXp-14" value="" style="html=1;jettySize=18;whiteSpace=wrap;fontSize=13;strokeColor=#3a414a;strokeOpacity=100;strokeWidth=0.8;rounded=1;arcSize=12;edgeStyle=orthogonalEdgeStyle;startArrow=ERone;startSize=16;endArrow=ERmany;endSize=10;exitX=0;exitY=0.5;entryX=1;entryY=0.5;lucidId=bWVOXa4nwIZu;entryDx=0;entryDy=0;exitDx=0;exitDy=0;" parent="1" source="PvF9w1s-Sq6uoAmOtv15-37" target="7o32ix6SAtG-U7apxFBy-13" edge="1">
          <mxGeometry width="100" height="100" relative="1" as="geometry">
            <Array as="points">
              <mxPoint x="-2261" y="-277" />
            </Array>
            <mxPoint x="-1229" y="-238" as="sourcePoint" />
            <mxPoint x="-1269" y="-238" as="targetPoint" />
          </mxGeometry>
        </mxCell>
        <mxCell id="bprBRDbvNe3V_gqeEwXp-15" value="" style="html=1;jettySize=18;whiteSpace=wrap;fontSize=13;strokeColor=#3a414a;strokeOpacity=100;strokeWidth=0.8;rounded=1;arcSize=12;edgeStyle=orthogonalEdgeStyle;startArrow=ERone;startSize=16;endArrow=ERmany;endSize=10;exitX=1;exitY=0.5;entryX=0;entryY=0.5;lucidId=bWVOXa4nwIZu;entryDx=0;entryDy=0;exitDx=0;exitDy=0;" parent="1" source="PvF9w1s-Sq6uoAmOtv15-125" target="PvF9w1s-Sq6uoAmOtv15-119" edge="1">
          <mxGeometry width="100" height="100" relative="1" as="geometry">
            <Array as="points">
              <mxPoint x="-2203" y="91" />
              <mxPoint x="-2203" y="91" />
            </Array>
            <mxPoint x="-2134" y="-268" as="sourcePoint" />
            <mxPoint x="-2251" y="-267" as="targetPoint" />
          </mxGeometry>
        </mxCell>
        <mxCell id="bprBRDbvNe3V_gqeEwXp-16" value="" style="html=1;jettySize=18;whiteSpace=wrap;fontSize=13;strokeColor=#3a414a;strokeOpacity=100;strokeWidth=0.8;rounded=1;arcSize=12;edgeStyle=orthogonalEdgeStyle;startArrow=ERone;startSize=16;endArrow=ERmany;endSize=10;exitX=1;exitY=0.5;entryX=0;entryY=0.5;lucidId=bWVOXa4nwIZu;entryDx=0;entryDy=0;exitDx=0;exitDy=0;" parent="1" source="7o32ix6SAtG-U7apxFBy-39" target="7o32ix6SAtG-U7apxFBy-34" edge="1">
          <mxGeometry width="100" height="100" relative="1" as="geometry">
            <Array as="points">
              <mxPoint x="-2425" y="283" />
              <mxPoint x="-2425" y="283" />
            </Array>
            <mxPoint x="-2251" y="101" as="sourcePoint" />
            <mxPoint x="-2135" y="101" as="targetPoint" />
          </mxGeometry>
        </mxCell>
        <mxCell id="bprBRDbvNe3V_gqeEwXp-18" value="" style="html=1;jettySize=18;whiteSpace=wrap;fontSize=13;strokeColor=#3a414a;strokeOpacity=100;strokeWidth=0.8;rounded=1;arcSize=12;edgeStyle=orthogonalEdgeStyle;startArrow=ERone;startSize=16;endArrow=ERmany;endSize=10;lucidId=fgfPFO0IT-sI;entryX=1;entryY=0.5;entryDx=0;entryDy=0;exitX=0;exitY=0.5;exitDx=0;exitDy=0;" parent="1" source="LDUGckeA06KayumZ7y5b-6" target="7o32ix6SAtG-U7apxFBy-40" edge="1">
          <mxGeometry width="100" height="100" relative="1" as="geometry">
            <Array as="points">
              <mxPoint x="-2220" y="-516" />
              <mxPoint x="-2220" y="198" />
              <mxPoint x="-2439" y="198" />
              <mxPoint x="-2439" y="307" />
            </Array>
            <mxPoint x="-2262" y="-142" as="sourcePoint" />
            <mxPoint x="-2420" y="17" as="targetPoint" />
          </mxGeometry>
        </mxCell>
        <mxCell id="bprBRDbvNe3V_gqeEwXp-19" value="" style="html=1;jettySize=18;whiteSpace=wrap;fontSize=13;strokeColor=#3a414a;strokeOpacity=100;strokeWidth=0.8;rounded=1;arcSize=12;edgeStyle=orthogonalEdgeStyle;startArrow=ERone;startSize=16;endArrow=ERmany;endSize=10;exitX=1;exitY=0.5;entryX=0;entryY=0.5;lucidId=bWVOXa4nwIZu;entryDx=0;entryDy=0;exitDx=0;exitDy=0;" parent="1" source="7o32ix6SAtG-U7apxFBy-27" target="7o32ix6SAtG-U7apxFBy-43" edge="1">
          <mxGeometry width="100" height="100" relative="1" as="geometry">
            <Array as="points">
              <mxPoint x="-2648" y="331" />
              <mxPoint x="-2648" y="331" />
            </Array>
            <mxPoint x="-2448" y="293" as="sourcePoint" />
            <mxPoint x="-2407" y="293" as="targetPoint" />
          </mxGeometry>
        </mxCell>
        <mxCell id="bprBRDbvNe3V_gqeEwXp-20" value="" style="html=1;jettySize=18;whiteSpace=wrap;fontSize=13;strokeColor=#3a414a;strokeOpacity=100;strokeWidth=0.8;rounded=1;arcSize=12;edgeStyle=orthogonalEdgeStyle;startArrow=ERone;startSize=16;endArrow=ERmany;endSize=10;lucidId=BFWObcZz9gxv;entryX=1;entryY=0.5;entryDx=0;entryDy=0;exitX=0;exitY=0.5;exitDx=0;exitDy=0;" parent="1" source="PvF9w1s-Sq6uoAmOtv15-44" target="7o32ix6SAtG-U7apxFBy-35" edge="1">
          <mxGeometry width="100" height="100" relative="1" as="geometry">
            <Array as="points">
              <mxPoint x="-2168" y="462" />
              <mxPoint x="-2168" y="307" />
            </Array>
            <mxPoint x="-1931" y="472" as="sourcePoint" />
            <mxPoint x="-1864" y="316" as="targetPoint" />
          </mxGeometry>
        </mxCell>
        <mxCell id="Up_oZuGSdpv_CDl5ijkB-1" value="" style="html=1;jettySize=18;whiteSpace=wrap;fontSize=13;strokeColor=#3a414a;strokeOpacity=100;strokeWidth=0.8;rounded=1;arcSize=12;edgeStyle=orthogonalEdgeStyle;startArrow=ERmany;startSize=10;endArrow=ERone;endSize=16;exitX=0;exitY=0.5;lucidId=KSVOqX-~kG_~;exitDx=0;exitDy=0;entryX=0;entryY=0.5;entryDx=0;entryDy=0;" parent="1" source="PvF9w1s-Sq6uoAmOtv15-5" target="PvF9w1s-Sq6uoAmOtv15-37" edge="1">
          <mxGeometry width="100" height="100" relative="1" as="geometry">
            <Array as="points">
              <mxPoint x="-1373" y="301" />
              <mxPoint x="-1373" y="156" />
              <mxPoint x="-2220" y="156" />
              <mxPoint x="-2220" y="-278" />
            </Array>
            <mxPoint x="-1392" y="239" as="sourcePoint" />
            <mxPoint x="-1697" y="-27" as="targetPoint" />
          </mxGeometry>
        </mxCell>
        <mxCell id="1q3OUMzb8WgDCFiMj3cx-1" value="Связь человека с паспортом" style="html=1;overflow=block;blockSpacing=1;swimlane;childLayout=stackLayout;horizontal=1;horizontalStack=0;resizeParent=1;resizeParentMax=0;resizeLast=0;collapsible=0;fontStyle=0;marginBottom=0;swimlaneFillColor=#ffffff;startSize=30;whiteSpace=wrap;fontSize=13;fontColor=#ffffff;align=center;spacing=0;strokeColor=#005700;strokeOpacity=100;fillOpacity=100;rounded=1;absoluteArcSize=1;arcSize=7.5;strokeWidth=0.8;fillColor=#008a00;" parent="1" vertex="1">
          <mxGeometry x="-1437" y="-316" width="159" height="102" as="geometry" />
        </mxCell>
        <mxCell id="1q3OUMzb8WgDCFiMj3cx-2" value="ID человека" style="part=1;resizeHeight=0;strokeColor=none;align=left;verticalAlign=top;spacingLeft=4;spacingRight=4;overflow=hidden;rotatable=0;points=[[0,0.5],[1,0.5]];portConstraint=eastwest;html=1;whiteSpace=wrap;#ffffffwhiteSpace=wrap;fontSize=13;fontColor=#333333;fontStyle=4;fillColor=none;strokeOpacity=100;fillOpacity=100;" parent="1q3OUMzb8WgDCFiMj3cx-1" vertex="1">
          <mxGeometry y="30" width="159" height="24" as="geometry" />
        </mxCell>
        <mxCell id="1q3OUMzb8WgDCFiMj3cx-3" value="Серия паспорта" style="part=1;resizeHeight=0;strokeColor=none;align=left;verticalAlign=top;spacingLeft=4;spacingRight=4;overflow=hidden;rotatable=0;points=[[0,0.5],[1,0.5]];portConstraint=eastwest;html=1;whiteSpace=wrap;#ffffffwhiteSpace=wrap;fontSize=13;fontColor=#333333;fillColor=none;strokeOpacity=100;fillOpacity=100;" parent="1q3OUMzb8WgDCFiMj3cx-1" vertex="1">
          <mxGeometry y="54" width="159" height="24" as="geometry" />
        </mxCell>
        <mxCell id="1q3OUMzb8WgDCFiMj3cx-4" value="Номер паспорта" style="part=1;resizeHeight=0;strokeColor=none;align=left;verticalAlign=top;spacingLeft=4;spacingRight=4;overflow=hidden;rotatable=0;points=[[0,0.5],[1,0.5]];portConstraint=eastwest;html=1;whiteSpace=wrap;#ffffffwhiteSpace=wrap;fontSize=13;fontColor=#333333;fillColor=none;strokeOpacity=100;fillOpacity=100;" parent="1q3OUMzb8WgDCFiMj3cx-1" vertex="1">
          <mxGeometry y="78" width="159" height="24" as="geometry" />
        </mxCell>
        <mxCell id="1q3OUMzb8WgDCFiMj3cx-9" value="" style="html=1;jettySize=18;whiteSpace=wrap;fontSize=13;strokeColor=#3a414a;strokeOpacity=100;strokeWidth=0.8;rounded=1;arcSize=12;edgeStyle=orthogonalEdgeStyle;startArrow=ERone;startSize=16;endArrow=ERone;endSize=16;exitX=0.997;exitY=0.991;entryX=0.001;entryY=0.035;lucidId=TXVOuyyABTvU;exitDx=0;exitDy=0;entryDx=0;entryDy=0;entryPerimeter=0;exitPerimeter=0;" parent="1" source="1q3OUMzb8WgDCFiMj3cx-3" target="PvF9w1s-Sq6uoAmOtv15-144" edge="1">
          <mxGeometry width="100" height="100" relative="1" as="geometry">
            <Array as="points">
              <mxPoint x="-1255" y="-238" />
              <mxPoint x="-1233" y="-238" />
            </Array>
            <mxPoint x="-1474" y="-216" as="sourcePoint" />
            <mxPoint x="-1427" y="-264" as="targetPoint" />
          </mxGeometry>
        </mxCell>
        <mxCell id="4xacU6Pkpj398cB6QMW2-1" value="" style="html=1;jettySize=18;whiteSpace=wrap;fontSize=13;strokeColor=#3a414a;strokeOpacity=100;strokeWidth=0.8;rounded=1;arcSize=12;edgeStyle=orthogonalEdgeStyle;startArrow=ERone;startSize=16;endArrow=ERzeroToOne;endSize=10;exitX=1;exitY=0.5;entryX=0;entryY=0.5;lucidId=iiWO-NnlPZ5a;entryDx=0;entryDy=0;exitDx=0;exitDy=0;" parent="1" source="PvF9w1s-Sq6uoAmOtv15-147" target="1q3OUMzb8WgDCFiMj3cx-2" edge="1">
          <mxGeometry width="100" height="100" relative="1" as="geometry">
            <Array as="points" />
            <mxPoint x="-1175" y="239" as="sourcePoint" />
            <mxPoint x="-1085" y="67" as="targetPoint" />
          </mxGeometry>
        </mxCell>
        <mxCell id="4xacU6Pkpj398cB6QMW2-5" value="" style="html=1;jettySize=18;whiteSpace=wrap;fontSize=13;strokeColor=#3a414a;strokeOpacity=100;strokeWidth=0.8;rounded=1;arcSize=12;edgeStyle=orthogonalEdgeStyle;startArrow=ERone;startSize=16;endArrow=ERzeroToOne;endSize=10;exitX=0;exitY=0.5;entryX=1;entryY=0.5;lucidId=iiWO-NnlPZ5a;entryDx=0;entryDy=0;exitDx=0;exitDy=0;" parent="1" source="PvF9w1s-Sq6uoAmOtv15-44" target="pvNLKoHXQlOhcsUP0_Xg-17" edge="1">
          <mxGeometry width="100" height="100" relative="1" as="geometry">
            <Array as="points" />
            <mxPoint x="-1467" y="493.53999999999996" as="sourcePoint" />
            <mxPoint x="-1420" y="445.53999999999996" as="targetPoint" />
          </mxGeometry>
        </mxCell>
        <mxCell id="4xacU6Pkpj398cB6QMW2-6" value="" style="html=1;jettySize=18;whiteSpace=wrap;fontSize=13;strokeColor=#3a414a;strokeOpacity=100;strokeWidth=0.8;rounded=1;arcSize=12;edgeStyle=orthogonalEdgeStyle;startArrow=ERone;startSize=16;endArrow=ERzeroToOne;endSize=10;exitX=0;exitY=0.5;entryX=1;entryY=0.5;lucidId=iiWO-NnlPZ5a;entryDx=0;entryDy=0;exitDx=0;exitDy=0;" parent="1" source="PvF9w1s-Sq6uoAmOtv15-44" target="pvNLKoHXQlOhcsUP0_Xg-20" edge="1">
          <mxGeometry width="100" height="100" relative="1" as="geometry">
            <Array as="points">
              <mxPoint x="-2167" y="462" />
              <mxPoint x="-2167" y="584" />
            </Array>
            <mxPoint x="-2097" y="472" as="sourcePoint" />
            <mxPoint x="-2183" y="472" as="targetPoint" />
          </mxGeometry>
        </mxCell>
        <mxCell id="4xacU6Pkpj398cB6QMW2-7" value="" style="html=1;jettySize=18;whiteSpace=wrap;fontSize=13;strokeColor=#3a414a;strokeOpacity=100;strokeWidth=0.8;rounded=1;arcSize=12;edgeStyle=orthogonalEdgeStyle;startArrow=ERone;startSize=16;endArrow=ERzeroToOne;endSize=10;exitX=0;exitY=0.5;entryX=1;entryY=0.5;lucidId=iiWO-NnlPZ5a;entryDx=0;entryDy=0;exitDx=0;exitDy=0;" parent="1" source="PvF9w1s-Sq6uoAmOtv15-44" target="pvNLKoHXQlOhcsUP0_Xg-13" edge="1">
          <mxGeometry width="100" height="100" relative="1" as="geometry">
            <Array as="points">
              <mxPoint x="-2167" y="462" />
              <mxPoint x="-2167" y="705" />
            </Array>
            <mxPoint x="-2097" y="472" as="sourcePoint" />
            <mxPoint x="-2183" y="594" as="targetPoint" />
          </mxGeometry>
        </mxCell>
        <mxCell id="4xacU6Pkpj398cB6QMW2-8" value="Контакт поставщика" style="html=1;overflow=block;blockSpacing=1;swimlane;childLayout=stackLayout;horizontal=1;horizontalStack=0;resizeParent=1;resizeParentMax=0;resizeLast=0;collapsible=0;fontStyle=0;marginBottom=0;swimlaneFillColor=#ffffff;startSize=30;whiteSpace=wrap;fontSize=13;fontColor=#ffffff;align=center;spacing=0;strokeColor=#005700;strokeOpacity=100;fillOpacity=100;rounded=1;absoluteArcSize=1;arcSize=7.5;strokeWidth=0.8;fillColor=#008a00;" parent="1" vertex="1">
          <mxGeometry x="-2832" y="197" width="169" height="78" as="geometry" />
        </mxCell>
        <mxCell id="4xacU6Pkpj398cB6QMW2-9" value="&lt;u&gt;Номер телефона&lt;/u&gt;" style="part=1;resizeHeight=0;strokeColor=none;align=left;verticalAlign=top;spacingLeft=4;spacingRight=4;overflow=hidden;rotatable=0;points=[[0,0.5],[1,0.5]];portConstraint=eastwest;html=1;whiteSpace=wrap;#ffffffwhiteSpace=wrap;fontSize=13;fontColor=#333333;fillColor=none;strokeOpacity=100;fillOpacity=100;" parent="4xacU6Pkpj398cB6QMW2-8" vertex="1">
          <mxGeometry y="30" width="169" height="24" as="geometry" />
        </mxCell>
        <mxCell id="4xacU6Pkpj398cB6QMW2-10" value="ID поставщика" style="part=1;resizeHeight=0;strokeColor=none;align=left;verticalAlign=top;spacingLeft=4;spacingRight=4;overflow=hidden;rotatable=0;points=[[0,0.5],[1,0.5]];portConstraint=eastwest;html=1;whiteSpace=wrap;#ffffffwhiteSpace=wrap;fontSize=13;fontColor=#333333;fillColor=none;strokeOpacity=100;fillOpacity=100;" parent="4xacU6Pkpj398cB6QMW2-8" vertex="1">
          <mxGeometry y="54" width="169" height="24" as="geometry" />
        </mxCell>
        <mxCell id="4xacU6Pkpj398cB6QMW2-11" value="" style="html=1;jettySize=18;whiteSpace=wrap;fontSize=13;strokeColor=#3a414a;strokeOpacity=100;strokeWidth=0.8;rounded=1;arcSize=12;edgeStyle=orthogonalEdgeStyle;startArrow=ERone;startSize=16;endArrow=ERmany;endSize=10;exitX=0;exitY=0.5;lucidId=bWVOXa4nwIZu;exitDx=0;exitDy=0;entryX=0;entryY=0.5;entryDx=0;entryDy=0;" parent="1" source="7o32ix6SAtG-U7apxFBy-27" target="4xacU6Pkpj398cB6QMW2-10" edge="1">
          <mxGeometry width="100" height="100" relative="1" as="geometry">
            <Array as="points">
              <mxPoint x="-2850" y="331" />
              <mxPoint x="-2850" y="263" />
            </Array>
            <mxPoint x="-2134" y="-268" as="sourcePoint" />
            <mxPoint x="-2745" y="-13" as="targetPoint" />
          </mxGeometry>
        </mxCell>
        <mxCell id="otM5v1MfiI3TTdCXf4F5-5" value="" style="html=1;jettySize=18;whiteSpace=wrap;fontSize=13;strokeColor=#3a414a;strokeOpacity=100;strokeWidth=0.8;rounded=1;arcSize=12;edgeStyle=orthogonalEdgeStyle;startArrow=ERone;startSize=16;endArrow=ERmany;endSize=10;exitX=1;exitY=0.5;entryX=1;entryY=0.5;lucidId=bWVOXa4nwIZu;entryDx=0;entryDy=0;exitDx=0;exitDy=0;" parent="1" source="PvF9w1s-Sq6uoAmOtv15-25" target="PvF9w1s-Sq6uoAmOtv15-29" edge="1">
          <mxGeometry width="100" height="100" relative="1" as="geometry">
            <Array as="points">
              <mxPoint x="-1752" y="-75" />
              <mxPoint x="-1752" y="-180" />
            </Array>
            <mxPoint x="-1760" y="-65" as="sourcePoint" />
            <mxPoint x="-1760" y="-346" as="targetPoint" />
          </mxGeometry>
        </mxCell>
        <mxCell id="otM5v1MfiI3TTdCXf4F5-6" value="" style="html=1;jettySize=18;whiteSpace=wrap;fontSize=13;strokeColor=#3a414a;strokeOpacity=100;strokeWidth=0.8;rounded=1;arcSize=12;edgeStyle=orthogonalEdgeStyle;startArrow=ERone;startSize=16;endArrow=ERmany;endSize=10;exitX=0;exitY=0.5;entryX=0;entryY=0.5;lucidId=bWVOXa4nwIZu;entryDx=0;entryDy=0;exitDx=0;exitDy=0;" parent="1" source="PvF9w1s-Sq6uoAmOtv15-37" target="otM5v1MfiI3TTdCXf4F5-4" edge="1">
          <mxGeometry width="100" height="100" relative="1" as="geometry">
            <Array as="points">
              <mxPoint x="-2220" y="-278" />
              <mxPoint x="-2220" y="-156" />
            </Array>
            <mxPoint x="-1750" y="-55" as="sourcePoint" />
            <mxPoint x="-1750" y="-336" as="targetPoint" />
          </mxGeometry>
        </mxCell>
      </root>
    </mxGraphModel>
  </diagram>
</mxfile>
